<?xml version="1.0" encoding="UTF-8" standalone="no"?>
<!-- Created with Inkscape (http://www.inkscape.org/) -->
<svg
   xmlns:dc="http://purl.org/dc/elements/1.1/"
   xmlns:cc="http://creativecommons.org/ns#"
   xmlns:rdf="http://www.w3.org/1999/02/22-rdf-syntax-ns#"
   xmlns:svg="http://www.w3.org/2000/svg"
   xmlns="http://www.w3.org/2000/svg"
   xmlns:sodipodi="http://sodipodi.sourceforge.net/DTD/sodipodi-0.dtd"
   xmlns:inkscape="http://www.inkscape.org/namespaces/inkscape"
   width="313.78574"
   height="192.89128"
   id="svg2"
   sodipodi:version="0.32"
   inkscape:version="0.46"
   sodipodi:docname="sensori.svg"
   version="1.0"
   inkscape:output_extension="org.inkscape.output.svg.inkscape">
  <defs
     id="defs4">
    <inkscape:perspective
       sodipodi:type="inkscape:persp3d"
       inkscape:vp_x="0 : 526.18109 : 1"
       inkscape:vp_y="0 : 1000 : 0"
       inkscape:vp_z="744.09448 : 526.18109 : 1"
       inkscape:persp3d-origin="372.04724 : 350.78739 : 1"
       id="perspective10" />
  </defs>
  <sodipodi:namedview
     id="base"
     pagecolor="#ffffff"
     bordercolor="#666666"
     borderopacity="1.0"
     inkscape:pageopacity="0.0"
     inkscape:pageshadow="2"
     inkscape:zoom="1.4"
     inkscape:cx="221.16839"
     inkscape:cy="119.4962"
     inkscape:document-units="px"
     inkscape:current-layer="layer1"
     showgrid="false"
     inkscape:window-width="1270"
     inkscape:window-height="768"
     inkscape:window-x="0"
     inkscape:window-y="26" />
  <metadata
     id="metadata7">
    <rdf:RDF>
      <cc:Work
         rdf:about="">
        <dc:format>image/svg+xml</dc:format>
        <dc:type
           rdf:resource="http://purl.org/dc/dcmitype/StillImage" />
      </cc:Work>
    </rdf:RDF>
  </metadata>
  <g
     inkscape:label="Livello 1"
     inkscape:groupmode="layer"
     id="layer1"
     transform="translate(-93.999998,-605.70827)">
    <g
       id="g2395">
      <path
         transform="translate(85.714283,246.42857)"
         sodipodi:type="arc"
         style="opacity:1;fill:none;fill-opacity:1;stroke:#000000;stroke-width:1;stroke-linecap:butt;stroke-linejoin:miter;stroke-miterlimit:4;stroke-dasharray:4, 8;stroke-dashoffset:0;stroke-opacity:1"
         id="path3159"
         sodipodi:cx="57.142857"
         sodipodi:cy="458.07648"
         sodipodi:rx="20.714285"
         sodipodi:ry="20.714285"
         d="M 77.857141,458.07648 A 20.714285,20.714285 0 1 1 36.428572,458.07648 A 20.714285,20.714285 0 1 1 77.857141,458.07648 z" />
      <path
         transform="matrix(-0.2,0,0,0.2,157.42857,631.82901)"
         d="M 92.85714,363.38019 A 20,20 0 1 1 52.85714,363.38019 A 20,20 0 1 1 92.85714,363.38019 z"
         sodipodi:ry="20"
         sodipodi:rx="20"
         sodipodi:cy="363.38019"
         sodipodi:cx="72.85714"
         id="path3170"
         style="opacity:1;fill:#000000;fill-opacity:1;stroke:#000000;stroke-width:5;stroke-linecap:butt;stroke-linejoin:miter;stroke-miterlimit:4;stroke-dasharray:none;stroke-dashoffset:0;stroke-opacity:1"
         sodipodi:type="arc" />
      <path
         d="M 77.857141,458.07648 A 20.714285,20.714285 0 1 1 36.428572,458.07648 A 20.714285,20.714285 0 1 1 77.857141,458.07648 z"
         sodipodi:ry="20.714285"
         sodipodi:rx="20.714285"
         sodipodi:cy="458.07648"
         sodipodi:cx="57.142857"
         id="path3172"
         style="opacity:1;fill:none;fill-opacity:1;stroke:#000000;stroke-width:1;stroke-linecap:butt;stroke-linejoin:miter;stroke-miterlimit:4;stroke-dasharray:4, 8;stroke-dashoffset:0;stroke-opacity:1"
         sodipodi:type="arc"
         transform="translate(157.14285,217.14286)" />
      <path
         sodipodi:type="arc"
         style="opacity:1;fill:#000000;fill-opacity:1;stroke:#000000;stroke-width:5;stroke-linecap:butt;stroke-linejoin:miter;stroke-miterlimit:4;stroke-dasharray:none;stroke-dashoffset:0;stroke-opacity:1"
         id="path3174"
         sodipodi:cx="72.85714"
         sodipodi:cy="363.38019"
         sodipodi:rx="20"
         sodipodi:ry="20"
         d="M 92.85714,363.38019 A 20,20 0 1 1 52.85714,363.38019 A 20,20 0 1 1 92.85714,363.38019 z"
         transform="matrix(-0.2,0,0,0.2,228.85714,602.5433)" />
      <path
         transform="translate(125.92857,296.80876)"
         sodipodi:type="arc"
         style="opacity:1;fill:none;fill-opacity:1;stroke:#000000;stroke-width:1;stroke-linecap:butt;stroke-linejoin:miter;stroke-miterlimit:4;stroke-dasharray:4, 8;stroke-dashoffset:0;stroke-opacity:1"
         id="path3176"
         sodipodi:cx="57.142857"
         sodipodi:cy="458.07648"
         sodipodi:rx="20.714285"
         sodipodi:ry="20.714285"
         d="M 77.857141,458.07648 A 20.714285,20.714285 0 1 1 36.428572,458.07648 A 20.714285,20.714285 0 1 1 77.857141,458.07648 z" />
      <path
         transform="matrix(-0.2,0,0,0.2,197.64286,682.2092)"
         d="M 92.85714,363.38019 A 20,20 0 1 1 52.85714,363.38019 A 20,20 0 1 1 92.85714,363.38019 z"
         sodipodi:ry="20"
         sodipodi:rx="20"
         sodipodi:cy="363.38019"
         sodipodi:cx="72.85714"
         id="path3178"
         style="opacity:1;fill:#000000;fill-opacity:1;stroke:#000000;stroke-width:5;stroke-linecap:butt;stroke-linejoin:miter;stroke-miterlimit:4;stroke-dasharray:none;stroke-dashoffset:0;stroke-opacity:1"
         sodipodi:type="arc" />
      <path
         d="M 77.857141,458.07648 A 20.714285,20.714285 0 1 1 36.428572,458.07648 A 20.714285,20.714285 0 1 1 77.857141,458.07648 z"
         sodipodi:ry="20.714285"
         sodipodi:rx="20.714285"
         sodipodi:cy="458.07648"
         sodipodi:cx="57.142857"
         id="path3180"
         style="opacity:1;fill:none;fill-opacity:1;stroke:#000000;stroke-width:1;stroke-linecap:butt;stroke-linejoin:miter;stroke-miterlimit:4;stroke-dasharray:4, 8;stroke-dashoffset:0;stroke-opacity:1"
         sodipodi:type="arc"
         transform="translate(198.78571,294.66591)" />
      <path
         sodipodi:type="arc"
         style="opacity:1;fill:#000000;fill-opacity:1;stroke:#000000;stroke-width:5;stroke-linecap:butt;stroke-linejoin:miter;stroke-miterlimit:4;stroke-dasharray:none;stroke-dashoffset:0;stroke-opacity:1"
         id="path3182"
         sodipodi:cx="72.85714"
         sodipodi:cy="363.38019"
         sodipodi:rx="20"
         sodipodi:ry="20"
         d="M 92.85714,363.38019 A 20,20 0 1 1 52.85714,363.38019 A 20,20 0 1 1 92.85714,363.38019 z"
         transform="matrix(-0.2,0,0,0.2,270.5,680.06635)" />
      <path
         transform="translate(231.64286,233.95162)"
         sodipodi:type="arc"
         style="opacity:1;fill:none;fill-opacity:1;stroke:#000000;stroke-width:1;stroke-linecap:butt;stroke-linejoin:miter;stroke-miterlimit:4;stroke-dasharray:4, 8;stroke-dashoffset:0;stroke-opacity:1"
         id="path3184"
         sodipodi:cx="57.142857"
         sodipodi:cy="458.07648"
         sodipodi:rx="20.714285"
         sodipodi:ry="20.714285"
         d="M 77.857141,458.07648 A 20.714285,20.714285 0 1 1 36.428572,458.07648 A 20.714285,20.714285 0 1 1 77.857141,458.07648 z" />
      <path
         transform="matrix(-0.2,0,0,0.2,303.35715,619.35206)"
         d="M 92.85714,363.38019 A 20,20 0 1 1 52.85714,363.38019 A 20,20 0 1 1 92.85714,363.38019 z"
         sodipodi:ry="20"
         sodipodi:rx="20"
         sodipodi:cy="363.38019"
         sodipodi:cx="72.85714"
         id="path3186"
         style="opacity:1;fill:#000000;fill-opacity:1;stroke:#000000;stroke-width:5;stroke-linecap:butt;stroke-linejoin:miter;stroke-miterlimit:4;stroke-dasharray:none;stroke-dashoffset:0;stroke-opacity:1"
         sodipodi:type="arc" />
      <path
         d="M 77.857141,458.07648 A 20.714285,20.714285 0 1 1 36.428572,458.07648 A 20.714285,20.714285 0 1 1 77.857141,458.07648 z"
         sodipodi:ry="20.714285"
         sodipodi:rx="20.714285"
         sodipodi:cy="458.07648"
         sodipodi:cx="57.142857"
         id="path3188"
         style="opacity:1;fill:none;fill-opacity:1;stroke:#000000;stroke-width:1;stroke-linecap:butt;stroke-linejoin:miter;stroke-miterlimit:4;stroke-dasharray:4, 8;stroke-dashoffset:0;stroke-opacity:1"
         sodipodi:type="arc"
         transform="translate(280.92857,287.52305)" />
      <path
         sodipodi:type="arc"
         style="opacity:1;fill:#000000;fill-opacity:1;stroke:#000000;stroke-width:5;stroke-linecap:butt;stroke-linejoin:miter;stroke-miterlimit:4;stroke-dasharray:none;stroke-dashoffset:0;stroke-opacity:1"
         id="path3190"
         sodipodi:cx="72.85714"
         sodipodi:cy="363.38019"
         sodipodi:rx="20"
         sodipodi:ry="20"
         d="M 92.85714,363.38019 A 20,20 0 1 1 52.85714,363.38019 A 20,20 0 1 1 92.85714,363.38019 z"
         transform="matrix(-0.2,0,0,0.2,352.64286,672.92349)" />
      <rect
         transform="translate(14.499998,419.71934)"
         y="220.52306"
         x="80"
         height="157.85715"
         width="303.57144"
         id="rect3192"
         style="opacity:1;fill:none;fill-opacity:1;stroke:#000000;stroke-width:1;stroke-linecap:butt;stroke-linejoin:miter;stroke-miterlimit:4;stroke-dasharray:none;stroke-dashoffset:0;stroke-opacity:1" />
      <rect
         y="631.67096"
         x="369.49997"
         height="60"
         width="2.8571429"
         id="rect3200"
         style="opacity:1;fill:#000000;fill-opacity:1;stroke:#000000;stroke-width:1;stroke-linecap:butt;stroke-linejoin:miter;stroke-miterlimit:4;stroke-dasharray:none;stroke-dashoffset:0;stroke-opacity:1" />
      <path
         id="path3228"
         d="M 346.64286,630.95668 L 346.64286,630.95668 C 346.64286,630.95668 368.07143,608.09954 397.35714,630.95668"
         style="fill:none;fill-rule:evenodd;stroke:#000000;stroke-width:1px;stroke-linecap:butt;stroke-linejoin:miter;stroke-opacity:1" />
      <path
         id="path3232"
         d="M 335.14287,620.99078 L 335.14287,620.99078 C 335.14287,620.99078 365.62577,587.73013 407.28572,620.99078"
         style="fill:none;fill-rule:evenodd;stroke:#000000;stroke-width:1px;stroke-linecap:butt;stroke-linejoin:miter;stroke-opacity:1" />
    </g>
  </g>
</svg>
