<?xml version="1.0" encoding="UTF-8" standalone="no"?>
<!-- Created with Inkscape (http://www.inkscape.org/) -->

<svg
   xmlns:dc="http://purl.org/dc/elements/1.1/"
   xmlns:cc="http://creativecommons.org/ns#"
   xmlns:rdf="http://www.w3.org/1999/02/22-rdf-syntax-ns#"
   xmlns:svg="http://www.w3.org/2000/svg"
   xmlns="http://www.w3.org/2000/svg"
   xmlns:sodipodi="http://sodipodi.sourceforge.net/DTD/sodipodi-0.dtd"
   xmlns:inkscape="http://www.inkscape.org/namespaces/inkscape"
   width="140.84055"
   height="171.57451"
   id="svg2"
   sodipodi:version="0.32"
   inkscape:version="0.46+devel r21180"
   sodipodi:docname="n_13.svg"
   inkscape:output_extension="org.inkscape.output.svg.inkscape"
   version="1.0">
  <defs
     id="defs4">
    <inkscape:perspective
       sodipodi:type="inkscape:persp3d"
       inkscape:vp_x="0 : 526.18109 : 1"
       inkscape:vp_y="0 : 1000 : 0"
       inkscape:vp_z="744.09448 : 526.18109 : 1"
       inkscape:persp3d-origin="372.04724 : 350.78739 : 1"
       id="perspective10" />
  </defs>
  <sodipodi:namedview
     id="base"
     pagecolor="#ffffff"
     bordercolor="#666666"
     borderopacity="1.0"
     inkscape:pageopacity="0.0"
     inkscape:pageshadow="2"
     inkscape:zoom="1.979899"
     inkscape:cx="-13.974326"
     inkscape:cy="90.489321"
     inkscape:document-units="px"
     inkscape:current-layer="layer1"
     showgrid="true"
     showguides="true"
     inkscape:window-width="1280"
     inkscape:window-height="728"
     inkscape:window-x="-5"
     inkscape:window-y="20">
    <inkscape:grid
       type="xygrid"
       id="grid2387"
       visible="true"
       enabled="true"
       empspacing="5" />
  </sodipodi:namedview>
  <metadata
     id="metadata7">
    <rdf:RDF>
      <cc:Work
         rdf:about="">
        <dc:format>image/svg+xml</dc:format>
        <dc:type
           rdf:resource="http://purl.org/dc/dcmitype/StillImage" />
      </cc:Work>
    </rdf:RDF>
  </metadata>
  <g
     inkscape:label="Livello 1"
     inkscape:groupmode="layer"
     id="layer1"
     transform="translate(-263.55755,-383.5099)">
    <path
       sodipodi:type="arc"
       style="fill:none;stroke:#000000;stroke-width:2.90830588;stroke-linecap:square;stroke-miterlimit:4;stroke-opacity:1;stroke-dasharray:8.72491757, 2.90830586;stroke-dashoffset:0"
       id="path2383"
       sodipodi:cx="215.71428"
       sodipodi:cy="415.21933"
       sodipodi:rx="30"
       sodipodi:ry="30"
       d="m 245.71428,415.21933 c 0,16.56854 -13.43146,30 -30,30 -16.56854,0 -30,-13.43146 -30,-30 0,-16.56854 13.43146,-30 30,-30 16.56854,0 30,13.43146 30,30 z"
       transform="matrix(0.3290575,0,0,0.3290576,202.92537,306.65054)" />
    <path
       sodipodi:type="arc"
       style="fill:none;stroke:#000000;stroke-width:2.90830588;stroke-linecap:square;stroke-miterlimit:4;stroke-opacity:1;stroke-dasharray:8.72491757, 2.90830586;stroke-dashoffset:0"
       id="path2404"
       sodipodi:cx="215.71428"
       sodipodi:cy="415.21933"
       sodipodi:rx="30"
       sodipodi:ry="30"
       d="m 245.71428,415.21933 c 0,16.56854 -13.43146,30 -30,30 -16.56854,0 -30,-13.43146 -30,-30 0,-16.56854 13.43146,-30 30,-30 16.56854,0 30,13.43146 30,30 z"
       transform="matrix(0.3290575,0,0,0.3290576,248.10116,257.22905)" />
    <path
       sodipodi:type="arc"
       style="fill:none;stroke:#000000;stroke-width:2.90830588;stroke-linecap:square;stroke-miterlimit:4;stroke-opacity:1;stroke-dasharray:8.72491757, 2.90830586;stroke-dashoffset:0"
       id="path2416"
       sodipodi:cx="215.71428"
       sodipodi:cy="415.21933"
       sodipodi:rx="30"
       sodipodi:ry="30"
       d="m 245.71428,415.21933 c 0,16.56854 -13.43146,30 -30,30 -16.56854,0 -30,-13.43146 -30,-30 0,-16.56854 13.43146,-30 30,-30 16.56854,0 30,13.43146 30,30 z"
       transform="matrix(0.3290575,0,0,0.3290576,323.06546,257.22905)" />
    <path
       sodipodi:type="arc"
       style="fill:none;stroke:#000000;stroke-width:2.90830588;stroke-linecap:square;stroke-miterlimit:4;stroke-opacity:1;stroke-dasharray:8.72491757, 2.90830586;stroke-dashoffset:0"
       id="path2476"
       sodipodi:cx="215.71428"
       sodipodi:cy="415.21933"
       sodipodi:rx="30"
       sodipodi:ry="30"
       d="m 245.71428,415.21933 c 0,16.56854 -13.43146,30 -30,30 -16.56854,0 -30,-13.43146 -30,-30 0,-16.56854 13.43146,-30 30,-30 16.56854,0 30,13.43146 30,30 z"
       transform="matrix(0.3290575,0,0,0.3290576,284.78612,306.55166)" />
    <path
       sodipodi:type="arc"
       style="fill:none;stroke:#000000;stroke-width:2.90830588;stroke-linecap:square;stroke-miterlimit:4;stroke-opacity:1;stroke-dasharray:8.72491757, 2.90830586;stroke-dashoffset:0"
       id="path2495"
       sodipodi:cx="215.71428"
       sodipodi:cy="415.21933"
       sodipodi:rx="30"
       sodipodi:ry="30"
       d="m 245.71428,415.21933 c 0,16.56854 -13.43146,30 -30,30 -16.56854,0 -30,-13.43146 -30,-30 0,-16.56854 13.43146,-30 30,-30 16.56854,0 30,13.43146 30,30 z"
       transform="matrix(0.3290575,0,0,0.3290576,202.92537,408.10311)" />
    <path
       sodipodi:type="arc"
       style="fill:none;stroke:#000000;stroke-width:2.90830588;stroke-linecap:square;stroke-miterlimit:4;stroke-opacity:1;stroke-dasharray:8.72491757, 2.90830586;stroke-dashoffset:0"
       id="path2507"
       sodipodi:cx="215.71428"
       sodipodi:cy="415.21933"
       sodipodi:rx="30"
       sodipodi:ry="30"
       d="m 245.71428,415.21933 c 0,16.56854 -13.43146,30 -30,30 -16.56854,0 -30,-13.43146 -30,-30 0,-16.56854 13.43146,-30 30,-30 16.56854,0 30,13.43146 30,30 z"
       transform="matrix(0.3290575,0,0,0.3290576,248.10116,358.68161)" />
    <path
       sodipodi:type="arc"
       style="fill:none;stroke:#000000;stroke-width:2.90830588;stroke-linecap:square;stroke-miterlimit:4;stroke-opacity:1;stroke-dasharray:8.72491757, 2.90830586;stroke-dashoffset:0"
       id="path2519"
       sodipodi:cx="215.71428"
       sodipodi:cy="415.21933"
       sodipodi:rx="30"
       sodipodi:ry="30"
       d="m 245.71428,415.21933 c 0,16.56854 -13.43146,30 -30,30 -16.56854,0 -30,-13.43146 -30,-30 0,-16.56854 13.43146,-30 30,-30 16.56854,0 30,13.43146 30,30 z"
       transform="matrix(0.3290575,0,0,0.3290576,323.06547,358.68161)" />
    <path
       sodipodi:type="arc"
       style="fill:none;stroke:#000000;stroke-width:2.90830588;stroke-linecap:square;stroke-miterlimit:4;stroke-opacity:1;stroke-dasharray:8.72491757, 2.90830586;stroke-dashoffset:0"
       id="path2533"
       sodipodi:cx="215.71428"
       sodipodi:cy="415.21933"
       sodipodi:rx="30"
       sodipodi:ry="30"
       d="m 245.71428,415.21933 c 0,16.56854 -13.43146,30 -30,30 -16.56854,0 -30,-13.43146 -30,-30 0,-16.56854 13.43146,-30 30,-30 16.56854,0 30,13.43146 30,30 z"
       transform="matrix(0.3290575,0,0,0.3290576,284.78612,408.00423)" />
    <path
       style="fill:none;stroke:#000000;stroke-width:1.39999998;stroke-linecap:butt;stroke-linejoin:miter;stroke-miterlimit:4;stroke-opacity:1;stroke-dasharray:none"
       d="m 329.43379,494.64983 54.26386,0.0716"
       id="path2647"
       inkscape:connector-type="polyline" />
    <path
       style="fill:none;stroke:#000000;stroke-width:1.39999998;stroke-linecap:butt;stroke-linejoin:miter;stroke-miterlimit:4;stroke-opacity:1;stroke-dasharray:none"
       d="m 388.45371,503.35986 -26.48834,33.21073"
       id="path2651"
       inkscape:connector-type="polyline" />
    <path
       style="fill:none;stroke:#000000;stroke-width:1.39999998;stroke-linecap:butt;stroke-linejoin:miter;stroke-miterlimit:4;stroke-opacity:1;stroke-dasharray:none"
       d="m 394.04786,404.21035 10e-6,81.12328"
       id="path2653"
       inkscape:connector-type="polyline" />
    <path
       style="fill:none;stroke:#000000;stroke-width:1.39999998;stroke-linecap:butt;stroke-linejoin:miter;stroke-miterlimit:4;stroke-opacity:1;stroke-dasharray:none"
       d="m 329.43379,393.28249 54.26385,0"
       id="path2655"
       inkscape:connector-type="polyline" />
    <path
       style="fill:none;stroke:#000000;stroke-width:1.39999998;stroke-linecap:butt;stroke-linejoin:miter;stroke-miterlimit:4;stroke-opacity:1;stroke-dasharray:none"
       d="m 387.52788,401.52057 -25.10544,34.0161"
       id="path2657"
       inkscape:connector-type="polyline" />
    <text
       xml:space="preserve"
       style="font-size:10px;font-style:normal;font-weight:normal;fill:#000000;fill-opacity:1;stroke:none;font-family:Bitstream Vera Sans"
       x="270.72906"
       y="446.92175"
       id="text2477"><tspan
         sodipodi:role="line"
         id="tspan2479"
         x="270.72906"
         y="446.92175">0</tspan></text>
    <text
       xml:space="preserve"
       style="font-size:10px;font-style:normal;font-weight:normal;fill:#000000;fill-opacity:1;stroke:none;font-family:Bitstream Vera Sans"
       x="352.49948"
       y="446.82776"
       id="text2486"><tspan
         sodipodi:role="line"
         id="tspan2488"
         x="352.49948"
         y="446.82776">1</tspan></text>
    <text
       xml:space="preserve"
       style="font-size:10px;font-style:normal;font-weight:normal;fill:#000000;fill-opacity:1;stroke:none;font-family:Bitstream Vera Sans"
       x="270.8609"
       y="548.44513"
       id="text2490"><tspan
         sodipodi:role="line"
         id="tspan2492"
         x="270.8609"
         y="548.44513">2</tspan></text>
    <text
       xml:space="preserve"
       style="font-size:10px;font-style:normal;font-weight:normal;fill:#000000;fill-opacity:1;stroke:none;font-family:Bitstream Vera Sans"
       x="352.6069"
       y="548.27545"
       id="text2499"><tspan
         sodipodi:role="line"
         id="tspan2501"
         x="352.6069"
         y="548.27545">3</tspan></text>
    <text
       xml:space="preserve"
       style="font-size:10px;font-style:normal;font-weight:normal;fill:#000000;fill-opacity:1;stroke:none;font-family:Bitstream Vera Sans"
       x="315.93903"
       y="397.50516"
       id="text2503"><tspan
         sodipodi:role="line"
         id="tspan2505"
         x="315.93903"
         y="397.50516">4</tspan></text>
    <text
       xml:space="preserve"
       style="font-size:10px;font-style:normal;font-weight:normal;fill:#000000;fill-opacity:1;stroke:none;font-family:Bitstream Vera Sans"
       x="390.91797"
       y="397.43436"
       id="text2507"><tspan
         sodipodi:role="line"
         id="tspan2509"
         x="390.91797"
         y="397.43436">5</tspan></text>
    <text
       xml:space="preserve"
       style="font-size:10px;font-style:normal;font-weight:normal;fill:#000000;fill-opacity:1;stroke:none;font-family:Bitstream Vera Sans"
       x="315.86823"
       y="498.95282"
       id="text2511"><tspan
         sodipodi:role="line"
         id="tspan2513"
         x="315.86823"
         y="498.95282">6</tspan></text>
    <text
       xml:space="preserve"
       style="font-size:10px;font-style:normal;font-weight:normal;fill:#000000;fill-opacity:1;stroke:none;font-family:Bitstream Vera Sans"
       x="390.88382"
       y="498.9577"
       id="text2515"><tspan
         sodipodi:role="line"
         id="tspan2517"
         x="390.88382"
         y="498.9577">7</tspan></text>
    <path
       style="fill:none;stroke:#000000;stroke-width:1.75;stroke-linecap:butt;stroke-linejoin:miter;stroke-miterlimit:4;stroke-opacity:1;stroke-dasharray:7, 1.75;stroke-dashoffset:0;marker-start:none"
       d="m 283.9737,545.50551 61.89624,-0.11862"
       id="path2409"
       inkscape:connector-type="polyline" />
    <path
       style="fill:none;stroke:#000000;stroke-width:1.75;stroke-linecap:butt;stroke-linejoin:miter;stroke-miterlimit:4;stroke-opacity:1;stroke-dasharray:7, 1.75;stroke-dashoffset:0;marker-start:none"
       d="m 283.55754,443.71515 61.89624,-0.11862"
       id="path3690"
       inkscape:connector-type="polyline" />
    <path
       style="fill:none;stroke:#000000;stroke-width:1.75;stroke-linecap:butt;stroke-linejoin:miter;stroke-miterlimit:4;stroke-opacity:1;stroke-dasharray:7, 1.75;stroke-dashoffset:0"
       d="M 17.172593,66.036859 49.244936,31.186596"
       id="path3696"
       transform="translate(263.55754,370.35463)"
       inkscape:connector-type="polyline" />
    <path
       style="fill:none;stroke:#000000;stroke-width:1.75;stroke-linecap:butt;stroke-linejoin:miter;stroke-miterlimit:4;stroke-opacity:1;stroke-dasharray:7, 1.75;stroke-dashoffset:0"
       d="M 10.606602,83.209452 10.354064,164.52673"
       id="path3700"
       transform="translate(263.55754,370.35463)"
       inkscape:connector-type="polyline" />
    <path
       style="fill:none;stroke:#000000;stroke-width:1.75;stroke-linecap:butt;stroke-linejoin:miter;stroke-miterlimit:4;stroke-opacity:1;stroke-dasharray:7, 1.75;stroke-dashoffset:0"
       d="m 319.04095,404.06863 -0.25253,81.31727"
       id="path3702"
       inkscape:connector-type="polyline" />
    <path
       style="fill:none;stroke:#000000;stroke-width:1.75;stroke-linecap:butt;stroke-linejoin:miter;stroke-miterlimit:4;stroke-opacity:1;stroke-dasharray:7, 1.75;stroke-dashoffset:0"
       d="m 355.76168,453.76713 -0.25254,81.31728"
       id="path3704"
       inkscape:connector-type="polyline" />
    <path
       style="fill:none;stroke:#000000;stroke-width:1.75;stroke-linecap:butt;stroke-linejoin:miter;stroke-miterlimit:4;stroke-opacity:1;stroke-dasharray:7, 1.75;stroke-dashoffset:0"
       d="M 280.73566,537.86668 312.808,503.01642"
       id="path3706"
       inkscape:connector-type="polyline" />
  </g>
</svg>
