<?xml version="1.0" encoding="UTF-8" standalone="no"?>
<!-- Created with Inkscape (http://www.inkscape.org/) -->
<svg
   xmlns:dc="http://purl.org/dc/elements/1.1/"
   xmlns:cc="http://creativecommons.org/ns#"
   xmlns:rdf="http://www.w3.org/1999/02/22-rdf-syntax-ns#"
   xmlns:svg="http://www.w3.org/2000/svg"
   xmlns="http://www.w3.org/2000/svg"
   xmlns:sodipodi="http://sodipodi.sourceforge.net/DTD/sodipodi-0.dtd"
   xmlns:inkscape="http://www.inkscape.org/namespaces/inkscape"
   width="542.85773"
   height="545.27258"
   id="svg2"
   sodipodi:version="0.32"
   inkscape:version="0.46"
   version="1.0"
   sodipodi:docname="elect_2.svg"
   inkscape:output_extension="org.inkscape.output.svg.inkscape">
  <defs
     id="defs4">
    <marker
       inkscape:stockid="Arrow1Lstart"
       orient="auto"
       refY="0"
       refX="0"
       id="Arrow1Lstart"
       style="overflow:visible">
      <path
         id="path3243"
         d="M 0,0 L 5,-5 L -12.5,0 L 5,5 L 0,0 z"
         style="fill-rule:evenodd;stroke:#000000;stroke-width:1pt;marker-start:none"
         transform="matrix(0.8,0,0,0.8,10,0)" />
    </marker>
    <marker
       inkscape:stockid="Arrow2Lend"
       orient="auto"
       refY="0"
       refX="0"
       id="Arrow2Lend"
       style="overflow:visible">
      <path
         id="path3304"
         style="font-size:12px;fill-rule:evenodd;stroke-width:0.625;stroke-linejoin:round"
         d="M 8.7185878,4.0337352 L -2.2072895,0.016013256 L 8.7185884,-4.0017078 C 6.97309,-1.6296469 6.9831476,1.6157441 8.7185878,4.0337352 z"
         transform="matrix(-1.1,0,0,-1.1,-1.1,0)" />
    </marker>
    <inkscape:perspective
       sodipodi:type="inkscape:persp3d"
       inkscape:vp_x="0 : 526.18109 : 1"
       inkscape:vp_y="0 : 1000 : 0"
       inkscape:vp_z="744.09448 : 526.18109 : 1"
       inkscape:persp3d-origin="372.04724 : 350.78739 : 1"
       id="perspective10" />
  </defs>
  <sodipodi:namedview
     id="base"
     pagecolor="#ffffff"
     bordercolor="#666666"
     borderopacity="1.0"
     inkscape:pageopacity="0.0"
     inkscape:pageshadow="2"
     inkscape:zoom="0.7"
     inkscape:cx="-234.23941"
     inkscape:cy="378.84932"
     inkscape:document-units="px"
     inkscape:current-layer="layer1"
     showgrid="false"
     inkscape:window-width="1270"
     inkscape:window-height="768"
     inkscape:window-x="0"
     inkscape:window-y="0" />
  <metadata
     id="metadata7">
    <rdf:RDF>
      <cc:Work
         rdf:about="">
        <dc:format>image/svg+xml</dc:format>
        <dc:type
           rdf:resource="http://purl.org/dc/dcmitype/StillImage" />
      </cc:Work>
    </rdf:RDF>
  </metadata>
  <g
     inkscape:label="Livello 1"
     inkscape:groupmode="layer"
     id="layer1"
     transform="translate(253.80589,218.03094)">
    <g
       id="g2453"
       transform="matrix(0.8368214,0,0,0.8653129,-287.95923,-138.38273)">
      <path
         transform="matrix(0.712984,0,0,0.712984,-46.432443,191.4917)"
         d="M 802.06111,44.229942 A 221.2234,221.2234 0 1 1 359.6143,44.229942 A 221.2234,221.2234 0 1 1 802.06111,44.229942 z"
         sodipodi:ry="221.2234"
         sodipodi:rx="221.2234"
         sodipodi:cy="44.229942"
         sodipodi:cx="580.83771"
         id="path2403"
         style="fill:none;fill-opacity:1;stroke:#000000;stroke-width:1.18691158;stroke-miterlimit:4;stroke-dasharray:none;stroke-opacity:1"
         sodipodi:type="arc" />
      <path
         transform="translate(53.538077,317.1879)"
         d="M 338.40111,62.412689 A 23.233509,23.233509 0 1 1 291.93409,62.412689 A 23.233509,23.233509 0 1 1 338.40111,62.412689 z"
         sodipodi:ry="23.233509"
         sodipodi:rx="23.233509"
         sodipodi:cy="62.412689"
         sodipodi:cx="315.1676"
         id="path5028"
         style="fill:#ffffff;fill-opacity:1;stroke:#000000;stroke-width:1.18691158;stroke-miterlimit:4;stroke-dasharray:none;stroke-opacity:1"
         sodipodi:type="arc" />
      <path
         transform="translate(47.477161,4.0406091)"
         d="M 338.40111,62.412689 A 23.233509,23.233509 0 1 1 291.93409,62.412689 A 23.233509,23.233509 0 1 1 338.40111,62.412689 z"
         sodipodi:ry="23.233509"
         sodipodi:rx="23.233509"
         sodipodi:cy="62.412689"
         sodipodi:cx="315.1676"
         id="path2397"
         style="fill:#ffffff;fill-opacity:1;stroke:#000000;stroke-width:1.18691158;stroke-miterlimit:4;stroke-dasharray:none;stroke-opacity:1"
         sodipodi:type="arc" />
      <path
         transform="translate(-110.10664,156.57364)"
         d="M 338.40111,62.412689 A 23.233509,23.233509 0 1 1 291.93409,62.412689 A 23.233509,23.233509 0 1 1 338.40111,62.412689 z"
         sodipodi:ry="23.233509"
         sodipodi:rx="23.233509"
         sodipodi:cy="62.412689"
         sodipodi:cx="315.1676"
         id="path5031"
         style="fill:#ffffff;fill-opacity:1;stroke:#000000;stroke-width:1.18691158;stroke-miterlimit:4;stroke-dasharray:none;stroke-opacity:1"
         sodipodi:type="arc" />
      <path
         transform="translate(210.11172,161.62441)"
         d="M 338.40111,62.412689 A 23.233509,23.233509 0 1 1 291.93409,62.412689 A 23.233509,23.233509 0 1 1 338.40111,62.412689 z"
         sodipodi:ry="23.233509"
         sodipodi:rx="23.233509"
         sodipodi:cy="62.412689"
         sodipodi:cx="315.1676"
         id="path5033"
         style="fill:#ffffff;fill-opacity:1;stroke:#000000;stroke-width:1.18691158;stroke-miterlimit:4;stroke-dasharray:none;stroke-opacity:1"
         sodipodi:type="arc" />
      <path
         transform="translate(164.14985,48.992309)"
         d="M 338.40111,62.412689 A 23.233509,23.233509 0 1 1 291.93409,62.412689 A 23.233509,23.233509 0 1 1 338.40111,62.412689 z"
         sodipodi:ry="23.233509"
         sodipodi:rx="23.233509"
         sodipodi:cy="62.412689"
         sodipodi:cx="315.1676"
         id="path5035"
         style="fill:#ffffff;fill-opacity:1;stroke:#000000;stroke-width:1.18691158;stroke-miterlimit:4;stroke-dasharray:none;stroke-opacity:1"
         sodipodi:type="arc" />
      <path
         transform="translate(-58.588856,46.467016)"
         d="M 338.40111,62.412689 A 23.233509,23.233509 0 1 1 291.93409,62.412689 A 23.233509,23.233509 0 1 1 338.40111,62.412689 z"
         sodipodi:ry="23.233509"
         sodipodi:rx="23.233509"
         sodipodi:cy="62.412689"
         sodipodi:cx="315.1676"
         id="path5037"
         style="fill:#ffffff;fill-opacity:1;stroke:#000000;stroke-width:1.18691158;stroke-miterlimit:4;stroke-dasharray:none;stroke-opacity:1"
         sodipodi:type="arc" />
      <path
         transform="translate(-61.114156,268.19542)"
         d="M 338.40111,62.412689 A 23.233509,23.233509 0 1 1 291.93409,62.412689 A 23.233509,23.233509 0 1 1 338.40111,62.412689 z"
         sodipodi:ry="23.233509"
         sodipodi:rx="23.233509"
         sodipodi:cy="62.412689"
         sodipodi:cx="315.1676"
         id="path5039"
         style="fill:#ffffff;fill-opacity:1;stroke:#000000;stroke-width:1.18691158;stroke-miterlimit:4;stroke-dasharray:none;stroke-opacity:1"
         sodipodi:type="arc" />
      <path
         transform="translate(166.67516,268.70058)"
         d="M 338.40111,62.412689 A 23.233509,23.233509 0 1 1 291.93409,62.412689 A 23.233509,23.233509 0 1 1 338.40111,62.412689 z"
         sodipodi:ry="23.233509"
         sodipodi:rx="23.233509"
         sodipodi:cy="62.412689"
         sodipodi:cx="315.1676"
         id="path5041"
         style="fill:#ffffff;fill-opacity:1;stroke:#000000;stroke-width:1.18691158;stroke-miterlimit:4;stroke-dasharray:none;stroke-opacity:1"
         sodipodi:type="arc" />
    </g>
    <path
       sodipodi:type="arc"
       style="fill:none;stroke:#000000;stroke-width:1.25;marker-start:url(#Arrow1Lstart);marker-mid:none;stroke-miterlimit:4;stroke-dasharray:none;stroke-dashoffset:0;stroke-opacity:1"
       id="path2451"
       sodipodi:cx="175"
       sodipodi:cy="129.91002"
       sodipodi:rx="187.85715"
       sodipodi:ry="187.85715"
       d="M -10.006595,97.308371 A 187.85715,187.85715 0 1 1 -11.555622,151.98506"
       transform="translate(-157.87245,-75.304653)"
       sodipodi:start="3.3160207"
       sodipodi:end="9.3069961"
       sodipodi:open="true" />
    <path
       sodipodi:type="arc"
       style="fill:none;stroke:#000000;stroke-width:1.04108858;marker-start:url(#Arrow1Lstart);marker-mid:none;stroke-miterlimit:4;stroke-dasharray:none;stroke-dashoffset:0;stroke-opacity:1"
       id="path5062"
       sodipodi:cx="175"
       sodipodi:cy="129.91002"
       sodipodi:rx="187.85715"
       sodipodi:ry="187.85715"
       d="M -10.006595,97.308371 A 187.85715,187.85715 0 1 1 -11.555622,151.98506"
       transform="matrix(0.7945182,-0.9001905,0.900189,0.7945168,-238.3613,108.51028)"
       sodipodi:start="3.3160207"
       sodipodi:end="9.3069961"
       sodipodi:open="true" />
    <path
       sodipodi:type="arc"
       style="fill:none;stroke:#000000;stroke-width:0.86717367;marker-start:url(#Arrow1Lstart);marker-mid:none;stroke-miterlimit:4;stroke-dasharray:none;stroke-dashoffset:0;stroke-opacity:1"
       id="path5064"
       sodipodi:cx="175"
       sodipodi:cy="129.91002"
       sodipodi:rx="187.85715"
       sodipodi:ry="187.85715"
       d="M -10.006595,97.308371 A 187.85715,187.85715 0 1 1 -11.555622,151.98506"
       transform="matrix(-0.1255963,-1.4359835,1.4359811,-0.1255974,-146.94602,321.01185)"
       sodipodi:start="3.3160207"
       sodipodi:end="9.3069961"
       sodipodi:open="true" />
  </g>
</svg>
