<?xml version="1.0" encoding="UTF-8" standalone="no"?>
<!-- Created with Inkscape (http://www.inkscape.org/) -->
<svg
   xmlns:dc="http://purl.org/dc/elements/1.1/"
   xmlns:cc="http://creativecommons.org/ns#"
   xmlns:rdf="http://www.w3.org/1999/02/22-rdf-syntax-ns#"
   xmlns:svg="http://www.w3.org/2000/svg"
   xmlns="http://www.w3.org/2000/svg"
   xmlns:sodipodi="http://sodipodi.sourceforge.net/DTD/sodipodi-0.dtd"
   xmlns:inkscape="http://www.inkscape.org/namespaces/inkscape"
   width="353.52295"
   height="105.14287"
   id="svg2"
   sodipodi:version="0.32"
   inkscape:version="0.46"
   sodipodi:docname="f_10.svg"
   inkscape:output_extension="org.inkscape.output.svg.inkscape"
   version="1.0">
  <defs
     id="defs4">
    <marker
       inkscape:stockid="Arrow2Lend"
       orient="auto"
       refY="0"
       refX="0"
       id="Arrow2Lend"
       style="overflow:visible">
      <path
         id="path3197"
         style="font-size:12px;fill-rule:evenodd;stroke-width:0.625;stroke-linejoin:round"
         d="M 8.7185878,4.0337352 L -2.2072895,0.016013256 L 8.7185884,-4.0017078 C 6.97309,-1.6296469 6.9831476,1.6157441 8.7185878,4.0337352 z"
         transform="matrix(-1.1,0,0,-1.1,-1.1,0)" />
    </marker>
    <inkscape:perspective
       sodipodi:type="inkscape:persp3d"
       inkscape:vp_x="0 : 526.18109 : 1"
       inkscape:vp_y="0 : 1000 : 0"
       inkscape:vp_z="744.09448 : 526.18109 : 1"
       inkscape:persp3d-origin="372.04724 : 350.78739 : 1"
       id="perspective10" />
  </defs>
  <sodipodi:namedview
     id="base"
     pagecolor="#ffffff"
     bordercolor="#666666"
     borderopacity="1.0"
     inkscape:pageopacity="0.0"
     inkscape:pageshadow="2"
     inkscape:zoom="1.4"
     inkscape:cx="96.996381"
     inkscape:cy="53.422765"
     inkscape:document-units="px"
     inkscape:current-layer="layer1"
     showgrid="false"
     inkscape:window-width="1270"
     inkscape:window-height="768"
     inkscape:window-x="0"
     inkscape:window-y="18" />
  <metadata
     id="metadata7">
    <rdf:RDF>
      <cc:Work
         rdf:about="">
        <dc:format>image/svg+xml</dc:format>
        <dc:type
           rdf:resource="http://purl.org/dc/dcmitype/StillImage" />
      </cc:Work>
    </rdf:RDF>
  </metadata>
  <g
     inkscape:label="Livello 1"
     inkscape:groupmode="layer"
     id="layer1"
     transform="translate(-88.403577,-59.902536)">
    <path
       sodipodi:type="arc"
       style="opacity:1;fill:none;fill-opacity:1;stroke:#000000;stroke-width:3;stroke-miterlimit:4;stroke-dasharray:none;stroke-dashoffset:0;stroke-opacity:1"
       id="path2383"
       sodipodi:cx="274.76151"
       sodipodi:cy="90.69696"
       sodipodi:rx="7.0710678"
       sodipodi:ry="7.0710678"
       d="M 281.83257,90.69696 A 7.0710678,7.0710678 0 1 1 267.69044,90.69696 A 7.0710678,7.0710678 0 1 1 281.83257,90.69696 z" />
    <path
       sodipodi:type="arc"
       style="opacity:1;fill:none;fill-opacity:1;stroke:#000000;stroke-width:3;stroke-miterlimit:4;stroke-dasharray:none;stroke-dashoffset:0;stroke-opacity:1"
       id="path2385"
       sodipodi:cx="274.76151"
       sodipodi:cy="90.69696"
       sodipodi:rx="7.0710678"
       sodipodi:ry="7.0710678"
       d="M 281.83257,90.69696 A 7.0710678,7.0710678 0 1 1 267.69044,90.69696 A 7.0710678,7.0710678 0 1 1 281.83257,90.69696 z"
       transform="translate(-64.649776,31.314728)" />
    <path
       sodipodi:type="arc"
       style="opacity:1;fill:none;fill-opacity:1;stroke:#000000;stroke-width:3;stroke-miterlimit:4;stroke-dasharray:none;stroke-dashoffset:0;stroke-opacity:1"
       id="path2387"
       sodipodi:cx="274.76151"
       sodipodi:cy="90.69696"
       sodipodi:rx="7.0710678"
       sodipodi:ry="7.0710678"
       d="M 281.83257,90.69696 A 7.0710678,7.0710678 0 1 1 267.69044,90.69696 A 7.0710678,7.0710678 0 1 1 281.83257,90.69696 z"
       transform="translate(-177.78686,54.548236)" />
    <path
       sodipodi:type="arc"
       style="opacity:1;fill:none;fill-opacity:1;stroke:#000000;stroke-width:3;stroke-miterlimit:4;stroke-dasharray:none;stroke-dashoffset:0;stroke-opacity:1"
       id="path2389"
       sodipodi:cx="274.76151"
       sodipodi:cy="90.69696"
       sodipodi:rx="7.0710678"
       sodipodi:ry="7.0710678"
       d="M 281.83257,90.69696 A 7.0710678,7.0710678 0 1 1 267.69044,90.69696 A 7.0710678,7.0710678 0 1 1 281.83257,90.69696 z"
       transform="translate(158.59394,-22.223357)" />
    <path
       style="fill:none;fill-rule:evenodd;stroke:#000000;stroke-width:1.01102877px;stroke-linecap:butt;stroke-linejoin:miter;marker-end:url(#Arrow2Lend);stroke-opacity:1"
       d="M 217.86756,118.48591 L 265.87674,95.209747"
       id="path2395"
       inkscape:connector-type="polyline" />
    <path
       style="fill:none;fill-rule:evenodd;stroke:#000000;stroke-width:0.95095867px;stroke-linecap:butt;stroke-linejoin:miter;marker-end:url(#Arrow2Lend);stroke-opacity:1"
       d="M 276.21981,97.012767 C 342.74626,227.65532 217.40658,128.59668 217.40658,128.59668"
       id="path2397" />
    <path
       style="fill:none;fill-rule:evenodd;stroke:#000000;stroke-width:0.96798193px;stroke-linecap:butt;stroke-linejoin:miter;marker-end:url(#Arrow2Lend);stroke-opacity:1"
       d="M 104.0297,144.25105 C 104.76626,143.99059 106.44923,142.36495 107.73462,141.10588 C 108.87088,139.9929 110.03422,140.41761 110.94556,140.86395 C 111.87221,141.31779 112.32366,142.66265 113.1685,143.28331 C 114.83909,144.51059 115.3351,143.92143 116.37944,142.5575 C 117.35951,141.2775 118.0692,140.51192 119.09638,139.17039 C 119.63612,138.46548 123.25269,138.82334 123.78928,138.92845 C 124.97028,139.15982 126.05715,140.57253 127.24721,140.86395 C 129.14802,141.32942 129.43216,140.65924 130.45814,139.65427 C 131.62524,138.51106 131.96872,137.33485 133.42208,136.26716 C 134.8574,135.21271 137.35531,136.24887 138.36197,137.23491 C 139.59771,138.44533 141.55611,138.9449 142.80788,137.71877 C 144.92519,135.64483 146.35823,132.71382 148.98274,131.42843 C 150.93393,130.47282 151.81337,132.60067 153.18165,133.60587 C 155.37492,135.21712 156.82891,133.65428 158.61554,132.15425 C 159.05756,131.78313 159.43885,131.34779 159.85051,130.94457 C 161.17626,129.64598 163.11347,129.00907 163.80243,129.00907 C 165.04335,129.00907 166.8434,131.42843 168.98931,131.42843 C 170.87354,131.42843 172.97804,129.21496 173.92921,128.28327 C 174.49188,127.73212 176.41181,130.17285 177.88113,130.46069 C 179.73653,130.82417 183.12837,127.25641 184.30299,126.10584 C 185.4116,125.01993 187.22594,127.51732 187.76091,128.04133 C 189.10997,129.36275 191.29834,127.72152 191.95983,127.07359 C 193.02028,126.03485 194.41836,125.62197 195.91174,125.62197 C 196.76137,125.62197 197.72101,126.3886 198.87568,126.10584 C 199.12826,126.04399 199.36966,125.94455 199.61666,125.86391 C 200.16117,125.68612 200.39793,125.5578 200.85163,125.38003"
       id="path3169" />
    <path
       style="fill:none;fill-rule:evenodd;stroke:#000000;stroke-width:0.99371922px;stroke-linecap:butt;stroke-linejoin:miter;marker-end:url(#Arrow2Lend);stroke-opacity:1"
       d="M 282.49686,87.725163 C 283.69958,87.50851 286.06422,85.9416 287.46562,85.240945 C 289.50654,84.220548 291.27573,86.590067 292.78928,87.725163 C 293.79725,88.481093 296.39988,88.064682 297.75804,87.725163 C 299.49375,87.291263 300.79872,85.013158 302.72679,84.531168 C 304.3909,84.115167 306.40101,85.538385 308.05047,85.950721 C 310.91775,86.667497 312.69676,85.039162 314.79378,83.466503 C 316.58491,82.123238 317.67587,81.379981 319.40762,83.111615 C 321.29734,85.001212 323.79896,83.060429 325.44112,81.692061 C 326.02305,81.207145 326.62415,80.745692 327.21567,80.272509 C 328.74414,79.049809 331.56304,78.852956 333.60407,78.852956 C 335.914,78.852956 337.68871,79.649872 339.99247,78.498067 C 342.47533,77.256717 344.10004,77.357726 346.38087,78.498067 C 348.34856,79.48185 349.7891,77.503839 351.34962,76.723625 C 353.92572,75.435661 355.49718,77.438593 357.38311,78.852956 C 359.1614,80.186584 362.07555,77.502479 363.77151,77.078514 C 366.11282,76.493227 369.68588,77.054691 371.57957,77.433402 C 373.07224,77.731918 377.09072,73.884519 379.74252,73.884519 C 382.33528,73.884519 381.8065,76.401479 384.71127,74.949184 C 388.30535,73.152262 389.63208,70.335637 393.93897,70.335637 C 395.29117,70.335637 397.69785,73.500605 399.61754,73.884519 C 401.25987,74.212961 404.21431,71.493294 406.00594,71.045414 C 407.90576,70.570493 409.5114,72.802393 411.32962,73.529631 C 413.05345,74.21912 414.95363,70.373084 417.71802,71.755189 C 420.14103,72.966619 420.32975,72.192009 422.33186,70.690525 C 422.46388,70.591511 423.49242,70.690525 423.75151,70.690525"
       id="path3171" />
    <text
       xml:space="preserve"
       style="font-size:15px;font-style:normal;font-weight:normal;fill:#000000;fill-opacity:1;stroke:none;stroke-width:1px;stroke-linecap:butt;stroke-linejoin:miter;stroke-opacity:1;font-family:Bitstream Vera Sans"
       x="91.418808"
       y="127.06245"
       id="text5001"><tspan
         sodipodi:role="line"
         id="tspan5003"
         x="91.418808"
         y="127.06245">s</tspan></text>
    <text
       xml:space="preserve"
       style="font-size:15px;font-style:normal;font-weight:normal;fill:#000000;fill-opacity:1;stroke:none;stroke-width:1px;stroke-linecap:butt;stroke-linejoin:miter;stroke-opacity:1;font-family:Bitstream Vera Sans"
       x="428.30466"
       y="93.727417"
       id="text5009"><tspan
         sodipodi:role="line"
         id="tspan5011"
         x="428.30466"
         y="93.727417">t</tspan></text>
    <text
       xml:space="preserve"
       style="font-size:15px;font-style:normal;font-weight:normal;fill:#000000;fill-opacity:1;stroke:none;stroke-width:1px;stroke-linecap:butt;stroke-linejoin:miter;stroke-opacity:1;font-family:Bitstream Vera Sans"
       x="271.73105"
       y="76.049751"
       id="text5013"><tspan
         sodipodi:role="line"
         id="tspan5015"
         x="271.73105"
         y="76.049751">s</tspan></text>
    <text
       xml:space="preserve"
       style="font-size:15px;font-style:normal;font-weight:normal;fill:#000000;fill-opacity:1;stroke:none;stroke-width:1px;stroke-linecap:butt;stroke-linejoin:miter;stroke-opacity:1;font-family:Bitstream Vera Sans"
       x="249.50768"
       y="137.16397"
       id="text5017"><tspan
         sodipodi:role="line"
         id="tspan5019"
         x="249.50768"
         y="137.16397">C&lt;0</tspan></text>
    <text
       xml:space="preserve"
       style="font-size:15px;font-style:normal;font-weight:normal;fill:#000000;fill-opacity:1;stroke:none;stroke-width:1px;stroke-linecap:butt;stroke-linejoin:miter;stroke-opacity:1;font-family:Bitstream Vera Sans"
       x="206.57619"
       y="109.38478"
       id="text5021"><tspan
         sodipodi:role="line"
         id="tspan5023"
         x="206.57619"
         y="109.38478">i</tspan></text>
  </g>
</svg>
