<?xml version="1.0" encoding="UTF-8" standalone="no"?>
<!-- Created with Inkscape (http://www.inkscape.org/) -->
<svg
   xmlns:dc="http://purl.org/dc/elements/1.1/"
   xmlns:cc="http://creativecommons.org/ns#"
   xmlns:rdf="http://www.w3.org/1999/02/22-rdf-syntax-ns#"
   xmlns:svg="http://www.w3.org/2000/svg"
   xmlns="http://www.w3.org/2000/svg"
   xmlns:sodipodi="http://sodipodi.sourceforge.net/DTD/sodipodi-0.dtd"
   xmlns:inkscape="http://www.inkscape.org/namespaces/inkscape"
   width="591.04407"
   height="306.08881"
   id="svg2"
   sodipodi:version="0.32"
   inkscape:version="0.46"
   sodipodi:docname="r_3.svg"
   inkscape:output_extension="org.inkscape.output.svg.inkscape"
   version="1.0">
  <defs
     id="defs4">
    <marker
       inkscape:stockid="TriangleOutL"
       orient="auto"
       refY="0"
       refX="0"
       id="TriangleOutL"
       style="overflow:visible">
      <path
         id="path3341"
         d="M 5.77,0 L -2.88,5 L -2.88,-5 L 5.77,0 z"
         style="fill-rule:evenodd;stroke:#000000;stroke-width:1pt;marker-start:none"
         transform="scale(0.8,0.8)" />
    </marker>
    <inkscape:perspective
       sodipodi:type="inkscape:persp3d"
       inkscape:vp_x="0 : 526.18109 : 1"
       inkscape:vp_y="0 : 1000 : 0"
       inkscape:vp_z="744.09448 : 526.18109 : 1"
       inkscape:persp3d-origin="372.04724 : 350.78739 : 1"
       id="perspective10" />
  </defs>
  <sodipodi:namedview
     id="base"
     pagecolor="#ffffff"
     bordercolor="#666666"
     borderopacity="1.0"
     inkscape:pageopacity="0.0"
     inkscape:pageshadow="2"
     inkscape:zoom="0.7"
     inkscape:cx="390.26095"
     inkscape:cy="361.68254"
     inkscape:document-units="px"
     inkscape:current-layer="layer1"
     showgrid="false"
     inkscape:window-width="1270"
     inkscape:window-height="768"
     inkscape:window-x="0"
     inkscape:window-y="0" />
  <metadata
     id="metadata7">
    <rdf:RDF>
      <cc:Work
         rdf:about="">
        <dc:format>image/svg+xml</dc:format>
        <dc:type
           rdf:resource="http://purl.org/dc/dcmitype/StillImage" />
      </cc:Work>
    </rdf:RDF>
  </metadata>
  <g
     inkscape:label="Livello 1"
     inkscape:groupmode="layer"
     id="layer1"
     transform="translate(-123.94113,-344.48768)">
    <path
       style="fill:none;fill-rule:evenodd;stroke:#000000;stroke-width:1.25;stroke-linecap:butt;stroke-linejoin:miter;stroke-miterlimit:4;stroke-dasharray:none;stroke-opacity:1"
       d="M 141.42857,466.6479 C 133.81344,461.9652 130,451.56059 130,438.07647 C 130,425.4214 132.71721,425.49919 137.14286,416.6479 C 142.07565,406.78231 141.88983,394.27441 151.42857,389.50504 C 165.28616,382.57625 170.52307,351.06438 187.14286,355.21933 C 194.54448,357.06973 197.20459,343.82162 208.57143,349.50504 C 221.35164,355.89515 226.55637,340.34712 232.85714,346.6479 C 240.94279,354.73354 254.19709,346.93857 261.42857,352.36218 C 268.13129,357.38922 275.806,363.52338 284.28571,365.21933 C 291.83911,366.73 297.11321,380.7854 298.57143,388.07647 C 300.30571,396.74788 305.37893,403.12004 308.57143,409.50504 C 311.86712,416.09641 306.95644,430.43713 305.71429,436.6479 C 304.09023,444.76819 305.63457,456.32904 307.14286,462.36218 C 309.00592,469.81442 313.86332,476.38689 315.71429,483.79075 C 317.96169,492.78036 316.41008,498.03949 320,505.21933 C 323.4805,512.18033 315.71429,523.41066 315.71429,530.93361 C 315.71429,539.66752 313.37953,547.41549 311.42857,555.21933 C 309.6047,562.51479 310,569.43827 310,578.07647 C 310,585.09767 301.13908,597.03389 297.14286,602.36218 C 292.14446,609.02671 283.63297,610.93361 275.71429,610.93361 C 266.95338,610.93361 258.67853,610.16578 251.42857,613.79075 C 244.79815,617.10596 236.63965,618.91656 228.57143,620.93361 C 220.65807,622.91195 212.50166,622.36218 204.28571,622.36218 C 197.78788,622.36218 189.43394,615.21933 180,615.21933 C 173.77373,615.21933 159.31281,610.24642 155.71429,606.6479 C 149.72379,600.6574 145.44166,596.76058 140,589.50504 C 133.98331,581.48279 128.57143,575.98175 128.57143,565.21933 C 128.57143,555.57513 132.25252,550.71428 135.71429,543.79075 C 138.15827,538.90278 135.71429,526.44098 135.71429,520.93361 C 135.71429,514.66959 132.90527,508.26896 131.42857,502.36218 C 129.31444,493.90567 137.3459,486.24181 140,480.93361 C 143.33825,474.25712 143.18819,475.44598 141.42857,466.6479 z"
       id="path2383" />
    <path
       style="fill:none;fill-rule:evenodd;stroke:#000000;stroke-width:1.25;stroke-linecap:butt;stroke-linejoin:miter;stroke-miterlimit:4;stroke-dasharray:none;stroke-opacity:1"
       d="M 574.28571,354.0133 C 569.22649,348.77459 559.04762,357.82282 551.42857,359.72758 C 546.34344,360.99886 536.99627,366.82833 531.42857,367.94187 C 526.5972,368.90814 513.99561,387.20516 511.42857,390.79901 C 507.28185,396.60441 499.16713,405.91759 494.28571,410.79901 C 486.87858,418.20614 485.05082,427.48171 487.14286,437.94187 C 489.59965,450.22583 491.80049,452.01207 487.14286,463.65615 C 484.13153,471.18448 482.03692,478.15374 478.57143,485.08473 C 473.02131,496.18496 472.75261,497.52374 475.71428,509.37044 C 477.87732,518.02257 479.33152,523.74776 482.85714,530.79901 C 486.08352,537.25177 486.80567,542.3074 488.57143,549.37044 C 490.32725,556.39374 490.10515,562.33273 494.28571,566.5133 C 499.5635,571.79108 501.26581,579.04492 504.28571,585.08473 C 506.82986,590.17302 525.64544,588.19251 529.64285,589.19187 C 536.443,590.8919 536.2503,601.6473 544.28571,603.65615 C 552.26276,605.65042 560.36214,611.99008 568.06635,613.91613 C 576.39038,615.99714 588.45083,609.37044 597.14286,609.37044 C 604.37626,609.37044 614.30976,603.02565 621.17603,604.3989 C 629.65048,606.09379 636.37129,613.96478 644.28571,610.79901 C 653.08868,607.27782 662.16799,607.39987 671.42857,605.08473 C 680.70891,602.76464 688.81548,593.4121 694.28571,587.94187 C 699.09548,583.1321 707.09724,579.41606 711.42857,575.08473 C 715.08781,571.42548 714.28571,557.09506 714.28571,552.22758 C 714.28571,544.77667 710,538.72274 710,529.37044 C 710,519.72755 705.23849,514.60774 710,505.08473 C 713.64485,497.79502 714.82994,492.97592 712.85714,485.08473 C 710.80495,476.87598 706.19068,475.56174 704.28571,467.94187 C 702.59339,461.17259 697.72195,455.97255 695.71428,447.94187 C 693.74331,440.05796 682.97133,429.52269 678.57143,423.65615 C 673.86779,417.38464 672.03653,407.72921 668.57143,400.79901 C 664.93859,393.53334 663.07118,390.19174 655.71428,386.5133 C 647.11705,382.21468 643.01596,376.59271 634.28571,372.22758 C 628.86587,369.51766 624.24266,364.34891 617.14286,360.79901 C 610.72661,357.59089 606.28199,352.58473 597.14286,352.58473 C 587.18876,352.58473 583.9139,350.16202 574.28571,354.0133 z"
       id="path2385"
       sodipodi:nodetypes="csssssssssssssssssssssssssssssssssc" />
    <path
       style="fill:none;fill-rule:evenodd;stroke:#000000;stroke-width:1.25;stroke-linecap:butt;stroke-linejoin:miter;stroke-miterlimit:4;stroke-dasharray:none;stroke-opacity:1"
       d="M 141.42857,477.36218 C 144.48707,474.53176 147.29524,468.94313 151.42857,473.07647 C 154.01395,475.66184 154.30096,478.85172 155,481.6479 C 156.01311,485.70034 158.39592,488.52137 162.14286,486.6479 C 165.66381,484.88742 165.81029,479.31303 167.14286,476.6479 C 168.60997,473.71367 171.2324,471.84407 172.85714,470.21932 C 173.65088,469.42559 182.65052,478.10007 183.57143,478.79075 C 186.55285,481.02682 186.90476,472.12409 188.57143,468.79075 C 190.90379,464.12602 196.25459,472.6064 197.14286,473.79075 C 200.27487,477.96677 197.1306,480.21932 202.14286,480.21932 C 204.95596,480.21932 209.0482,466.88366 209.28571,465.93361 C 209.94052,463.31437 217.15963,471.66467 217.85714,472.36218 C 221.12595,475.63099 221.94038,477.97523 223.57143,478.79075 C 224.98339,479.49674 228.28562,464.2197 228.57143,463.07647 C 229.6271,458.8538 230.68748,456.75511 231.42857,453.79075 C 232.81843,448.23133 238.11317,454.13213 240,456.6479 C 243.34328,461.1056 244.05857,460.74683 248.57143,457.36218 C 249.88534,456.37675 252.14286,467.19368 252.14286,468.79075 C 252.14286,476.74577 256.84168,474.80621 261.42857,470.21932 C 265.39256,466.25533 264.8929,465.93361 267.85714,465.93361 C 268.02977,465.93361 271.89443,474.72248 272.14286,475.21932 C 273.53291,477.99942 282.93183,468.71607 284.28571,467.36218 C 286.14348,465.50442 287.44285,460.33362 288.57143,458.07647 C 289.45758,456.30416 294.67196,455.12276 297.14286,454.50504 C 300.35182,453.7028 302.50532,458.7028 305.71429,459.50504"
       id="path2389" />
    <path
       sodipodi:type="arc"
       style="fill:#000000;fill-opacity:1;stroke:#000000;stroke-width:1.25;stroke-miterlimit:4;stroke-dasharray:none;stroke-dashoffset:0;stroke-opacity:1"
       id="path2391"
       sodipodi:cx="357.85715"
       sodipodi:cy="399.50504"
       sodipodi:rx="3.5714285"
       sodipodi:ry="3.5714285"
       d="M 361.42858,399.50504 A 3.5714285,3.5714285 0 1 1 354.28572,399.50504 A 3.5714285,3.5714285 0 1 1 361.42858,399.50504 z"
       transform="translate(-215.71429,75.714286)" />
    <path
       sodipodi:type="arc"
       style="fill:#000000;fill-opacity:1;stroke:#000000;stroke-width:1.25;stroke-miterlimit:4;stroke-dasharray:none;stroke-dashoffset:0;stroke-opacity:1"
       id="path3163"
       sodipodi:cx="357.85715"
       sodipodi:cy="399.50504"
       sodipodi:rx="3.5714285"
       sodipodi:ry="3.5714285"
       d="M 361.42858,399.50504 A 3.5714285,3.5714285 0 1 1 354.28572,399.50504 A 3.5714285,3.5714285 0 1 1 361.42858,399.50504 z"
       transform="translate(-51.071432,59.64286)" />
    <path
       style="fill:none;fill-rule:evenodd;stroke:#000000;stroke-width:1.25;stroke-linecap:butt;stroke-linejoin:miter;stroke-miterlimit:4;stroke-dasharray:none;stroke-opacity:1"
       d="M 489.92398,452.33157 C 493.58263,454.27862 498.5712,456.93818 502.04582,460.41279 C 505.52174,463.88871 506.24084,468.64842 509.11688,471.52447 C 512.2432,474.65078 517.67195,474.91031 521.23871,477.58538 C 525.81802,481.01987 525.42062,486.64143 533.36054,484.65645 C 542.37631,482.40251 542.48111,472.47624 545.48237,466.47371 C 548.88996,459.65854 550.50093,459.89161 555.5839,462.4331 C 558.38648,463.83439 561.40921,471.28886 563.66512,473.54477 C 567.25428,477.13393 569.71762,478.84597 572.75649,479.60569 C 575.79772,480.366 579.82756,463.62869 579.82756,461.42294 C 579.82756,456.33331 588.37849,451.08656 591.94939,449.30111 C 596.26542,447.1431 597.57031,452.59187 599.02046,458.39249 C 600.86018,465.75137 613.64256,450.84145 614.17275,450.31127 C 619.15804,445.32597 616.92121,442.59412 624.27427,446.27066 C 627.83655,448.0518 629.31215,456.35929 631.34534,458.39249 C 634.87765,461.9248 638.41641,448.94371 638.41641,444.25035 C 638.41641,437.90659 641.98012,434.0361 643.46717,428.08791 C 645.48264,420.02603 647.99588,422.40156 650.53824,423.03715 C 654.5247,424.03376 655.59805,430.14439 656.59915,434.14882 C 658.3412,441.117 657.06392,444.25035 664.68037,444.25035 C 672.3681,444.25035 672.07558,437.50342 677.81236,443.2402 C 680.46605,445.89389 686.2205,445.92904 688.92404,447.28081 C 691.9948,448.81619 692.98752,449.55937 695.9951,450.31127"
       id="path3165" />
    <path
       sodipodi:type="arc"
       style="fill:#000000;fill-opacity:1;stroke:#000000;stroke-width:1.25;stroke-miterlimit:4;stroke-dasharray:none;stroke-dashoffset:0;stroke-opacity:1"
       id="path3167"
       sodipodi:cx="357.85715"
       sodipodi:cy="399.50504"
       sodipodi:rx="3.5714285"
       sodipodi:ry="3.5714285"
       d="M 361.42858,399.50504 A 3.5714285,3.5714285 0 1 1 354.28572,399.50504 A 3.5714285,3.5714285 0 1 1 361.42858,399.50504 z"
       transform="translate(132.57191,53.836688)" />
    <path
       sodipodi:type="arc"
       style="fill:#000000;fill-opacity:1;stroke:#000000;stroke-width:1.25;stroke-miterlimit:4;stroke-dasharray:none;stroke-dashoffset:0;stroke-opacity:1"
       id="path3169"
       sodipodi:cx="357.85715"
       sodipodi:cy="399.50504"
       sodipodi:rx="3.5714285"
       sodipodi:ry="3.5714285"
       d="M 361.42858,399.50504 A 3.5714285,3.5714285 0 1 1 354.28572,399.50504 A 3.5714285,3.5714285 0 1 1 361.42858,399.50504 z"
       transform="translate(338.13796,50.80623)" />
    <text
       xml:space="preserve"
       style="font-size:20px;font-style:normal;font-weight:normal;fill:#000000;fill-opacity:1;stroke:none;stroke-width:1.25;stroke-linecap:butt;stroke-linejoin:miter;stroke-miterlimit:4;stroke-dasharray:none;stroke-opacity:1;font-family:Bitstream Vera Sans"
       x="313.57141"
       y="471.64789"
       id="text3171"><tspan
         sodipodi:role="line"
         id="tspan3173"
         x="313.57141"
         y="471.64789">u</tspan></text>
    <text
       xml:space="preserve"
       style="font-size:20px;font-style:normal;font-weight:normal;fill:#000000;fill-opacity:1;stroke:none;stroke-width:1.25;stroke-linecap:butt;stroke-linejoin:miter;stroke-miterlimit:4;stroke-dasharray:none;stroke-opacity:1;font-family:Bitstream Vera Sans"
       x="122.85715"
       y="480.21933"
       id="text3175"><tspan
         sodipodi:role="line"
         id="tspan3177"
         x="122.85715"
         y="480.21933">s</tspan></text>
    <text
       xml:space="preserve"
       style="font-size:20px;font-style:normal;font-weight:normal;fill:#000000;fill-opacity:1;stroke:none;stroke-width:1.25;stroke-linecap:butt;stroke-linejoin:miter;stroke-miterlimit:4;stroke-dasharray:none;stroke-opacity:1;font-family:Bitstream Vera Sans"
       x="496.42856"
       y="450.21933"
       id="text3179"><tspan
         sodipodi:role="line"
         id="tspan3181"
         x="496.42856"
         y="450.21933">v</tspan></text>
    <text
       xml:space="preserve"
       style="font-size:20px;font-style:normal;font-weight:normal;fill:#000000;fill-opacity:1;stroke:none;stroke-width:1.25;stroke-linecap:butt;stroke-linejoin:miter;stroke-miterlimit:4;stroke-dasharray:none;stroke-opacity:1;font-family:Bitstream Vera Sans"
       x="702.85718"
       y="452.36218"
       id="text3183"><tspan
         sodipodi:role="line"
         id="tspan3185"
         x="702.85718"
         y="452.36218">t</tspan></text>
    <path
       sodipodi:type="arc"
       style="fill:#000000;fill-opacity:1;stroke:#000000;stroke-width:1.25;stroke-miterlimit:4;stroke-dasharray:none;stroke-dashoffset:0;stroke-opacity:1"
       id="path3187"
       sodipodi:cx="357.85715"
       sodipodi:cy="399.50504"
       sodipodi:rx="3.5714285"
       sodipodi:ry="3.5714285"
       d="M 361.42858,399.50504 A 3.5714285,3.5714285 0 1 1 354.28572,399.50504 A 3.5714285,3.5714285 0 1 1 361.42858,399.50504 z"
       transform="translate(129.44633,130.48643)" />
    <path
       sodipodi:type="arc"
       style="fill:#000000;fill-opacity:1;stroke:#000000;stroke-width:1.25;stroke-miterlimit:4;stroke-dasharray:none;stroke-dashoffset:0;stroke-opacity:1"
       id="path3189"
       sodipodi:cx="357.85715"
       sodipodi:cy="399.50504"
       sodipodi:rx="3.5714285"
       sodipodi:ry="3.5714285"
       d="M 361.42858,399.50504 A 3.5714285,3.5714285 0 1 1 354.28572,399.50504 A 3.5714285,3.5714285 0 1 1 361.42858,399.50504 z"
       transform="translate(-46.730163,130.48643)" />
    <path
       style="fill:none;fill-rule:evenodd;stroke:#000000;stroke-width:1.25;stroke-linecap:butt;stroke-linejoin:miter;marker-end:url(#TriangleOutL);stroke-miterlimit:4;stroke-dasharray:none;stroke-opacity:1"
       d="M 487.3986,530.11332 C 403.39381,561.42805 322.28575,532.6387 322.28575,532.6387 L 322.28575,532.6387 L 322.28575,532.6387"
       id="path3193" />
    <path
       style="fill:none;fill-rule:evenodd;stroke:#000000;stroke-width:1.25;stroke-linecap:butt;stroke-linejoin:miter;marker-end:url(#TriangleOutL);stroke-miterlimit:4;stroke-dasharray:none;stroke-opacity:1"
       d="M 310.01794,453.67261 C 396.32339,423.96421 479.6528,451.27677 479.6528,451.27677 L 479.6528,451.27677 L 479.6528,451.27677"
       id="path3973" />
    <text
       xml:space="preserve"
       style="font-size:20px;font-style:normal;font-weight:normal;fill:#000000;fill-opacity:1;stroke:none;stroke-width:1.25;stroke-linecap:butt;stroke-linejoin:miter;stroke-miterlimit:4;stroke-dasharray:none;stroke-opacity:1;font-family:Bitstream Vera Sans"
       x="294.28574"
       y="534.50507"
       id="text3975"><tspan
         sodipodi:role="line"
         id="tspan3977"
         x="294.28574"
         y="534.50507">r</tspan></text>
    <text
       xml:space="preserve"
       style="font-size:20px;font-style:normal;font-weight:normal;fill:#000000;fill-opacity:1;stroke:none;stroke-width:1.25;stroke-linecap:butt;stroke-linejoin:miter;stroke-miterlimit:4;stroke-dasharray:none;stroke-opacity:1;font-family:Bitstream Vera Sans"
       x="493.57144"
       y="535.93359"
       id="text3979"><tspan
         sodipodi:role="line"
         id="tspan3981"
         x="493.57144"
         y="535.93359">p</tspan></text>
    <text
       xml:space="preserve"
       style="font-size:20px;font-style:normal;font-weight:normal;fill:#000000;fill-opacity:1;stroke:none;stroke-width:1px;stroke-linecap:butt;stroke-linejoin:miter;stroke-opacity:1;font-family:Bitstream Vera Sans"
       x="209.71429"
       y="650.57648"
       id="text3983"><tspan
         sodipodi:role="line"
         id="tspan3985"
         x="209.71429"
         y="650.57648"
         style="font-weight:bold">A</tspan></text>
    <text
       xml:space="preserve"
       style="font-size:20px;font-style:normal;font-weight:normal;fill:#000000;fill-opacity:1;stroke:none;stroke-width:1px;stroke-linecap:butt;stroke-linejoin:miter;stroke-opacity:1;font-family:Bitstream Vera Sans"
       x="593.42859"
       y="650.57648"
       id="text3987"><tspan
         sodipodi:role="line"
         id="tspan3989"
         x="593.42859"
         y="650.57648"
         style="font-weight:bold">B</tspan></text>
    <text
       xml:space="preserve"
       style="font-size:20px;font-style:normal;font-weight:normal;fill:#000000;fill-opacity:1;stroke:none;stroke-width:1px;stroke-linecap:butt;stroke-linejoin:miter;stroke-opacity:1;font-family:Bitstream Vera Sans"
       x="380.95935"
       y="428.98209"
       id="text3991"><tspan
         sodipodi:role="line"
         id="tspan3993"
         x="380.95935"
         y="428.98209">&lt; ∆</tspan><tspan
         sodipodi:role="line"
         x="380.95935"
         y="453.98209"
         id="tspan3995" /></text>
    <text
       xml:space="preserve"
       style="font-size:20px;font-style:normal;font-weight:normal;fill:#000000;fill-opacity:1;stroke:none;stroke-width:1px;stroke-linecap:butt;stroke-linejoin:miter;stroke-opacity:1;font-family:Bitstream Vera Sans"
       x="380.95935"
       y="566.55457"
       id="text3997"><tspan
         sodipodi:role="line"
         id="tspan3999"
         x="380.95935"
         y="566.55457">&lt; ∆</tspan><tspan
         sodipodi:role="line"
         x="380.95935"
         y="591.55457"
         id="tspan4001" /></text>
  </g>
</svg>
