<?xml version="1.0" encoding="UTF-8" standalone="no"?>
<!-- Created with Inkscape (http://www.inkscape.org/) -->
<svg
   xmlns:dc="http://purl.org/dc/elements/1.1/"
   xmlns:cc="http://creativecommons.org/ns#"
   xmlns:rdf="http://www.w3.org/1999/02/22-rdf-syntax-ns#"
   xmlns:svg="http://www.w3.org/2000/svg"
   xmlns="http://www.w3.org/2000/svg"
   xmlns:sodipodi="http://sodipodi.sourceforge.net/DTD/sodipodi-0.dtd"
   xmlns:inkscape="http://www.inkscape.org/namespaces/inkscape"
   width="426.33737"
   height="141.4041"
   id="svg2"
   sodipodi:version="0.32"
   inkscape:version="0.46"
   sodipodi:docname="f_06.svg"
   inkscape:output_extension="org.inkscape.output.svg.inkscape"
   version="1.0">
  <defs
     id="defs4">
    <marker
       inkscape:stockid="Arrow2Lend"
       orient="auto"
       refY="0"
       refX="0"
       id="Arrow2Lend"
       style="overflow:visible">
      <path
         id="path3209"
         style="font-size:12px;fill-rule:evenodd;stroke-width:0.625;stroke-linejoin:round"
         d="M 8.7185878,4.0337352 L -2.2072895,0.016013256 L 8.7185884,-4.0017078 C 6.97309,-1.6296469 6.9831476,1.6157441 8.7185878,4.0337352 z"
         transform="matrix(-1.1,0,0,-1.1,-1.1,0)" />
    </marker>
    <inkscape:perspective
       sodipodi:type="inkscape:persp3d"
       inkscape:vp_x="0 : 526.18109 : 1"
       inkscape:vp_y="0 : 1000 : 0"
       inkscape:vp_z="744.09448 : 526.18109 : 1"
       inkscape:persp3d-origin="372.04724 : 350.78739 : 1"
       id="perspective10" />
  </defs>
  <sodipodi:namedview
     id="base"
     pagecolor="#ffffff"
     bordercolor="#666666"
     borderopacity="1.0"
     inkscape:pageopacity="0.0"
     inkscape:pageshadow="2"
     inkscape:zoom="7.9999999"
     inkscape:cx="264.53714"
     inkscape:cy="28.041224"
     inkscape:document-units="px"
     inkscape:current-layer="layer1"
     showgrid="false"
     inkscape:window-width="1270"
     inkscape:window-height="768"
     inkscape:window-x="0"
     inkscape:window-y="18" />
  <metadata
     id="metadata7">
    <rdf:RDF>
      <cc:Work
         rdf:about="">
        <dc:format>image/svg+xml</dc:format>
        <dc:type
           rdf:resource="http://purl.org/dc/dcmitype/StillImage" />
      </cc:Work>
    </rdf:RDF>
  </metadata>
  <g
     inkscape:label="Livello 1"
     inkscape:groupmode="layer"
     id="layer1"
     transform="translate(-198.37825,-66.252581)">
    <text
       xml:space="preserve"
       style="font-size:10px;font-style:normal;font-weight:normal;fill:#000000;fill-opacity:1;stroke:none;stroke-width:1px;stroke-linecap:butt;stroke-linejoin:miter;stroke-opacity:1;font-family:Bitstream Vera Sans"
       x="358.85669"
       y="148.32617"
       id="text6280"><tspan
         sodipodi:role="line"
         id="tspan6282"
         x="358.85669"
         y="148.32617" /></text>
    <text
       xml:space="preserve"
       style="font-size:10px;font-style:normal;font-weight:normal;fill:#000000;fill-opacity:1;stroke:none;stroke-width:1px;stroke-linecap:butt;stroke-linejoin:miter;stroke-opacity:1;font-family:Bitstream Vera Sans"
       x="267.63992"
       y="95.646713"
       id="text6300"><tspan
         sodipodi:role="line"
         id="tspan6302"
         x="267.63992"
         y="95.646713" /></text>
    <text
       xml:space="preserve"
       style="font-size:10px;font-style:normal;font-weight:normal;fill:#000000;fill-opacity:1;stroke:none;stroke-width:1px;stroke-linecap:butt;stroke-linejoin:miter;stroke-opacity:1;font-family:Bitstream Vera Sans"
       x="193.04015"
       y="150.44749"
       id="text6328"><tspan
         sodipodi:role="line"
         id="tspan6330"
         x="193.04015"
         y="150.44749" /></text>
    <path
       sodipodi:type="arc"
       style="opacity:1;fill:none;fill-opacity:1;stroke:#000000;stroke-width:3;stroke-miterlimit:4;stroke-dasharray:none;stroke-dashoffset:0;stroke-opacity:1"
       id="path3258"
       sodipodi:cx="40"
       sodipodi:cy="82.576401"
       sodipodi:rx="6.5"
       sodipodi:ry="6.25"
       d="M 46.5,82.576401 A 6.5,6.25 0 1 1 33.5,82.576401 A 6.5,6.25 0 1 1 46.5,82.576401 z"
       transform="matrix(1.6458613,0,0,1.6458613,153.99928,35.161922)" />
    <path
       sodipodi:type="arc"
       style="opacity:1;fill:none;fill-opacity:1;stroke:#000000;stroke-width:3;stroke-miterlimit:4;stroke-dasharray:none;stroke-dashoffset:0;stroke-opacity:1"
       id="path3260"
       sodipodi:cx="40"
       sodipodi:cy="82.576401"
       sodipodi:rx="6.5"
       sodipodi:ry="6.25"
       d="M 46.5,82.576401 A 6.5,6.25 0 1 1 33.5,82.576401 A 6.5,6.25 0 1 1 46.5,82.576401 z"
       transform="matrix(1.6458613,0,0,1.6458613,545.71427,41.3339)" />
    <path
       sodipodi:type="arc"
       style="opacity:1;fill:none;fill-opacity:1;stroke:#000000;stroke-width:3;stroke-miterlimit:4;stroke-dasharray:none;stroke-dashoffset:0;stroke-opacity:1"
       id="path3262"
       sodipodi:cx="40"
       sodipodi:cy="82.576401"
       sodipodi:rx="6.5"
       sodipodi:ry="6.25"
       d="M 46.5,82.576401 A 6.5,6.25 0 1 1 33.5,82.576401 A 6.5,6.25 0 1 1 46.5,82.576401 z"
       transform="matrix(1.6458613,0,0,1.6458613,235.46941,-45.89675)" />
    <path
       sodipodi:type="arc"
       style="opacity:1;fill:none;fill-opacity:1;stroke:#000000;stroke-width:3;stroke-miterlimit:4;stroke-dasharray:none;stroke-dashoffset:0;stroke-opacity:1"
       id="path3264"
       sodipodi:cx="40"
       sodipodi:cy="82.576401"
       sodipodi:rx="6.5"
       sodipodi:ry="6.25"
       d="M 46.5,82.576401 A 6.5,6.25 0 1 1 33.5,82.576401 A 6.5,6.25 0 1 1 46.5,82.576401 z"
       transform="matrix(1.6458613,0,0,1.6458613,361.3778,-31.906929)" />
    <path
       sodipodi:type="arc"
       style="opacity:1;fill:none;fill-opacity:1;stroke:#000000;stroke-width:3;stroke-miterlimit:4;stroke-dasharray:none;stroke-dashoffset:0;stroke-opacity:1"
       id="path3266"
       sodipodi:cx="40"
       sodipodi:cy="82.576401"
       sodipodi:rx="6.5"
       sodipodi:ry="6.25"
       d="M 46.5,82.576401 A 6.5,6.25 0 1 1 33.5,82.576401 A 6.5,6.25 0 1 1 46.5,82.576401 z"
       transform="matrix(1.6458613,0,0,1.6458613,473.29637,-56.594849)" />
    <path
       style="fill:none;fill-rule:evenodd;stroke:#000000;stroke-width:1.60712469px;stroke-linecap:butt;stroke-linejoin:miter;marker-end:url(#Arrow2Lend);stroke-opacity:1"
       d="M 607.90054,167.57826 C 606.74569,165.24413 607.90054,155.03445 607.90054,150.44221 C 607.90054,145.58745 604.72885,140.60455 602.81353,136.73337 C 600.5466,132.15159 598.53426,129.55283 594.90041,125.88055 C 591.57967,122.5247 587.47502,119.68141 583.59594,116.74133 C 579.70643,113.79333 574.99321,109.92572 571.16105,107.6021 C 567.13644,105.16179 563.32892,100.95188 559.29136,97.891674 C 556.35858,95.668826 554.26103,94.364631 551.37824,92.179658 C 550.36276,91.410006 549.81668,90.996106 549.11734,90.466053"
       id="path3276" />
    <path
       style="fill:none;fill-rule:evenodd;stroke:#000000;stroke-width:1.55547428px;stroke-linecap:butt;stroke-linejoin:miter;marker-end:url(#Arrow2Lend);stroke-opacity:1"
       d="M 528.20608,75.412202 C 526.26294,73.966649 517.43879,73.769067 513.29712,73.769067 C 508.74561,73.769067 504.62528,72.085487 500.04471,73.221354 C 495.66857,74.306531 492.76497,76.446098 489.00105,79.246187 C 486.10183,81.402984 483.29008,83.267768 481.27047,85.271019 C 478.59289,87.92692 474.50718,89.891623 471.88337,91.843563 C 469.08771,93.923318 465.87196,94.277215 463.04842,95.677548 C 460.27861,97.05124 458.0306,97.89228 455.87004,98.963819 C 453.61791,100.08077 450.81259,100.08102 448.69165,100.60696 C 446.5838,101.12965 444.39531,102.19002 442.06545,103.34552"
       id="path3278" />
    <path
       style="fill:none;fill-rule:evenodd;stroke:#000000;stroke-width:1.62335038px;stroke-linecap:butt;stroke-linejoin:miter;marker-end:url(#Arrow2Lend);stroke-opacity:1"
       d="M 414.70167,102.39512 C 413.03682,103.25212 403.69999,103.50638 399.99461,104.14217 C 394.10149,105.15334 388.22778,105.30686 381.89365,105.30686 C 376.06909,105.30686 372.05773,105.48491 367.18661,102.97747 C 363.52032,101.09024 360.96586,98.902556 358.13612,95.989299 C 354.9995,92.760114 350.79049,91.627786 347.38866,89.001125 C 345.43191,87.49027 341.47658,87.122552 339.46948,86.089385 C 337.31564,84.980689 331.78016,86.089385 329.28769,86.089385 C 325.81665,86.089385 323.5938,86.681339 321.3685,87.254081 C 318.87885,87.894859 318.47259,88.453593 316.2776,89.583471"
       id="path3280" />
    <path
       style="fill:none;fill-rule:evenodd;stroke:#000000;stroke-width:1.57850921px;stroke-linecap:butt;stroke-linejoin:miter;marker-end:url(#Arrow2Lend);stroke-opacity:1"
       d="M 289.61562,85.92971 C 286.2181,86.372942 279.35362,84.274443 274.37435,84.274443 C 270.41826,84.274443 268.07266,82.664275 264.77799,84.274443 C 261.85324,85.703821 257.86684,85.996787 254.61713,87.584976 C 251.11645,89.295834 248.3108,89.839377 245.02079,91.447266 C 240.92098,93.450916 238.3512,97.748466 235.98891,100.82711 C 234.30302,103.02426 233.24829,107.12824 232.60198,109.6552 C 231.59084,113.60844 231.97849,117.79979 230.344,121.79382 C 228.95541,125.18698 229.78787,128.95031 228.08603,132.27719 C 226.85335,134.68694 226.5036,139.01587 225.82807,141.65703 C 225.10727,144.47516 225.39493,147.21282 224.69909,149.93336 C 224.19238,151.91445 222.88198,154.58909 221.87662,156.55443"
       id="path3799" />
    <path
       style="fill:none;fill-rule:evenodd;stroke:#000000;stroke-width:1.61747086px;stroke-linecap:butt;stroke-linejoin:miter;marker-end:url(#Arrow2Lend);stroke-opacity:1"
       d="M 224.97687,181.70316 C 227.91144,182.2641 234.00739,184.13472 238.2865,186.22416 C 245.97718,189.97944 256.22693,193.85368 264.32707,195.83128 C 269.35409,197.0586 274.09166,196.96154 279.37275,196.96154 C 284.21509,196.96154 289.62288,195.87184 294.41842,194.70104 C 299.35665,193.49539 304.73126,192.7998 309.46408,191.8754 C 315.52886,190.69086 321.43805,189.64974 327.40314,188.48465 C 336.91723,186.62641 346.65734,185.85427 356.33712,183.96365 C 364.8007,182.31058 371.9785,181.70316 380.64167,181.70316 C 388.51258,181.70316 398.37553,185.845 406.10357,187.3544 C 411.97147,188.5005 417.68674,188.76955 423.46397,190.18004 C 431.04794,192.03161 438.98746,193.91471 446.61114,196.3964 C 456.88646,199.74129 467.94081,200.89974 478.43852,203.17791 C 480.17456,203.55467 481.9106,203.9314 483.64664,204.30818 C 485.38267,204.68491 487.11871,205.06167 488.85475,205.43842 C 495.04447,206.78169 502.88692,207.52253 509.10854,206.00354 C 512.96329,205.06244 517.08624,204.62097 520.68214,203.74304 C 523.88794,202.96036 526.54782,200.03121 529.36233,198.65691 C 533.18741,196.78917 537.41013,195.138 541.51459,194.13591 C 546.88436,192.82492 551.75039,190.74516 557.13894,190.74516 C 562.95436,190.74516 568.65216,187.91953 574.49933,187.91953 C 578.29938,187.91953 582.0779,187.05823 585.49425,186.22416 C 588.24237,185.55322 591.22642,185.67237 593.59577,185.09391 C 594.94472,184.76456 595.92966,183.8177 597.64651,183.39853"
       id="path4316" />
    <text
       xml:space="preserve"
       style="font-size:20px;font-style:normal;font-weight:normal;fill:#000000;fill-opacity:1;stroke:none;stroke-width:1px;stroke-linecap:butt;stroke-linejoin:miter;stroke-opacity:1;font-family:Bitstream Vera Sans"
       x="197.29427"
       y="191.21104"
       id="text4833"><tspan
         sodipodi:role="line"
         id="tspan4835"
         x="197.29427"
         y="191.21104">s</tspan></text>
    <text
       xml:space="preserve"
       style="font-size:20px;font-style:normal;font-weight:normal;fill:#000000;fill-opacity:1;stroke:none;stroke-width:1px;stroke-linecap:butt;stroke-linejoin:miter;stroke-opacity:1;font-family:Bitstream Vera Sans"
       x="435.57779"
       y="155.74924"
       id="text4837"
       transform="translate(174.66684,47.48263)"><tspan
         sodipodi:role="line"
         id="tspan4839"
         x="435.57779"
         y="155.74924" /></text>
    <text
       xml:space="preserve"
       style="font-size:20px;font-style:normal;font-weight:normal;fill:#000000;fill-opacity:1;stroke:none;stroke-width:1px;stroke-linecap:butt;stroke-linejoin:miter;stroke-opacity:1;font-family:Bitstream Vera Sans"
       x="436.28488"
       y="155.74924"
       id="text4841"
       transform="translate(174.66684,47.48263)"><tspan
         sodipodi:role="line"
         id="tspan4843"
         x="436.28488"
         y="155.74924" /></text>
    <text
       xml:space="preserve"
       style="font-size:20px;font-style:normal;font-weight:normal;fill:#000000;fill-opacity:1;stroke:none;stroke-width:1px;stroke-linecap:butt;stroke-linejoin:miter;stroke-opacity:1;font-family:Bitstream Vera Sans"
       x="438.40622"
       y="157.16345"
       id="text4845"
       transform="translate(174.66684,47.48263)"><tspan
         sodipodi:role="line"
         id="tspan4847"
         x="438.40622"
         y="157.16345" /></text>
    <text
       xml:space="preserve"
       style="font-size:20px;font-style:normal;font-weight:normal;fill:#000000;fill-opacity:1;stroke:none;stroke-width:1px;stroke-linecap:butt;stroke-linejoin:miter;stroke-opacity:1;font-family:Bitstream Vera Sans"
       x="436.992"
       y="165.82552"
       id="text4849"
       transform="translate(174.66684,47.48263)"><tspan
         sodipodi:role="line"
         id="tspan4851"
         x="436.992"
         y="165.82552" /></text>
    <text
       xml:space="preserve"
       style="font-size:20px;font-style:normal;font-weight:normal;fill:#000000;fill-opacity:1;stroke:none;stroke-width:1px;stroke-linecap:butt;stroke-linejoin:miter;stroke-opacity:1;font-family:Bitstream Vera Sans"
       x="431.68869"
       y="155.04213"
       id="text4853"
       transform="translate(174.66684,47.48263)"><tspan
         sodipodi:role="line"
         id="tspan4855"
         x="431.68869"
         y="155.04213" /></text>
    <text
       xml:space="preserve"
       style="font-size:20px;font-style:normal;font-weight:normal;fill:#000000;fill-opacity:1;stroke:none;stroke-width:1px;stroke-linecap:butt;stroke-linejoin:miter;stroke-opacity:1;font-family:Bitstream Vera Sans"
       x="437.34555"
       y="159.28477"
       id="text4861"
       transform="translate(174.66684,47.48263)"><tspan
         sodipodi:role="line"
         id="tspan4863"
         x="437.34555"
         y="159.28477">t</tspan></text>
    <text
       xml:space="preserve"
       style="font-size:20px;font-style:normal;font-weight:normal;fill:#000000;fill-opacity:1;stroke:none;stroke-width:1px;stroke-linecap:butt;stroke-linejoin:miter;stroke-opacity:1;font-family:Bitstream Vera Sans"
       x="239.88599"
       y="29.707451"
       id="text4865"
       transform="translate(174.66684,47.48263)"><tspan
         sodipodi:role="line"
         id="tspan4867"
         x="239.88599"
         y="29.707451">v, x<tspan
   style="font-size:15px"
   id="tspan4869"
   dy="3.7123098">1</tspan></tspan></text>
    <text
       xml:space="preserve"
       style="font-size:20px;font-style:normal;font-weight:normal;fill:#000000;fill-opacity:1;stroke:none;stroke-width:1px;stroke-linecap:butt;stroke-linejoin:miter;stroke-opacity:1;font-family:Bitstream Vera Sans"
       x="413.01843"
       y="177.14598"
       id="text4871"><tspan
         sodipodi:role="line"
         id="tspan4873"
         x="413.01843"
         y="177.14598">v, x<tspan
   style="font-size:15px"
   id="tspan4875"
   dy="4.5">0</tspan></tspan></text>
  </g>
</svg>
