<?xml version="1.0" encoding="UTF-8" standalone="no"?>
<!-- Created with Inkscape (http://www.inkscape.org/) -->
<svg
   xmlns:dc="http://purl.org/dc/elements/1.1/"
   xmlns:cc="http://creativecommons.org/ns#"
   xmlns:rdf="http://www.w3.org/1999/02/22-rdf-syntax-ns#"
   xmlns:svg="http://www.w3.org/2000/svg"
   xmlns="http://www.w3.org/2000/svg"
   xmlns:sodipodi="http://sodipodi.sourceforge.net/DTD/sodipodi-0.dtd"
   xmlns:inkscape="http://www.inkscape.org/namespaces/inkscape"
   width="277.98639"
   height="251.91495"
   id="svg2"
   sodipodi:version="0.32"
   inkscape:version="0.46"
   sodipodi:docname="f_20.svg"
   inkscape:output_extension="org.inkscape.output.svg.inkscape"
   version="1.0">
  <defs
     id="defs4">
    <inkscape:perspective
       sodipodi:type="inkscape:persp3d"
       inkscape:vp_x="0 : 526.18109 : 1"
       inkscape:vp_y="0 : 1000 : 0"
       inkscape:vp_z="744.09448 : 526.18109 : 1"
       inkscape:persp3d-origin="372.04724 : 350.78739 : 1"
       id="perspective10" />
  </defs>
  <sodipodi:namedview
     id="base"
     pagecolor="#ffffff"
     bordercolor="#666666"
     borderopacity="1.0"
     inkscape:pageopacity="0.0"
     inkscape:pageshadow="2"
     inkscape:zoom="1.979899"
     inkscape:cx="102.5445"
     inkscape:cy="91.677447"
     inkscape:document-units="px"
     inkscape:current-layer="layer1"
     showgrid="false"
     inkscape:window-width="1270"
     inkscape:window-height="768"
     inkscape:window-x="0"
     inkscape:window-y="18" />
  <metadata
     id="metadata7">
    <rdf:RDF>
      <cc:Work
         rdf:about="">
        <dc:format>image/svg+xml</dc:format>
        <dc:type
           rdf:resource="http://purl.org/dc/dcmitype/StillImage" />
      </cc:Work>
    </rdf:RDF>
  </metadata>
  <g
     inkscape:label="Livello 1"
     inkscape:groupmode="layer"
     id="layer1"
     transform="translate(-161.18538,-38.904707)">
    <path
       sodipodi:type="arc"
       style="fill:#000000;fill-opacity:1;stroke:#000000;stroke-width:1.20067012;stroke-linecap:square;stroke-miterlimit:4;stroke-dasharray:none;stroke-dashoffset:0;stroke-opacity:1"
       id="path2383"
       sodipodi:cx="245.71428"
       sodipodi:cy="50.219326"
       sodipodi:rx="10"
       sodipodi:ry="10"
       d="M 255.71428,50.219326 A 10,10 0 1 1 235.71428,50.219326 A 10,10 0 1 1 255.71428,50.219326 z"
       transform="translate(36.785732,11.785716)" />
    <path
       sodipodi:type="arc"
       style="fill:none;fill-opacity:1;stroke:#000000;stroke-width:1.20067012;stroke-linecap:square;stroke-miterlimit:4;stroke-dasharray:none;stroke-dashoffset:0;stroke-opacity:1"
       id="path3165"
       sodipodi:cx="131.78572"
       sodipodi:cy="116.29076"
       sodipodi:rx="22.5"
       sodipodi:ry="22.5"
       d="M 154.28572,116.29076 A 22.5,22.5 0 1 1 109.28572,116.29076 A 22.5,22.5 0 1 1 154.28572,116.29076 z"
       transform="translate(150.71429,-54.285714)" />
    <path
       sodipodi:type="arc"
       style="fill:#000000;fill-opacity:1;stroke:#000000;stroke-width:1.20067012;stroke-linecap:square;stroke-miterlimit:4;stroke-dasharray:none;stroke-dashoffset:0;stroke-opacity:1"
       id="path3185"
       sodipodi:cx="245.71428"
       sodipodi:cy="50.219326"
       sodipodi:rx="10"
       sodipodi:ry="10"
       d="M 255.71428,50.219326 A 10,10 0 1 1 235.71428,50.219326 A 10,10 0 1 1 255.71428,50.219326 z"
       transform="translate(-8.428564,81.42857)" />
    <path
       sodipodi:type="arc"
       style="fill:#000000;fill-opacity:1;stroke:#000000;stroke-width:1.20067012;stroke-linecap:square;stroke-miterlimit:4;stroke-dasharray:none;stroke-dashoffset:0;stroke-opacity:1"
       id="path3191"
       sodipodi:cx="245.71428"
       sodipodi:cy="50.219326"
       sodipodi:rx="10"
       sodipodi:ry="10"
       d="M 255.71428,50.219326 A 10,10 0 1 1 235.71428,50.219326 A 10,10 0 1 1 255.71428,50.219326 z"
       transform="translate(87.571436,81.42857)" />
    <path
       sodipodi:type="arc"
       style="fill:#000000;fill-opacity:1;stroke:#000000;stroke-width:1.20067012;stroke-linecap:square;stroke-miterlimit:4;stroke-dasharray:none;stroke-dashoffset:0;stroke-opacity:1"
       id="path3209"
       sodipodi:cx="245.71428"
       sodipodi:cy="50.219326"
       sodipodi:rx="10"
       sodipodi:ry="10"
       d="M 255.71428,50.219326 A 10,10 0 1 1 235.71428,50.219326 A 10,10 0 1 1 255.71428,50.219326 z"
       transform="translate(-61.428564,152.14286)" />
    <path
       sodipodi:type="arc"
       style="fill:none;fill-opacity:1;stroke:#000000;stroke-width:1.20067012;stroke-linecap:square;stroke-miterlimit:4;stroke-dasharray:none;stroke-dashoffset:0;stroke-opacity:1"
       id="path3211"
       sodipodi:cx="131.78572"
       sodipodi:cy="116.29076"
       sodipodi:rx="22.5"
       sodipodi:ry="22.5"
       d="M 154.28572,116.29076 A 22.5,22.5 0 1 1 109.28572,116.29076 A 22.5,22.5 0 1 1 154.28572,116.29076 z"
       transform="translate(52.499994,86.071426)" />
    <path
       sodipodi:type="arc"
       style="fill:#000000;fill-opacity:1;stroke:#000000;stroke-width:1.20067012;stroke-linecap:square;stroke-miterlimit:4;stroke-dasharray:none;stroke-dashoffset:0;stroke-opacity:1"
       id="path3230"
       sodipodi:cx="245.71428"
       sodipodi:cy="50.219326"
       sodipodi:rx="10"
       sodipodi:ry="10"
       d="M 255.71428,50.219326 A 10,10 0 1 1 235.71428,50.219326 A 10,10 0 1 1 255.71428,50.219326 z"
       transform="translate(7.857162,152.14286)" />
    <path
       sodipodi:type="arc"
       style="fill:none;fill-opacity:1;stroke:#000000;stroke-width:1.20067012;stroke-linecap:square;stroke-miterlimit:4;stroke-dasharray:none;stroke-dashoffset:0;stroke-opacity:1"
       id="path3232"
       sodipodi:cx="131.78572"
       sodipodi:cy="116.29076"
       sodipodi:rx="22.5"
       sodipodi:ry="22.5"
       d="M 154.28572,116.29076 A 22.5,22.5 0 1 1 109.28572,116.29076 A 22.5,22.5 0 1 1 154.28572,116.29076 z"
       transform="translate(121.78572,86.071426)" />
    <path
       sodipodi:type="arc"
       style="fill:#000000;fill-opacity:1;stroke:#000000;stroke-width:1.20067012;stroke-linecap:square;stroke-miterlimit:4;stroke-dasharray:none;stroke-dashoffset:0;stroke-opacity:1"
       id="path3236"
       sodipodi:cx="245.71428"
       sodipodi:cy="50.219326"
       sodipodi:rx="10"
       sodipodi:ry="10"
       d="M 255.71428,50.219326 A 10,10 0 1 1 235.71428,50.219326 A 10,10 0 1 1 255.71428,50.219326 z"
       transform="translate(77.142864,152.14286)" />
    <path
       sodipodi:type="arc"
       style="fill:none;fill-opacity:1;stroke:#000000;stroke-width:1.20067012;stroke-linecap:square;stroke-miterlimit:4;stroke-dasharray:none;stroke-dashoffset:0;stroke-opacity:1"
       id="path3238"
       sodipodi:cx="131.78572"
       sodipodi:cy="116.29076"
       sodipodi:rx="22.5"
       sodipodi:ry="22.5"
       d="M 154.28572,116.29076 A 22.5,22.5 0 1 1 109.28572,116.29076 A 22.5,22.5 0 1 1 154.28572,116.29076 z"
       transform="translate(191.07142,86.071426)" />
    <path
       sodipodi:type="arc"
       style="fill:#000000;fill-opacity:1;stroke:#000000;stroke-width:1.20067012;stroke-linecap:square;stroke-miterlimit:4;stroke-dasharray:none;stroke-dashoffset:0;stroke-opacity:1"
       id="path3242"
       sodipodi:cx="245.71428"
       sodipodi:cy="50.219326"
       sodipodi:rx="10"
       sodipodi:ry="10"
       d="M 255.71428,50.219326 A 10,10 0 1 1 235.71428,50.219326 A 10,10 0 1 1 255.71428,50.219326 z"
       transform="translate(146.42859,152.14286)" />
    <path
       sodipodi:type="arc"
       style="fill:#000000;fill-opacity:1;stroke:#000000;stroke-width:1.20067012;stroke-linecap:square;stroke-miterlimit:4;stroke-dasharray:none;stroke-dashoffset:0;stroke-opacity:1"
       id="path3248"
       sodipodi:cx="245.71428"
       sodipodi:cy="50.219326"
       sodipodi:rx="10"
       sodipodi:ry="10"
       d="M 255.71428,50.219326 A 10,10 0 1 1 235.71428,50.219326 A 10,10 0 1 1 255.71428,50.219326 z"
       transform="translate(170.35714,217.5)" />
    <path
       style="fill:none;fill-rule:evenodd;stroke:#000000;stroke-width:1.07565188px;stroke-linecap:butt;stroke-linejoin:miter;stroke-opacity:1"
       d="M 277.0087,70.946775 L 243.1565,123.01866"
       id="path3288"
       inkscape:connector-type="polyline" />
    <path
       style="fill:none;fill-rule:evenodd;stroke:#000000;stroke-width:1.08775198px;stroke-linecap:butt;stroke-linejoin:miter;stroke-opacity:1"
       d="M 288.48826,70.684968 L 326.98496,123.28046"
       id="path3290"
       inkscape:connector-type="polyline" />
    <path
       style="fill:none;fill-rule:evenodd;stroke:#000000;stroke-width:1.03985178px;stroke-linecap:butt;stroke-linejoin:miter;stroke-opacity:1"
       d="M 237.48007,134.16783 L 190.74411,194.0779"
       id="path3292"
       inkscape:connector-type="polyline" />
    <path
       style="fill:none;fill-rule:evenodd;stroke:#000000;stroke-width:1.01567554px;stroke-linecap:butt;stroke-linejoin:miter;stroke-opacity:1"
       d="M 239.73485,142.25607 L 251.41249,192.13348"
       id="path3294"
       inkscape:connector-type="polyline" />
    <path
       style="fill:none;fill-rule:evenodd;stroke:#000000;stroke-width:1.02575803px;stroke-linecap:butt;stroke-linejoin:miter;stroke-opacity:1"
       d="M 331.79884,141.94861 L 324.25473,192.37397"
       id="path3296"
       inkscape:connector-type="polyline" />
    <path
       style="fill:none;fill-rule:evenodd;stroke:#000000;stroke-width:1.10683262px;stroke-linecap:butt;stroke-linejoin:miter;stroke-opacity:1"
       d="M 339.43882,140.11415 L 385.49868,194.387"
       id="path3298"
       inkscape:connector-type="polyline" />
    <path
       style="fill:none;fill-rule:evenodd;stroke:#000000;stroke-width:1.04866791px;stroke-linecap:butt;stroke-linejoin:miter;stroke-opacity:1"
       d="M 395.59205,212.094 L 412.91718,257.58983"
       id="path3300"
       inkscape:connector-type="polyline" />
    <g
       id="g3318"
       transform="matrix(1.1725435,-1.2142043,1.2142043,1.1725435,-88.349183,223.68768)">
      <path
         id="path3320"
         d="M 173.30357,87.362181 L 173.30357,117.00504"
         style="fill:none;fill-rule:evenodd;stroke:#000000;stroke-width:1px;stroke-linecap:butt;stroke-linejoin:miter;stroke-opacity:1" />
      <path
         id="path3322"
         d="M 158.48214,102.18361 L 188.125,102.18361"
         style="fill:none;fill-rule:evenodd;stroke:#000000;stroke-width:1px;stroke-linecap:butt;stroke-linejoin:miter;stroke-opacity:1" />
    </g>
    <g
       id="g3324"
       transform="matrix(1.1725435,-1.2142043,1.2142043,1.1725435,5.5793896,222.2591)">
      <path
         id="path3326"
         d="M 173.30357,87.362181 L 173.30357,117.00504"
         style="fill:none;fill-rule:evenodd;stroke:#000000;stroke-width:1px;stroke-linecap:butt;stroke-linejoin:miter;stroke-opacity:1" />
      <path
         id="path3328"
         d="M 158.48214,102.18361 L 188.125,102.18361"
         style="fill:none;fill-rule:evenodd;stroke:#000000;stroke-width:1px;stroke-linecap:butt;stroke-linejoin:miter;stroke-opacity:1" />
    </g>
    <g
       id="g3330"
       transform="matrix(1.1725435,-1.2142043,1.2142043,1.1725435,64.507961,292.2591)">
      <path
         id="path3332"
         d="M 173.30357,87.362181 L 173.30357,117.00504"
         style="fill:none;fill-rule:evenodd;stroke:#000000;stroke-width:1px;stroke-linecap:butt;stroke-linejoin:miter;stroke-opacity:1" />
      <path
         id="path3334"
         d="M 158.48214,102.18361 L 188.125,102.18361"
         style="fill:none;fill-rule:evenodd;stroke:#000000;stroke-width:1px;stroke-linecap:butt;stroke-linejoin:miter;stroke-opacity:1" />
    </g>
    <path
       sodipodi:type="arc"
       style="fill:none;fill-opacity:1;stroke:#000000;stroke-width:1.20067012;stroke-linecap:square;stroke-miterlimit:4;stroke-dasharray:none;stroke-dashoffset:0;stroke-opacity:1"
       id="path3336"
       sodipodi:cx="131.78572"
       sodipodi:cy="116.29076"
       sodipodi:rx="22.5"
       sodipodi:ry="22.5"
       d="M 154.28572,116.29076 A 22.5,22.5 0 1 1 109.28572,116.29076 A 22.5,22.5 0 1 1 154.28572,116.29076 z"
       transform="translate(284.2857,151.42857)" />
  </g>
</svg>
