<?xml version="1.0" encoding="UTF-8" standalone="no"?>
<!-- Created with Inkscape (http://www.inkscape.org/) -->
<svg
   xmlns:dc="http://purl.org/dc/elements/1.1/"
   xmlns:cc="http://creativecommons.org/ns#"
   xmlns:rdf="http://www.w3.org/1999/02/22-rdf-syntax-ns#"
   xmlns:svg="http://www.w3.org/2000/svg"
   xmlns="http://www.w3.org/2000/svg"
   xmlns:sodipodi="http://sodipodi.sourceforge.net/DTD/sodipodi-0.dtd"
   xmlns:inkscape="http://www.inkscape.org/namespaces/inkscape"
   width="145.68622"
   height="59.291958"
   id="svg2"
   sodipodi:version="0.32"
   inkscape:version="0.46"
   version="1.0"
   sodipodi:docname="r_18.svg"
   inkscape:output_extension="org.inkscape.output.svg.inkscape">
  <defs
     id="defs4">
    <marker
       inkscape:stockid="Arrow2Mstart"
       orient="auto"
       refY="0"
       refX="0"
       id="Arrow2Mstart"
       style="overflow:visible">
      <path
         id="path4952"
         style="font-size:12px;fill-rule:evenodd;stroke-width:0.625;stroke-linejoin:round"
         d="M 8.7185878,4.0337352 L -2.2072895,0.016013256 L 8.7185884,-4.0017078 C 6.97309,-1.6296469 6.9831476,1.6157441 8.7185878,4.0337352 z"
         transform="scale(0.6,0.6)" />
    </marker>
    <marker
       inkscape:stockid="Tail"
       orient="auto"
       refY="0"
       refX="0"
       id="Tail"
       style="overflow:visible">
      <g
         id="g3401"
         transform="scale(-1.2,-1.2)">
        <path
           id="path3403"
           d="M -3.8048674,-3.9585227 L 0.54352094,0"
           style="fill:none;fill-rule:evenodd;stroke:#000000;stroke-width:0.80000001;stroke-linecap:round;marker-start:none;marker-end:none" />
        <path
           id="path3405"
           d="M -1.2866832,-3.9585227 L 3.0617053,0"
           style="fill:none;fill-rule:evenodd;stroke:#000000;stroke-width:0.80000001;stroke-linecap:round;marker-start:none;marker-end:none" />
        <path
           id="path3407"
           d="M 1.3053582,-3.9585227 L 5.6537466,0"
           style="fill:none;fill-rule:evenodd;stroke:#000000;stroke-width:0.80000001;stroke-linecap:round;marker-start:none;marker-end:none" />
        <path
           id="path3409"
           d="M -3.8048674,4.1775838 L 0.54352094,0.21974226"
           style="fill:none;fill-rule:evenodd;stroke:#000000;stroke-width:0.80000001;stroke-linecap:round;marker-start:none;marker-end:none" />
        <path
           id="path3411"
           d="M -1.2866832,4.1775838 L 3.0617053,0.21974226"
           style="fill:none;fill-rule:evenodd;stroke:#000000;stroke-width:0.80000001;stroke-linecap:round;marker-start:none;marker-end:none" />
        <path
           id="path3413"
           d="M 1.3053582,4.1775838 L 5.6537466,0.21974226"
           style="fill:none;fill-rule:evenodd;stroke:#000000;stroke-width:0.80000001;stroke-linecap:round;marker-start:none;marker-end:none" />
      </g>
    </marker>
    <marker
       inkscape:stockid="Arrow2Mend"
       orient="auto"
       refY="0"
       refX="0"
       id="Arrow2Mend"
       style="overflow:visible">
      <path
         id="path3392"
         style="font-size:12px;fill-rule:evenodd;stroke-width:0.625;stroke-linejoin:round"
         d="M 8.7185878,4.0337352 L -2.2072895,0.016013256 L 8.7185884,-4.0017078 C 6.97309,-1.6296469 6.9831476,1.6157441 8.7185878,4.0337352 z"
         transform="scale(-0.6,-0.6)" />
    </marker>
    <marker
       inkscape:stockid="Arrow1Lend"
       orient="auto"
       refY="0"
       refX="0"
       id="Arrow1Lend"
       style="overflow:visible">
      <path
         id="path3368"
         d="M 0,0 L 5,-5 L -12.5,0 L 5,5 L 0,0 z"
         style="fill-rule:evenodd;stroke:#000000;stroke-width:1pt;marker-start:none"
         transform="matrix(-0.8,0,0,-0.8,-10,0)" />
    </marker>
    <marker
       inkscape:stockid="TriangleOutL"
       orient="auto"
       refY="0"
       refX="0"
       id="TriangleOutL"
       style="overflow:visible">
      <path
         id="path3508"
         d="M 5.77,0 L -2.88,5 L -2.88,-5 L 5.77,0 z"
         style="fill-rule:evenodd;stroke:#000000;stroke-width:1pt;marker-start:none"
         transform="scale(0.8,0.8)" />
    </marker>
    <inkscape:perspective
       sodipodi:type="inkscape:persp3d"
       inkscape:vp_x="0 : 526.18109 : 1"
       inkscape:vp_y="0 : 1000 : 0"
       inkscape:vp_z="744.09448 : 526.18109 : 1"
       inkscape:persp3d-origin="372.04724 : 350.78739 : 1"
       id="perspective10" />
  </defs>
  <sodipodi:namedview
     id="base"
     pagecolor="#ffffff"
     bordercolor="#666666"
     borderopacity="1.0"
     inkscape:pageopacity="0.0"
     inkscape:pageshadow="2"
     inkscape:zoom="3.3781226"
     inkscape:cx="63.002161"
     inkscape:cy="7.6139954"
     inkscape:document-units="px"
     inkscape:current-layer="layer1"
     showgrid="false"
     inkscape:window-width="1270"
     inkscape:window-height="768"
     inkscape:window-x="0"
     inkscape:window-y="0"
     showguides="false" />
  <metadata
     id="metadata7">
    <rdf:RDF>
      <cc:Work
         rdf:about="">
        <dc:format>image/svg+xml</dc:format>
        <dc:type
           rdf:resource="http://purl.org/dc/dcmitype/StillImage" />
      </cc:Work>
    </rdf:RDF>
  </metadata>
  <g
     inkscape:label="Livello 1"
     inkscape:groupmode="layer"
     id="layer1"
     transform="translate(-378.63281,-650.50339)">
    <path
       sodipodi:type="arc"
       style="fill:none;fill-opacity:1;stroke:#000000;stroke-width:1;stroke-linecap:butt;stroke-linejoin:miter;stroke-miterlimit:3.92000008;stroke-dasharray:none;stroke-dashoffset:0;stroke-opacity:1"
       id="path2468"
       sodipodi:cx="153.84981"
       sodipodi:cy="11.36118"
       sodipodi:rx="3.139792"
       sodipodi:ry="3.139792"
       d="M 156.9896,11.36118 A 3.139792,3.139792 0 1 1 150.71002,11.36118 A 3.139792,3.139792 0 1 1 156.9896,11.36118 z"
       transform="translate(235.44481,666.61374)" />
    <path
       sodipodi:type="arc"
       style="fill:none;fill-opacity:1;stroke:#000000;stroke-width:1;stroke-linecap:butt;stroke-linejoin:miter;stroke-miterlimit:3.92000008;stroke-dasharray:none;stroke-dashoffset:0;stroke-opacity:1"
       id="path2404"
       sodipodi:cx="153.84981"
       sodipodi:cy="11.36118"
       sodipodi:rx="3.139792"
       sodipodi:ry="3.139792"
       d="M 156.9896,11.36118 A 3.139792,3.139792 0 1 1 150.71002,11.36118 A 3.139792,3.139792 0 1 1 156.9896,11.36118 z"
       transform="translate(359.3654,666.61374)" />
    <path
       style="fill:none;fill-rule:evenodd;stroke:#000000;stroke-width:1px;stroke-linecap:butt;stroke-linejoin:miter;stroke-opacity:1"
       d="M 6.4889031,35.429332 C 7.4667637,35.014313 9.6424671,33.64323 11.093931,32.917498 C 12.281839,32.323544 13.543202,34.578411 14.024403,35.220012 C 15.39251,37.044154 18.925897,32.719855 19.885348,32.080221 C 21.528366,30.984875 24.831199,28.766901 26.374251,30.824304 C 27.477851,32.29577 29.972588,35.0954 31.816557,34.173415 C 36.051159,32.056114 39.882289,23.288803 44.375724,23.288803 C 44.454432,23.288803 47.764347,29.856729 47.934155,30.196346 C 50.421465,35.170965 52.387632,31.813133 55.469656,28.731109 C 58.27799,25.922775 59.1925,29.045017 60.911961,31.452262 C 61.198727,31.853734 61.609693,32.149994 61.958559,32.49886 C 63.504263,34.044564 64.432569,28.236824 65.935628,31.242943 C 67.455295,34.282276 70.120489,37.356905 72.424531,34.592054 C 74.529558,32.066022 74.740168,28.473888 77.029559,32.28954 C 78.873392,35.362595 79.921875,31.642684 81.006629,30.196346 C 81.869675,29.045617 82.332319,33.196591 83.727782,33.545457 C 84.594596,33.76216 87.882848,30.501922 89.170088,29.987026 C 90.849478,29.31527 90.235379,34.36404 92.937838,31.661582 C 96.631846,27.967573 100.34931,28.09284 102.14789,32.28954 C 103.13973,34.603816 104.27955,28.903083 106.33428,32.49886 C 107.66052,34.819774 110.35451,38.735285 112.82319,36.26661 C 114.27764,34.812156 114.62084,35.335737 116.1723,36.26661 C 117.59501,37.12024 118.73991,36.275003 120.14937,35.429332 C 121.23871,34.775725 120.93759,35.05076 122.45188,35.429332 C 122.80445,35.517473 124.31299,35.010693 124.33576,35.010693"
       id="path2422"
       transform="translate(385.65482,642.75879)" />
    <path
       style="fill:none;fill-rule:evenodd;stroke:#000000;stroke-width:1px;stroke-linecap:butt;stroke-linejoin:miter;stroke-opacity:1"
       d="M 4.1863891,32.080221 C 4.9441835,32.269669 7.8802901,29.205135 8.7914171,28.52179 C 9.6330668,27.890553 10.495812,32.050381 13.187126,29.359068 C 15.083235,27.462958 16.679364,24.820232 18.420112,23.079484 C 19.29287,22.206726 20.172219,24.940023 21.350584,21.404928 C 22.418524,18.201108 23.717718,20.165167 25.327654,20.567651 C 26.151497,20.773611 28.484663,16.590581 29.723363,16.590581 C 31.237268,16.590581 31.153413,20.934409 35.165668,14.916025 C 36.915455,12.291346 38.276747,9.1563423 40.398655,11.985553 C 41.634621,13.633508 43.248163,10.58104 44.166405,9.8923584 C 44.677498,9.5090387 45.738174,11.722967 47.306197,10.938956 C 48.782607,10.200751 50.766155,11.313256 52.748503,10.520317 C 54.443339,9.8423822 54.941962,10.86156 57.144211,10.310997 C 58.732958,9.9138105 59.514148,10.938956 62.167878,10.938956 C 67.700367,10.938956 60.872057,9.7253926 67.400864,11.357595 C 71.303764,12.33332 74.097363,6.7512733 76.61092,8.6364417 C 78.713202,10.213153 80.307985,8.6364417 82.262546,8.6364417 C 83.91639,8.6364417 86.135055,8.6626315 87.704852,9.0550806 C 89.102646,9.4045293 90.53299,9.3434764 91.891241,9.6830389 C 92.821731,9.9156614 94.366792,10.520317 95.658991,10.520317 C 97.36578,10.520317 99.334722,12.171412 101.31062,11.776233 C 101.43799,11.750758 104.56287,13.144608 104.65973,13.24147 C 106.14735,14.72909 107.62004,14.736548 109.26476,16.381261 C 110.63602,17.752523 112.76631,17.789617 114.0791,19.102414 C 114.83756,19.860867 115.05595,20.916535 115.96298,21.823567 C 117.15974,23.020331 117.3857,21.781055 118.26549,22.660845 C 118.73354,23.128898 119.85334,23.880848 120.14937,23.288803 C 120.91344,21.76065 121.27721,23.99801 122.03324,24.75404 C 123.49977,26.220568 124.57392,28.850189 126.01031,29.568387 C 126.46892,29.797691 126.74988,31.689379 126.84759,32.080221 C 126.88143,32.2156 126.84759,32.359313 126.84759,32.49886"
       id="path2424"
       transform="translate(385.65482,642.75879)" />
    <path
       style="fill:none;fill-rule:evenodd;stroke:#000000;stroke-width:1px;stroke-linecap:butt;stroke-linejoin:miter;stroke-opacity:1"
       d="M 389.84121,681.31748 C 389.88503,681.49091 391.83707,682.38507 392.14269,683.59458 C 392.23874,683.97474 394.40232,684.38121 394.86261,684.83663 C 396.03728,685.99885 396.4944,686.94828 397.79176,685.66466 C 397.86072,685.59644 400.16478,688.10513 400.51169,688.56278 C 402.3509,690.98907 403.70701,688.55328 405.11464,689.59782 C 406.87642,690.90516 407.43031,688.20492 407.83457,689.80483 C 408.39635,692.02817 410.32036,690.66571 410.97294,689.80483 C 411.56472,689.02415 412.21945,691.37284 413.06519,691.87491 C 413.91923,692.38191 417.44924,693.32205 418.50504,693.53098 C 420.14952,693.85639 420.2992,694.41855 421.85264,695.18704 C 423.37334,695.93934 424.42984,696.22209 426.24637,696.22209 C 427.79583,696.22209 428.06516,695.25877 429.17552,695.80807 C 431.14264,696.78121 431.86727,699.07542 434.19692,698.49918 C 435.76779,698.11062 435.68863,697.25713 437.54452,697.25713 C 438.93848,697.25713 439.51527,698.06346 441.10135,697.67114 C 441.38032,697.60214 441.65928,697.53314 441.93825,697.46414 C 444.24644,696.8932 444.89591,697.00542 447.58733,697.67114 C 449.12005,698.05027 450.49445,697.36608 451.77183,697.05012 C 452.6407,696.8352 455.75968,698.88077 457.21168,699.1202 C 458.20117,699.28337 458.71384,697.78395 459.9316,698.08516 C 461.94372,698.58286 463.56766,698.60167 464.74378,697.05012 C 465.61226,695.90441 467.06531,696.21216 468.30061,695.60106 C 469.46255,695.02625 471.40261,696.98171 473.32201,696.22209 C 475.26264,695.45406 475.77331,695.39405 478.76186,695.39405 C 481.81635,695.39405 484.91488,693.6942 486.29396,691.87491 C 487.26737,690.59078 490.59052,692.08192 491.94303,692.08192 C 493.76429,692.08192 494.25555,692.071 495.08141,691.25388 C 496.05684,690.28879 497.70428,690.47387 499.05668,689.80483 C 500.26422,689.20746 500.82688,689.1838 502.40429,689.1838 C 504.20169,689.1838 505.24379,687.52773 507.00724,687.52773 C 508.7535,687.52773 509.56369,687.44203 510.56406,686.6997 C 511.58525,685.94193 511.77205,685.43812 512.02864,684.42261 C 512.32966,683.23127 512.44709,682.69209 512.44709,681.7315 C 512.44709,681.23562 512.72604,681.17952 512.86554,680.90347"
       id="path2426" />
    <text
       xml:space="preserve"
       style="font-size:10px;font-style:normal;font-weight:normal;fill:#000000;fill-opacity:1;stroke:none;stroke-width:1px;stroke-linecap:butt;stroke-linejoin:miter;stroke-opacity:1;font-family:Bitstream Vera Sans"
       x="448.86929"
       y="709.79535"
       id="text2428"><tspan
         sodipodi:role="line"
         id="tspan2430"
         x="448.86929"
         y="709.79535">v</tspan></text>
    <text
       xml:space="preserve"
       style="font-size:10px;font-style:normal;font-weight:normal;fill:#000000;fill-opacity:1;stroke:none;stroke-width:1px;stroke-linecap:butt;stroke-linejoin:miter;stroke-opacity:1;font-family:Bitstream Vera Sans"
       x="378.09082"
       y="679.58997"
       id="text2432"><tspan
         sodipodi:role="line"
         id="tspan2434"
         x="378.09082"
         y="679.58997">s</tspan></text>
    <text
       xml:space="preserve"
       style="font-size:10px;font-style:normal;font-weight:normal;fill:#000000;fill-opacity:1;stroke:none;stroke-width:1px;stroke-linecap:butt;stroke-linejoin:miter;stroke-opacity:1;font-family:Bitstream Vera Sans"
       x="520.63739"
       y="680.37122"
       id="text2436"><tspan
         sodipodi:role="line"
         id="tspan2438"
         x="520.63739"
         y="680.37122">t</tspan></text>
  </g>
</svg>
