<?xml version="1.0" encoding="UTF-8" standalone="no"?>
<!-- Created with Inkscape (http://www.inkscape.org/) -->

<svg
   xmlns:dc="http://purl.org/dc/elements/1.1/"
   xmlns:cc="http://creativecommons.org/ns#"
   xmlns:rdf="http://www.w3.org/1999/02/22-rdf-syntax-ns#"
   xmlns:svg="http://www.w3.org/2000/svg"
   xmlns="http://www.w3.org/2000/svg"
   xmlns:sodipodi="http://sodipodi.sourceforge.net/DTD/sodipodi-0.dtd"
   xmlns:inkscape="http://www.inkscape.org/namespaces/inkscape"
   width="684.50244"
   height="98.310379"
   id="svg2"
   sodipodi:version="0.32"
   inkscape:version="0.46+devel r21180"
   version="1.0"
   sodipodi:docname="n_09.svg"
   inkscape:output_extension="org.inkscape.output.svg.inkscape">
  <defs
     id="defs4">
    <inkscape:perspective
       sodipodi:type="inkscape:persp3d"
       inkscape:vp_x="0 : 526.18109 : 1"
       inkscape:vp_y="0 : 1000 : 0"
       inkscape:vp_z="744.09448 : 526.18109 : 1"
       inkscape:persp3d-origin="372.04724 : 350.78739 : 1"
       id="perspective10" />
  </defs>
  <sodipodi:namedview
     id="base"
     pagecolor="#ffffff"
     bordercolor="#666666"
     borderopacity="1.0"
     inkscape:pageopacity="0.0"
     inkscape:pageshadow="2"
     inkscape:zoom="1.4"
     inkscape:cx="300.57386"
     inkscape:cy="87.533621"
     inkscape:document-units="px"
     inkscape:current-layer="layer1"
     showgrid="false"
     inkscape:window-width="1280"
     inkscape:window-height="728"
     inkscape:window-x="-5"
     inkscape:window-y="20" />
  <metadata
     id="metadata7">
    <rdf:RDF>
      <cc:Work
         rdf:about="">
        <dc:format>image/svg+xml</dc:format>
        <dc:type
           rdf:resource="http://purl.org/dc/dcmitype/StillImage" />
      </cc:Work>
    </rdf:RDF>
  </metadata>
  <g
     inkscape:label="Livello 1"
     inkscape:groupmode="layer"
     id="layer1"
     transform="translate(232.34895,-64.499742)">
    <path
       sodipodi:type="arc"
       style="fill:none;stroke:#000000;stroke-opacity:1"
       id="path3165"
       sodipodi:cx="31.428572"
       sodipodi:cy="94.505035"
       sodipodi:rx="7.1428571"
       sodipodi:ry="7.1428571"
       d="m 38.571429,94.505035 c 0,3.944891 -3.197966,7.142855 -7.142857,7.142855 -3.944891,0 -7.142857,-3.197964 -7.142857,-7.142855 0,-3.944891 3.197966,-7.142857 7.142857,-7.142857 3.944891,0 7.142857,3.197966 7.142857,7.142857 z"
       transform="translate(-3.9999924,-0.5905848)" />
    <path
       sodipodi:type="arc"
       style="fill:none;stroke:#000000;stroke-opacity:1"
       id="path3167"
       sodipodi:cx="31.428572"
       sodipodi:cy="94.505035"
       sodipodi:rx="7.1428571"
       sodipodi:ry="7.1428571"
       d="m 38.571429,94.505035 c 0,3.944891 -3.197966,7.142855 -7.142857,7.142855 -3.944891,0 -7.142857,-3.197964 -7.142857,-7.142855 0,-3.944891 3.197966,-7.142857 7.142857,-7.142857 3.944891,0 7.142857,3.197966 7.142857,7.142857 z"
       transform="translate(165.96994,-0.5905848)" />
    <path
       sodipodi:type="arc"
       style="fill:none;stroke:#000000;stroke-opacity:1"
       id="path3169"
       sodipodi:cx="31.428572"
       sodipodi:cy="94.505035"
       sodipodi:rx="7.1428571"
       sodipodi:ry="7.1428571"
       d="m 38.571429,94.505035 c 0,3.944891 -3.197966,7.142855 -7.142857,7.142855 -3.944891,0 -7.142857,-3.197964 -7.142857,-7.142855 0,-3.944891 3.197966,-7.142857 7.142857,-7.142857 3.944891,0 7.142857,3.197966 7.142857,7.142857 z"
       transform="translate(71.14253,53.265542)" />
    <path
       style="fill:none;stroke:#000000;stroke-width:1px;stroke-linecap:butt;stroke-linejoin:miter;stroke-opacity:1"
       d="M 32.3655,98.778178 97.015258,142.84608"
       id="path3171" />
    <path
       style="fill:none;stroke:#000000;stroke-width:1px;stroke-linecap:butt;stroke-linejoin:miter;stroke-opacity:1"
       d="M 109.75001,145.93361 192.07144,98.790752"
       id="path3173" />
    <path
       style="fill:none;stroke:#000000;stroke-width:1px;stroke-linecap:butt;stroke-linejoin:miter;stroke-opacity:1"
       d="M 34.571437,93.790753 189.92858,93.076467"
       id="path3175" />
    <text
       xml:space="preserve"
       style="font-size:10px;font-style:normal;font-weight:normal;fill:#000000;fill-opacity:1;stroke:none;font-family:Bitstream Vera Sans"
       x="24.489126"
       y="96.648827"
       id="text3177"><tspan
         sodipodi:role="line"
         id="tspan3179"
         x="24.489126"
         y="96.648827">x</tspan></text>
    <text
       xml:space="preserve"
       style="font-size:10px;font-style:normal;font-weight:normal;fill:#000000;fill-opacity:1;stroke:none;font-family:Bitstream Vera Sans"
       x="194.43951"
       y="95.608788"
       id="text3181"><tspan
         sodipodi:role="line"
         id="tspan3183"
         x="194.43951"
         y="95.608788">y</tspan></text>
    <text
       xml:space="preserve"
       style="font-size:10px;font-style:normal;font-weight:normal;fill:#000000;fill-opacity:1;stroke:none;font-family:Bitstream Vera Sans"
       x="99.946587"
       y="150.50496"
       id="text3185"><tspan
         sodipodi:role="line"
         id="tspan3187"
         x="99.946587"
         y="150.50496">z</tspan></text>
    <path
       style="fill:none;stroke:#000000;stroke-width:1px;stroke-linecap:butt;stroke-linejoin:miter;stroke-opacity:1"
       d="m 24.214294,76.647895 c 1.755877,-2.398217 7.562573,-3.214285 11.785714,-3.214285 5.288625,0 9.730895,2.29125 14.642857,3.928571 6.466362,2.155454 13.252328,-0.144409 18.928572,-3.928571 4.345342,-2.896895 9.594072,-2.881536 13.214285,-1.071429 3.083389,1.541694 4.94002,2.583425 8.928572,1.785714 4.250775,-0.850155 7.785734,-1.942853 12.142856,-1.071428 4.27528,0.855055 5.85735,2.307123 11.07143,1.785714 5.31307,-0.531306 11.2778,-2.101584 16.42857,-1.071429 5.78506,1.157013 10.68633,0.01398 17.14286,-3.214285 4.77035,-2.385173 14.81963,-5.894657 18.92857,-1.785715 1.89099,1.890989 14.38528,-2.890331 16.42857,-3.571428 4.44958,-1.483191 6.26705,4.95332 7.14286,7.142857 0.93268,2.331695 5.06367,-1.323368 7.5,-0.714286 6.38176,1.59544 11.74802,7.706346 13.21429,13.571429 0.57234,2.289391 1.78571,5.113917 1.78571,8.571429 0,5.014699 -2.25357,12.733927 -6.78571,14.999997 -2.49764,1.24882 -5.97309,10.97309 -9.64286,14.64286 -3.52681,3.52681 -9.10841,5.92807 -13.21429,4.28571 -0.24866,-0.0995 -4.02079,6.87794 -5.35714,8.21429 -2.89558,2.89558 -9.81752,11.61106 -14.64286,6.78571 -0.41202,-0.41202 -4.31485,3.21429 -6.78571,3.21429 -8.34106,0 -3.85271,-5.433 -10,0.71429 -3.74632,3.74632 -10.02353,8.92268 -15.71429,7.5 -2.89283,-0.72321 -7.64906,5.21583 -12.5,6.42857 -5.26978,1.31744 -12.21359,0.73197 -15,1.42857 -6.601042,1.65026 -12.961321,-3.82739 -18.571428,-6.07143 -1.6323,-0.65292 -3.11543,-2.33737 -7.5,-3.21429 -4.848182,-0.96963 -13.928571,-3.83429 -13.928571,-10 0,-0.82744 -4.638856,1.252 -7.857143,-0.35714 -3.517879,-1.75894 -2.283386,-6.53688 -4.642857,-5.35714 -6.563079,3.28154 -12.445229,-2.03332 -15,-7.14286 -1.838925,-3.67785 2.832074,-2.85714 -5.357143,-2.85714 -6.594606,0 -15.816584,-3.05994 -14.285714,-10.71429 C 17.343453,113.14495 5.338667,106.14539 4.2142933,101.6479 3.5741452,99.087303 7.9840246,90.695845 8.8571506,88.076467 c 0.997593,-2.992778 4.6116954,-4.270134 6.7857144,-5.357143 1.81464,-0.90732 4.206847,-0.49628 6.071429,-1.428571 0.799746,-0.399874 2.107161,-3.988126 2.5,-4.642858 z"
       id="path3189" />
    <text
       xml:space="preserve"
       style="font-size:20px;font-style:normal;font-weight:normal;fill:#000000;fill-opacity:1;stroke:none;font-family:Bitstream Vera Sans"
       x="197.07143"
       y="140.93362"
       id="text3191"><tspan
         sodipodi:role="line"
         id="tspan3193"
         x="197.07143"
         y="140.93362">G</tspan></text>
    <path
       style="fill:none;stroke:#000000;stroke-width:1.69184709;stroke-linecap:butt;stroke-linejoin:miter;stroke-miterlimit:4;stroke-opacity:1;stroke-dasharray:none"
       d="M 100.86022,101.0734 116.49694,85.793819"
       id="path3197" />
    <path
       transform="translate(-240,-0.5905848)"
       d="m 38.571429,94.505035 c 0,3.944891 -3.197966,7.142855 -7.142857,7.142855 -3.944891,0 -7.142857,-3.197964 -7.142857,-7.142855 0,-3.944891 3.197966,-7.142857 7.142857,-7.142857 3.944891,0 7.142857,3.197966 7.142857,7.142857 z"
       sodipodi:ry="7.1428571"
       sodipodi:rx="7.1428571"
       sodipodi:cy="94.505035"
       sodipodi:cx="31.428572"
       id="path2848"
       style="fill:none;stroke:#000000;stroke-opacity:1"
       sodipodi:type="arc" />
    <path
       transform="translate(-70.03007,-0.5905848)"
       d="m 38.571429,94.505035 c 0,3.944891 -3.197966,7.142855 -7.142857,7.142855 -3.944891,0 -7.142857,-3.197964 -7.142857,-7.142855 0,-3.944891 3.197966,-7.142857 7.142857,-7.142857 3.944891,0 7.142857,3.197966 7.142857,7.142857 z"
       sodipodi:ry="7.1428571"
       sodipodi:rx="7.1428571"
       sodipodi:cy="94.505035"
       sodipodi:cx="31.428572"
       id="path2850"
       style="fill:none;stroke:#000000;stroke-opacity:1"
       sodipodi:type="arc" />
    <path
       id="path2858"
       d="M -201.42857,93.790753 -46.07143,93.076467"
       style="fill:none;stroke:#000000;stroke-width:1px;stroke-linecap:butt;stroke-linejoin:miter;stroke-opacity:1" />
    <text
       id="text2860"
       y="96.648827"
       x="-211.51088"
       style="font-size:10px;font-style:normal;font-weight:normal;fill:#000000;fill-opacity:1;stroke:none;font-family:Bitstream Vera Sans"
       xml:space="preserve"><tspan
         y="96.648827"
         x="-211.51088"
         id="tspan2862"
         sodipodi:role="line">x</tspan></text>
    <text
       id="text2864"
       y="95.608788"
       x="-41.560486"
       style="font-size:10px;font-style:normal;font-weight:normal;fill:#000000;fill-opacity:1;stroke:none;font-family:Bitstream Vera Sans"
       xml:space="preserve"><tspan
         y="95.608788"
         x="-41.560486"
         id="tspan2866"
         sodipodi:role="line">y</tspan></text>
    <path
       id="path2872"
       d="m -211.78571,76.647895 c 1.75587,-2.398217 7.56257,-3.214285 11.78571,-3.214285 5.28863,0 9.7309,2.29125 14.64286,3.928571 6.46636,2.155454 13.25233,-0.144409 18.92857,-3.928571 4.34534,-2.896895 9.59407,-2.881536 13.21428,-1.071429 3.08339,1.541694 4.94002,2.583425 8.92858,1.785714 4.25077,-0.850155 7.78573,-1.942853 12.14285,-1.071428 4.27528,0.855055 5.85735,2.307123 11.07143,1.785714 5.31307,-0.531306 11.2778,-2.101584 16.42857,-1.071429 5.78506,1.157013 10.68633,0.01398 17.14286,-3.214285 4.77035,-2.385173 14.81963,-5.894657 18.92857,-1.785715 1.89099,1.890989 14.38528,-2.890331 16.42857,-3.571428 4.44958,-1.483191 6.26705,4.95332 7.14286,7.142857 0.93268,2.331695 5.06367,-1.323368 7.5,-0.714286 6.38176,1.59544 11.74802,7.706346 13.21429,13.571429 0.57234,2.289391 1.78571,5.113917 1.78571,8.571429 0,5.014699 -2.25357,12.733927 -6.78571,14.999997 -2.49764,1.24882 -5.97309,10.97309 -9.64286,14.64286 -3.52681,3.52681 -9.10841,5.92807 -13.21429,4.28571 -0.24866,-0.0995 -4.02079,6.87794 -5.35714,8.21429 -2.89558,2.89558 -9.81752,11.61106 -14.64286,6.78571 -0.41202,-0.41202 -4.31485,3.21429 -6.78571,3.21429 -8.34106,0 -3.85271,-5.433 -10,0.71429 -3.74632,3.74632 -10.02353,8.92268 -15.71429,7.5 -2.89283,-0.72321 -7.64906,5.21583 -12.5,6.42857 -5.26978,1.31744 -12.21359,0.73197 -15,1.42857 -6.60104,1.65026 -12.96132,-3.82739 -18.57143,-6.07143 -1.6323,-0.65292 -3.11543,-2.33737 -7.5,-3.21429 -4.84818,-0.96963 -13.92857,-3.83429 -13.92857,-10 0,-0.82744 -4.63885,1.252 -7.85714,-0.35714 -3.51788,-1.75894 -2.28339,-6.53688 -4.64286,-5.35714 -6.56308,3.28154 -12.44523,-2.03332 -15,-7.14286 -1.83892,-3.67785 2.83208,-2.85714 -5.35714,-2.85714 -6.59461,0 -15.81658,-3.05994 -14.28571,-10.71429 0.62916,-3.1458 -11.37563,-10.14536 -12.5,-14.64285 -0.64015,-2.560597 3.76973,-10.952055 4.64285,-13.571433 0.9976,-2.992778 4.6117,-4.270134 6.78572,-5.357143 1.81464,-0.90732 4.20684,-0.49628 6.07143,-1.428571 0.79974,-0.399874 2.10716,-3.988126 2.5,-4.642858 z"
       style="fill:none;stroke:#000000;stroke-width:1px;stroke-linecap:butt;stroke-linejoin:miter;stroke-opacity:1" />
    <text
       id="text2874"
       y="140.93362"
       x="-38.928574"
       style="font-size:20px;font-style:normal;font-weight:normal;fill:#000000;fill-opacity:1;stroke:none;font-family:Bitstream Vera Sans"
       xml:space="preserve"><tspan
         y="140.93362"
         x="-38.928574"
         id="tspan2876"
         sodipodi:role="line">G</tspan></text>
    <path
       transform="translate(232.00002,-0.5905848)"
       d="m 38.571429,94.505035 c 0,3.944891 -3.197966,7.142855 -7.142857,7.142855 -3.944891,0 -7.142857,-3.197964 -7.142857,-7.142855 0,-3.944891 3.197966,-7.142857 7.142857,-7.142857 3.944891,0 7.142857,3.197966 7.142857,7.142857 z"
       sodipodi:ry="7.1428571"
       sodipodi:rx="7.1428571"
       sodipodi:cy="94.505035"
       sodipodi:cx="31.428572"
       id="path2882"
       style="fill:none;stroke:#000000;stroke-opacity:1"
       sodipodi:type="arc" />
    <path
       transform="translate(401.96995,-0.5905848)"
       d="m 38.571429,94.505035 c 0,3.944891 -3.197966,7.142855 -7.142857,7.142855 -3.944891,0 -7.142857,-3.197964 -7.142857,-7.142855 0,-3.944891 3.197966,-7.142857 7.142857,-7.142857 3.944891,0 7.142857,3.197966 7.142857,7.142857 z"
       sodipodi:ry="7.1428571"
       sodipodi:rx="7.1428571"
       sodipodi:cy="94.505035"
       sodipodi:cx="31.428572"
       id="path2884"
       style="fill:none;stroke:#000000;stroke-opacity:1"
       sodipodi:type="arc" />
    <path
       transform="translate(307.14254,53.265542)"
       d="m 38.571429,94.505035 c 0,3.944891 -3.197966,7.142855 -7.142857,7.142855 -3.944891,0 -7.142857,-3.197964 -7.142857,-7.142855 0,-3.944891 3.197966,-7.142857 7.142857,-7.142857 3.944891,0 7.142857,3.197966 7.142857,7.142857 z"
       sodipodi:ry="7.1428571"
       sodipodi:rx="7.1428571"
       sodipodi:cy="94.505035"
       sodipodi:cx="31.428572"
       id="path2886"
       style="fill:none;stroke:#000000;stroke-opacity:1"
       sodipodi:type="arc" />
    <path
       id="path2888"
       d="m 268.36551,98.778178 64.64976,44.067902"
       style="fill:none;stroke:#000000;stroke-width:1px;stroke-linecap:butt;stroke-linejoin:miter;stroke-opacity:1" />
    <path
       id="path2890"
       d="M 345.75002,145.93361 428.07145,98.790752"
       style="fill:none;stroke:#000000;stroke-width:1px;stroke-linecap:butt;stroke-linejoin:miter;stroke-opacity:1" />
    <text
       id="text2894"
       y="96.648827"
       x="260.48914"
       style="font-size:10px;font-style:normal;font-weight:normal;fill:#000000;fill-opacity:1;stroke:none;font-family:Bitstream Vera Sans"
       xml:space="preserve"><tspan
         y="96.648827"
         x="260.48914"
         id="tspan2896"
         sodipodi:role="line">x</tspan></text>
    <text
       id="text2898"
       y="95.608788"
       x="430.43954"
       style="font-size:10px;font-style:normal;font-weight:normal;fill:#000000;fill-opacity:1;stroke:none;font-family:Bitstream Vera Sans"
       xml:space="preserve"><tspan
         y="95.608788"
         x="430.43954"
         id="tspan2900"
         sodipodi:role="line">y</tspan></text>
    <text
       id="text2902"
       y="150.50496"
       x="335.94659"
       style="font-size:10px;font-style:normal;font-weight:normal;fill:#000000;fill-opacity:1;stroke:none;font-family:Bitstream Vera Sans"
       xml:space="preserve"><tspan
         y="150.50496"
         x="335.94659"
         id="tspan2904"
         sodipodi:role="line">z</tspan></text>
    <path
       id="path2906"
       d="m 260.21431,76.647895 c 1.75587,-2.398217 7.56257,-3.214285 11.78571,-3.214285 5.28862,0 9.73089,2.29125 14.64286,3.928571 6.46636,2.155454 13.25233,-0.144409 18.92857,-3.928571 4.34534,-2.896895 9.59407,-2.881536 13.21428,-1.071429 3.08339,1.541694 4.94002,2.583425 8.92858,1.785714 4.25077,-0.850155 7.78573,-1.942853 12.14285,-1.071428 4.27528,0.855055 5.85735,2.307123 11.07143,1.785714 5.31307,-0.531306 11.2778,-2.101584 16.42857,-1.071429 5.78506,1.157013 10.68633,0.01398 17.14286,-3.214285 4.77035,-2.385173 14.81963,-5.894657 18.92857,-1.785715 1.89099,1.890989 14.38528,-2.890331 16.42857,-3.571428 4.44958,-1.483191 6.26705,4.95332 7.14286,7.142857 0.93268,2.331695 5.06367,-1.323368 7.5,-0.714286 6.38176,1.59544 11.74802,7.706346 13.21429,13.571429 0.57234,2.289391 1.78571,5.113917 1.78571,8.571429 0,5.014699 -2.25357,12.733927 -6.78571,14.999997 -2.49764,1.24882 -5.97309,10.97309 -9.64286,14.64286 -3.52681,3.52681 -9.10841,5.92807 -13.21429,4.28571 -0.24866,-0.0995 -4.02079,6.87794 -5.35714,8.21429 -2.89558,2.89558 -9.81752,11.61106 -14.64286,6.78571 -0.41202,-0.41202 -4.31485,3.21429 -6.78571,3.21429 -8.34106,0 -3.85271,-5.433 -10,0.71429 -3.74632,3.74632 -10.02353,8.92268 -15.71429,7.5 -2.89283,-0.72321 -7.64906,5.21583 -12.5,6.42857 -5.26978,1.31744 -12.21359,0.73197 -15,1.42857 -6.60104,1.65026 -12.96132,-3.82739 -18.57143,-6.07143 -1.6323,-0.65292 -3.11543,-2.33737 -7.5,-3.21429 -4.84818,-0.96963 -13.92857,-3.83429 -13.92857,-10 0,-0.82744 -4.63885,1.252 -7.85714,-0.35714 -3.51788,-1.75894 -2.28339,-6.53688 -4.64286,-5.35714 -6.56308,3.28154 -12.44523,-2.03332 -15,-7.14286 -1.83892,-3.67785 2.83208,-2.85714 -5.35714,-2.85714 -6.59461,0 -15.81658,-3.05994 -14.28571,-10.71429 0.62915,-3.1458 -11.37563,-10.14536 -12.5,-14.64285 -0.64015,-2.560597 3.76973,-10.952055 4.64285,-13.571433 0.9976,-2.992778 4.6117,-4.270134 6.78572,-5.357143 1.81464,-0.90732 4.20684,-0.49628 6.07143,-1.428571 0.79974,-0.399874 2.10716,-3.988126 2.5,-4.642858 z"
       style="fill:none;stroke:#000000;stroke-width:1px;stroke-linecap:butt;stroke-linejoin:miter;stroke-opacity:1" />
    <text
       id="text2908"
       y="140.93362"
       x="433.07144"
       style="font-size:20px;font-style:normal;font-weight:normal;fill:#000000;fill-opacity:1;stroke:none;font-family:Bitstream Vera Sans"
       xml:space="preserve"><tspan
         y="140.93362"
         x="433.07144"
         id="tspan2910"
         sodipodi:role="line">G'</tspan></text>
    <text
       xml:space="preserve"
       style="font-size:15px;font-style:normal;font-variant:normal;font-weight:normal;font-stretch:normal;fill:#000000;fill-opacity:1;stroke:none;font-family:Bitstream Vera Serif;-inkscape-font-specification:Bitstream Vera Serif"
       x="-130.84117"
       y="88.784378"
       id="text2962"><tspan
         sodipodi:role="line"
         id="tspan2964"
         x="-130.84117"
         y="88.784378">e</tspan></text>
    <text
       xml:space="preserve"
       style="font-size:15px;font-style:normal;font-variant:normal;font-weight:normal;font-stretch:normal;fill:#000000;fill-opacity:1;stroke:none;font-family:Bitstream Vera Serif;-inkscape-font-specification:Bitstream Vera Serif"
       x="122.43439"
       y="89.15947"
       id="text2966"><tspan
         sodipodi:role="line"
         id="tspan2968"
         x="122.43439"
         y="89.15947">e</tspan></text>
  </g>
</svg>
