<?xml version="1.0" encoding="UTF-8" standalone="no"?>
<!-- Created with Inkscape (http://www.inkscape.org/) -->

<svg
   xmlns:dc="http://purl.org/dc/elements/1.1/"
   xmlns:cc="http://creativecommons.org/ns#"
   xmlns:rdf="http://www.w3.org/1999/02/22-rdf-syntax-ns#"
   xmlns:svg="http://www.w3.org/2000/svg"
   xmlns="http://www.w3.org/2000/svg"
   xmlns:sodipodi="http://sodipodi.sourceforge.net/DTD/sodipodi-0.dtd"
   xmlns:inkscape="http://www.inkscape.org/namespaces/inkscape"
   width="239.33357"
   height="105.33868"
   id="svg2"
   sodipodi:version="0.32"
   inkscape:version="0.46+devel r21180"
   sodipodi:docname="n_15.svg"
   inkscape:output_extension="org.inkscape.output.svg.inkscape"
   version="1.0">
  <defs
     id="defs4">
    <marker
       inkscape:stockid="TriangleOutM"
       orient="auto"
       refY="0"
       refX="0"
       id="TriangleOutM"
       style="overflow:visible">
      <path
         id="path3378"
         d="M 5.77,0 L -2.88,5 L -2.88,-5 L 5.77,0 z"
         style="fill-rule:evenodd;stroke:#000000;stroke-width:1pt;marker-start:none"
         transform="scale(0.4,0.4)" />
    </marker>
    <marker
       inkscape:stockid="TriangleOutL"
       orient="auto"
       refY="0"
       refX="0"
       id="TriangleOutL"
       style="overflow:visible">
      <path
         id="path3375"
         d="M 5.77,0 L -2.88,5 L -2.88,-5 L 5.77,0 z"
         style="fill-rule:evenodd;stroke:#000000;stroke-width:1pt;marker-start:none"
         transform="scale(0.8,0.8)" />
    </marker>
    <marker
       inkscape:stockid="DotS"
       orient="auto"
       refY="0"
       refX="0"
       id="DotS"
       style="overflow:visible">
      <path
         id="path3300"
         d="M -2.5,-1 C -2.5,1.76 -4.74,4 -7.5,4 C -10.26,4 -12.5,1.76 -12.5,-1 C -12.5,-3.76 -10.26,-6 -7.5,-6 C -4.74,-6 -2.5,-3.76 -2.5,-1 z"
         style="fill-rule:evenodd;stroke:#000000;stroke-width:1pt;marker-start:none;marker-end:none"
         transform="matrix(0.2,0,0,0.2,1.48,0.2)" />
    </marker>
    <marker
       inkscape:stockid="Arrow2Lstart"
       orient="auto"
       refY="0"
       refX="0"
       id="Arrow2Lstart"
       style="overflow:visible">
      <path
         id="path3250"
         style="font-size:12px;fill-rule:evenodd;stroke-width:0.625;stroke-linejoin:round"
         d="M 8.7185878,4.0337352 L -2.2072895,0.016013256 L 8.7185884,-4.0017078 C 6.97309,-1.6296469 6.9831476,1.6157441 8.7185878,4.0337352 z"
         transform="matrix(1.1,0,0,1.1,1.1,0)" />
    </marker>
    <marker
       inkscape:stockid="Arrow2Mend"
       orient="auto"
       refY="0"
       refX="0"
       id="Arrow2Mend"
       style="overflow:visible">
      <path
         id="path3259"
         style="font-size:12px;fill-rule:evenodd;stroke-width:0.625;stroke-linejoin:round"
         d="M 8.7185878,4.0337352 L -2.2072895,0.016013256 L 8.7185884,-4.0017078 C 6.97309,-1.6296469 6.9831476,1.6157441 8.7185878,4.0337352 z"
         transform="scale(-0.6,-0.6)" />
    </marker>
    <marker
       inkscape:stockid="Arrow2Lend"
       orient="auto"
       refY="0"
       refX="0"
       id="Arrow2Lend"
       style="overflow:visible">
      <path
         id="path3253"
         style="font-size:12px;fill-rule:evenodd;stroke-width:0.625;stroke-linejoin:round"
         d="M 8.7185878,4.0337352 L -2.2072895,0.016013256 L 8.7185884,-4.0017078 C 6.97309,-1.6296469 6.9831476,1.6157441 8.7185878,4.0337352 z"
         transform="matrix(-1.1,0,0,-1.1,-1.1,0)" />
    </marker>
    <inkscape:perspective
       sodipodi:type="inkscape:persp3d"
       inkscape:vp_x="0 : 526.18109 : 1"
       inkscape:vp_y="0 : 1000 : 0"
       inkscape:vp_z="744.09448 : 526.18109 : 1"
       inkscape:persp3d-origin="372.04724 : 350.78739 : 1"
       id="perspective10" />
  </defs>
  <sodipodi:namedview
     id="base"
     pagecolor="#ffffff"
     bordercolor="#666666"
     borderopacity="1.0"
     inkscape:pageopacity="0.0"
     inkscape:pageshadow="2"
     inkscape:zoom="2.8"
     inkscape:cx="102.42829"
     inkscape:cy="64.796051"
     inkscape:document-units="px"
     inkscape:current-layer="layer1"
     showgrid="true"
     showguides="true"
     inkscape:window-width="1280"
     inkscape:window-height="728"
     inkscape:window-x="-5"
     inkscape:window-y="20">
    <inkscape:grid
       type="xygrid"
       id="grid2387"
       visible="true"
       enabled="true" />
  </sodipodi:namedview>
  <metadata
     id="metadata7">
    <rdf:RDF>
      <cc:Work
         rdf:about="">
        <dc:format>image/svg+xml</dc:format>
        <dc:type
           rdf:resource="http://purl.org/dc/dcmitype/StillImage" />
      </cc:Work>
    </rdf:RDF>
  </metadata>
  <g
     inkscape:label="Livello 1"
     inkscape:groupmode="layer"
     id="layer1"
     transform="translate(-189.23438,-461.60994)">
    <path
       sodipodi:type="arc"
       style="fill:none;fill-opacity:1;fill-rule:evenodd;stroke:#000000;stroke-width:2.90830588;stroke-linecap:square;stroke-miterlimit:4;stroke-dasharray:8.72491757, 2.90830586;stroke-dashoffset:0;stroke-opacity:1"
       id="path2383"
       sodipodi:cx="215.71428"
       sodipodi:cy="415.21933"
       sodipodi:rx="30"
       sodipodi:ry="30"
       d="m 245.71428,415.21933 c 0,16.56854 -13.43146,30 -30,30 -16.56854,0 -30,-13.43146 -30,-30 0,-16.56854 13.43146,-30 30,-30 16.56854,0 30,13.43146 30,30 z"
       transform="matrix(0.3290575,0,0,0.3290576,164.60151,362.01213)" />
    <path
       style="fill:none;fill-rule:evenodd;stroke:#000000;stroke-width:1px;stroke-linecap:butt;stroke-linejoin:miter;stroke-opacity:1;display:inline"
       d="M 227.86962,504.70772 L 218.58391,512.92201"
       id="path2413"
       inkscape:connector-type="polyline" />
    <path
       style="fill:none;fill-rule:evenodd;stroke:#000000;stroke-width:0.96940988px;stroke-linecap:butt;stroke-linejoin:miter;stroke-opacity:1;display:inline"
       d="M 231.3135,507.63885 L 224.58648,518.29445"
       id="path2415"
       inkscape:connector-type="polyline" />
    <path
       style="fill:none;fill-rule:evenodd;stroke:#000000;stroke-width:1px;stroke-linecap:butt;stroke-linejoin:miter;stroke-opacity:1;display:inline"
       d="M 234.68856,508.58545 L 235.94355,520.9193"
       id="path2417"
       inkscape:connector-type="polyline" />
    <path
       style="fill:none;fill-rule:evenodd;stroke:#000000;stroke-width:1.74295425px;stroke-linecap:butt;stroke-linejoin:miter;stroke-opacity:1"
       d="M 253.57357,463.74283 C 251.89355,462.16604 247.62476,462.30123 244.47849,462.89075 C 242.33119,463.2931 241.24808,465.49115 239.93095,466.72511 C 237.60372,468.90539 235.5071,466.81201 233.5644,465.44699 C 230.71062,463.4418 223.79999,465.31198 221.28605,466.72511 C 219.10261,467.95245 219.46703,469.08471 219.46703,471.83758 C 219.46703,474.55073 213.72273,470.9855 210.82671,470.9855 C 205.63101,470.9855 196.27458,471.93048 196.27458,478.22817 C 196.27458,480.12286 196.42541,482.25092 197.63885,483.76668 C 198.60566,484.97437 194.72144,485.3987 194.00082,486.74895 C 190.30588,493.67221 187.90804,500.29815 193.09131,506.77279 C 195.25121,509.47082 192.63655,520.53193 192.63655,524.2404 C 192.63655,526.77266 191.92333,529.89542 191.27229,532.33514 C 190.32923,535.86921 193.62386,539.53297 195.36508,541.708 C 196.67234,543.34096 197.59993,545.89549 198.54835,547.67255 C 199.48743,549.43212 203.83263,543.51448 206.73392,548.95067 C 210.06871,555.19912 213.37429,562.92521 219.92178,565.99224 C 221.88671,566.91267 227.75172,560.06456 229.01686,559.17561 C 229.17151,559.06695 235.63081,564.48235 243.11423,557.47146 C 250.12209,550.90609 248.18182,549.21853 255.84734,550.65483 C 262.61057,551.92206 265.64354,544.11324 267.21618,540.42989 C 267.7903,539.08522 270.24787,541.56599 271.76372,541.28197 C 275.78883,540.52778 277.22126,530.34634 279.03978,528.07475 C 280.85395,525.80859 280.95453,521.77385 279.03978,519.98001 C 276.71676,517.80367 276.49987,512.23867 274.947,509.32903 C 272.9318,505.55312 271.76372,505.42211 271.76372,500.80824 C 271.76372,496.35723 271.41141,492.90545 269.48995,489.30519 C 268.25339,486.98822 267.39798,484.44795 266.76143,482.06252 C 266.01378,479.26077 266.03432,476.39606 264.48766,473.96777 C 262.92696,471.51745 263.09396,470.53188 261.30438,468.8553 C 259.26917,466.94861 258.29846,466.38215 256.30209,465.44699 C 255.3244,464.98901 254.48308,464.31089 253.57357,463.74283 z"
       id="path2449" />
    <path
       style="fill:none;fill-rule:evenodd;stroke:#000000;stroke-width:1px;stroke-linecap:butt;stroke-linejoin:miter;marker-start:none;marker-mid:none;marker-end:url(#Arrow2Lend);stroke-opacity:1"
       d="M 243.16261,492.90969 C 280.79079,466.49344 296.44815,470.68634 296.44815,470.68634 L 296.44815,470.68634 L 296.44815,470.68634"
       id="path4007" />
    <path
       sodipodi:type="arc"
       style="fill:none;fill-opacity:1;fill-rule:evenodd;stroke:#000000;stroke-width:2.90830588;stroke-linecap:square;stroke-miterlimit:4;stroke-dasharray:8.72491757, 2.90830586;stroke-dashoffset:0;stroke-opacity:1"
       id="path8241"
       sodipodi:cx="215.71428"
       sodipodi:cy="415.21933"
       sodipodi:rx="30"
       sodipodi:ry="30"
       d="m 245.71428,415.21933 c 0,16.56854 -13.43146,30 -30,30 -16.56854,0 -30,-13.43146 -30,-30 0,-16.56854 13.43146,-30 30,-30 16.56854,0 30,13.43146 30,30 z"
       transform="matrix(-0.3290575,0,0,0.3290576,453.20083,362.01213)" />
    <path
       style="fill:none;fill-rule:evenodd;stroke:#000000;stroke-width:1px;stroke-linecap:butt;stroke-linejoin:miter;stroke-opacity:1;display:inline"
       d="M 389.93272,504.70772 L 399.21843,512.92201"
       id="path8251"
       inkscape:connector-type="polyline" />
    <path
       style="fill:none;fill-rule:evenodd;stroke:#000000;stroke-width:0.96940988px;stroke-linecap:butt;stroke-linejoin:miter;stroke-opacity:1;display:inline"
       d="M 386.48884,507.63885 L 393.21586,518.29445"
       id="path8253"
       inkscape:connector-type="polyline" />
    <path
       style="fill:none;fill-rule:evenodd;stroke:#000000;stroke-width:1px;stroke-linecap:butt;stroke-linejoin:miter;stroke-opacity:1;display:inline"
       d="M 383.11378,508.58545 L 381.85879,520.9193"
       id="path8255"
       inkscape:connector-type="polyline" />
    <path
       style="fill:none;fill-rule:evenodd;stroke:#000000;stroke-width:1.74295425px;stroke-linecap:butt;stroke-linejoin:miter;stroke-opacity:1"
       d="M 364.22877,463.74283 C 365.90879,462.16604 370.17758,462.30123 373.32385,462.89075 C 375.47115,463.2931 376.55426,465.49115 377.87139,466.72511 C 380.19862,468.90539 382.29524,466.81201 384.23794,465.44699 C 387.09172,463.4418 394.00235,465.31198 396.51629,466.72511 C 398.69973,467.95245 398.33531,469.08471 398.33531,471.83758 C 398.33531,474.55073 404.07961,470.9855 406.97563,470.9855 C 412.17133,470.9855 421.52776,471.93048 421.52776,478.22817 C 421.52776,480.12286 421.37693,482.25092 420.16349,483.76668 C 419.19668,484.97437 423.0809,485.3987 423.80152,486.74895 C 427.49646,493.67221 429.8943,500.29815 424.71103,506.77279 C 422.55113,509.47082 425.16579,520.53193 425.16579,524.2404 C 425.16579,526.77266 425.87901,529.89542 426.53005,532.33514 C 427.47311,535.86921 424.17848,539.53297 422.43726,541.708 C 421.13,543.34096 420.20241,545.89549 419.25399,547.67255 C 418.31491,549.43212 413.96971,543.51448 411.06842,548.95067 C 407.73363,555.19912 404.42805,562.92521 397.88056,565.99224 C 395.91563,566.91267 390.05062,560.06456 388.78548,559.17561 C 388.63083,559.06695 382.17153,564.48235 374.68811,557.47146 C 367.68025,550.90609 369.62052,549.21853 361.955,550.65483 C 355.19177,551.92206 352.1588,544.11324 350.58616,540.42989 C 350.01204,539.08522 347.55447,541.56599 346.03862,541.28197 C 342.01351,540.52778 340.58108,530.34634 338.76256,528.07475 C 336.94839,525.80859 336.84781,521.77385 338.76256,519.98001 C 341.08558,517.80367 341.30247,512.23867 342.85534,509.32903 C 344.87054,505.55312 346.03862,505.42211 346.03862,500.80824 C 346.03862,496.35723 346.39093,492.90545 348.31239,489.30519 C 349.54895,486.98822 350.40436,484.44795 351.04091,482.06252 C 351.78856,479.26077 351.76802,476.39606 353.31468,473.96777 C 354.87538,471.51745 354.70838,470.53188 356.49796,468.8553 C 358.53317,466.94861 359.50388,466.38215 361.50025,465.44699 C 362.47794,464.98901 363.31926,464.31089 364.22877,463.74283 z"
       id="path8257" />
    <path
       style="fill:none;fill-rule:evenodd;stroke:#000000;stroke-width:1px;stroke-linecap:butt;stroke-linejoin:miter;marker-start:none;marker-mid:none;marker-end:url(#Arrow2Lstart);stroke-opacity:1"
       d="M 374.63973,492.90969 C 337.01155,466.49344 321.35419,470.68634 321.35419,470.68634 L 321.35419,470.68634 L 321.35419,470.68634"
       id="path8259" />
    <text
       xml:space="preserve"
       style="font-size:15px;font-style:normal;font-weight:normal;text-align:start;line-height:125%;writing-mode:lr-tb;text-anchor:start;fill:#000000;fill-opacity:1;stroke:none;stroke-width:1px;stroke-linecap:butt;stroke-linejoin:miter;stroke-opacity:1;font-family:Bitstream Vera Sans"
       x="253.38596"
       y="565.47937"
       id="text8293"
       sodipodi:linespacing="125%"><tspan
         sodipodi:role="line"
         id="tspan8295"
         x="253.38596"
         y="565.47937">G'</tspan></text>
    <text
       xml:space="preserve"
       style="font-size:15px;font-style:normal;font-weight:normal;text-align:start;line-height:125%;writing-mode:lr-tb;text-anchor:start;fill:#000000;fill-opacity:1;stroke:none;stroke-width:1px;stroke-linecap:butt;stroke-linejoin:miter;stroke-opacity:1;font-family:Bitstream Vera Sans"
       x="344.80145"
       y="565.47937"
       id="text8297"
       sodipodi:linespacing="125%"><tspan
         sodipodi:role="line"
         id="tspan8299"
         x="344.80145"
         y="565.47937">G''</tspan></text>
    <text
       xml:space="preserve"
       style="font-size:10px;font-style:normal;font-weight:normal;fill:#000000;fill-opacity:1;stroke:none;stroke-width:1px;stroke-linecap:butt;stroke-linejoin:miter;stroke-opacity:1;font-family:Bitstream Vera Sans"
       x="231.58488"
       y="502.28824"
       id="text2438"><tspan
         sodipodi:role="line"
         id="tspan2440"
         x="231.58488"
         y="502.28824">x'</tspan></text>
    <text
       xml:space="preserve"
       style="font-size:10px;font-style:normal;font-weight:normal;fill:#000000;fill-opacity:1;stroke:none;stroke-width:1px;stroke-linecap:butt;stroke-linejoin:miter;stroke-opacity:1;font-family:Bitstream Vera Sans"
       x="376.84488"
       y="502.28824"
       id="text2442"><tspan
         sodipodi:role="line"
         id="tspan2444"
         x="376.84488"
         y="502.28824">x''</tspan></text>
  </g>
</svg>
