<?xml version="1.0" encoding="UTF-8" standalone="no"?>
<!-- Created with Inkscape (http://www.inkscape.org/) -->

<svg
   xmlns:dc="http://purl.org/dc/elements/1.1/"
   xmlns:cc="http://creativecommons.org/ns#"
   xmlns:rdf="http://www.w3.org/1999/02/22-rdf-syntax-ns#"
   xmlns:svg="http://www.w3.org/2000/svg"
   xmlns="http://www.w3.org/2000/svg"
   xmlns:sodipodi="http://sodipodi.sourceforge.net/DTD/sodipodi-0.dtd"
   xmlns:inkscape="http://www.inkscape.org/namespaces/inkscape"
   width="96.151421"
   height="79.710243"
   id="svg2"
   sodipodi:version="0.32"
   inkscape:version="0.46+devel r21180"
   sodipodi:docname="n_23.svg"
   inkscape:output_extension="org.inkscape.output.svg.inkscape"
   version="1.0">
  <defs
     id="defs4">
    <marker
       inkscape:stockid="Arrow2Mend"
       orient="auto"
       refY="0"
       refX="0"
       id="Arrow2Mend"
       style="overflow:visible">
      <path
         id="path3250"
         style="font-size:12px;fill-rule:evenodd;stroke-width:0.625;stroke-linejoin:round"
         d="M 8.7185878,4.0337352 L -2.2072895,0.016013256 L 8.7185884,-4.0017078 C 6.97309,-1.6296469 6.9831476,1.6157441 8.7185878,4.0337352 z"
         transform="scale(-0.6,-0.6)" />
    </marker>
    <marker
       inkscape:stockid="TriangleInM"
       orient="auto"
       refY="0"
       refX="0"
       id="TriangleInM"
       style="overflow:visible">
      <path
         id="path3322"
         d="M 5.77,0 L -2.88,5 L -2.88,-5 L 5.77,0 z"
         style="fill-rule:evenodd;stroke:#000000;stroke-width:1pt;marker-start:none"
         transform="scale(-0.4,-0.4)" />
    </marker>
    <marker
       inkscape:stockid="TriangleOutM"
       orient="auto"
       refY="0"
       refX="0"
       id="TriangleOutM"
       style="overflow:visible">
      <path
         id="path3331"
         d="M 5.77,0 L -2.88,5 L -2.88,-5 L 5.77,0 z"
         style="fill-rule:evenodd;stroke:#000000;stroke-width:1pt;marker-start:none"
         transform="scale(0.4,0.4)" />
    </marker>
    <inkscape:perspective
       sodipodi:type="inkscape:persp3d"
       inkscape:vp_x="0 : 526.18109 : 1"
       inkscape:vp_y="0 : 1000 : 0"
       inkscape:vp_z="744.09448 : 526.18109 : 1"
       inkscape:persp3d-origin="372.04724 : 350.78739 : 1"
       id="perspective10" />
  </defs>
  <sodipodi:namedview
     id="base"
     pagecolor="#ffffff"
     bordercolor="#666666"
     borderopacity="1.0"
     inkscape:pageopacity="0.0"
     inkscape:pageshadow="2"
     inkscape:zoom="5.6568542"
     inkscape:cx="52.016174"
     inkscape:cy="32.933213"
     inkscape:document-units="px"
     inkscape:current-layer="layer1"
     showgrid="true"
     showguides="true"
     inkscape:window-width="1280"
     inkscape:window-height="728"
     inkscape:window-x="-5"
     inkscape:window-y="20">
    <inkscape:grid
       type="xygrid"
       id="grid2387"
       visible="true"
       enabled="true" />
  </sodipodi:namedview>
  <metadata
     id="metadata7">
    <rdf:RDF>
      <cc:Work
         rdf:about="">
        <dc:format>image/svg+xml</dc:format>
        <dc:type
           rdf:resource="http://purl.org/dc/dcmitype/StillImage" />
      </cc:Work>
    </rdf:RDF>
  </metadata>
  <g
     inkscape:label="Livello 1"
     inkscape:groupmode="layer"
     id="layer1"
     transform="translate(-266.03259,-409.22396)">
    <flowRoot
       xml:space="preserve"
       id="flowRoot4514"
       style="font-size:15px;font-style:normal;font-weight:normal;text-align:start;line-height:125%;writing-mode:lr-tb;text-anchor:start;fill:#000000;fill-opacity:1;stroke:none;stroke-width:1px;stroke-linecap:butt;stroke-linejoin:miter;stroke-opacity:1;font-family:Bitstream Vera Sans"><flowRegion
         id="flowRegion4516"><rect
           id="rect4518"
           width="46.07143"
           height="100.35714"
           x="201.42857"
           y="-28.944611" /></flowRegion><flowPara
         id="flowPara4520" /></flowRoot>    <g
       id="g2423"
       transform="translate(27,-7)">
      <path
         transform="matrix(0.3290575,0,0,0.3290576,206.97611,289.94311)"
         d="m 245.71428,415.21933 c 0,16.56854 -13.43146,30 -30,30 -16.56854,0 -30,-13.43146 -30,-30 0,-16.56854 13.43146,-30 30,-30 16.56854,0 30,13.43146 30,30 z"
         sodipodi:ry="30"
         sodipodi:rx="30"
         sodipodi:cy="415.21933"
         sodipodi:cx="215.71428"
         id="path2383"
         style="fill:none;stroke:#000000;stroke-width:2.90830588;stroke-linecap:square;stroke-miterlimit:4;stroke-opacity:1;stroke-dasharray:8.72491757, 2.90830586;stroke-dashoffset:0"
         sodipodi:type="arc" />
      <text
         sodipodi:linespacing="125%"
         id="text2419"
         y="430.65399"
         x="276.27725"
         style="font-size:15px;font-style:normal;font-weight:normal;text-align:start;line-height:125%;writing-mode:lr-tb;text-anchor:start;fill:#000000;fill-opacity:1;stroke:none;font-family:Bitstream Vera Sans"
         xml:space="preserve"><tspan
           style="font-size:12px"
           y="430.65399"
           x="276.27725"
           id="tspan2421"
           sodipodi:role="line">i</tspan></text>
    </g>
    <path
       sodipodi:type="arc"
       style="fill:none;stroke:#000000;stroke-width:2.90830588;stroke-linecap:square;stroke-miterlimit:4;stroke-opacity:1;stroke-dasharray:8.72491757, 2.90830586;stroke-dashoffset:0"
       id="path2434"
       sodipodi:cx="215.71428"
       sodipodi:cy="415.21933"
       sodipodi:rx="30"
       sodipodi:ry="30"
       d="m 245.71428,415.21933 a 30,30 0 1 1 -60,0 30,30 0 1 1 60,0 z"
       transform="matrix(0.3290575,0,0,0.3290576,205.40041,336.92509)" />
    <path
       sodipodi:type="arc"
       style="fill:none;stroke:#000000;stroke-width:2.90830588;stroke-linecap:square;stroke-miterlimit:4;stroke-opacity:1;stroke-dasharray:8.72491757, 2.90830586;stroke-dashoffset:0"
       id="path2443"
       sodipodi:cx="215.71428"
       sodipodi:cy="415.21933"
       sodipodi:rx="30"
       sodipodi:ry="30"
       d="m 245.71428,415.21933 a 30,30 0 1 1 -60,0 30,30 0 1 1 60,0 z"
       transform="matrix(0.3290575,0,0,0.3290576,262.60151,336.57154)" />
    <path
       style="fill:none;stroke:#000000;stroke-width:1.00604057px;stroke-linecap:butt;stroke-linejoin:miter;stroke-opacity:1;marker-end:none"
       d="m 311.93544,426.89023 c 18.10665,36.66184 17.93582,36.66184 17.93582,36.66184"
       id="path2449" />
    <path
       style="fill:none;stroke:#000000;stroke-width:1.04696608px;stroke-linecap:butt;stroke-linejoin:miter;stroke-opacity:1;marker-end:none"
       d="m 298.05851,427.13176 c -19.67916,36.53252 -19.4935,36.53252 -19.4935,36.53252"
       id="path3766" />
    <path
       inkscape:connector-type="polyline"
       id="path4295"
       d="M 276.03408,457.32884 288.91224,434.3663"
       style="fill:none;stroke:#000000;stroke-width:1px;stroke-linecap:butt;stroke-linejoin:miter;stroke-opacity:1;marker-end:url(#TriangleOutM)" />
    <path
       inkscape:connector-type="polyline"
       id="path4824"
       d="M 297.79188,437.96466 284.91372,460.9272"
       style="fill:none;stroke:#000000;stroke-width:1px;stroke-linecap:butt;stroke-linejoin:miter;stroke-opacity:1;marker-end:url(#TriangleOutM)" />
    <text
       sodipodi:linespacing="125%"
       id="text4826"
       y="444.31705"
       x="272.58392"
       style="font-size:15px;font-style:normal;font-weight:normal;text-align:start;line-height:125%;writing-mode:lr-tb;text-anchor:start;fill:#000000;fill-opacity:1;stroke:none;font-family:Bitstream Vera Sans"
       xml:space="preserve"><tspan
         style="font-size:10px"
         y="444.31705"
         x="272.58392"
         id="tspan4828"
         sodipodi:role="line">SI</tspan></text>
    <text
       sodipodi:linespacing="125%"
       id="text4830"
       y="457.14957"
       x="290.99625"
       style="font-size:15px;font-style:normal;font-weight:normal;text-align:start;line-height:125%;writing-mode:lr-tb;text-anchor:start;fill:#000000;fill-opacity:1;stroke:none;font-family:Bitstream Vera Sans"
       xml:space="preserve"><tspan
         style="font-size:10px"
         y="457.14957"
         x="290.99625"
         id="tspan4832"
         sodipodi:role="line">Q</tspan></text>
    <text
       sodipodi:linespacing="125%"
       id="text4856"
       y="446.14603"
       x="327.78723"
       style="font-size:15px;font-style:normal;font-weight:normal;text-align:start;line-height:125%;writing-mode:lr-tb;text-anchor:start;fill:#000000;fill-opacity:1;stroke:none;font-family:Bitstream Vera Sans"
       xml:space="preserve"><tspan
         style="font-size:10px"
         y="446.14603"
         x="327.78723"
         id="tspan4858"
         sodipodi:role="line">Q</tspan></text>
    <text
       sodipodi:linespacing="125%"
       id="text4860"
       y="456.92938"
       x="310.57404"
       style="font-size:15px;font-style:normal;font-weight:normal;text-align:start;line-height:125%;writing-mode:lr-tb;text-anchor:start;fill:#000000;fill-opacity:1;stroke:none;font-family:Bitstream Vera Sans"
       xml:space="preserve"><tspan
         style="font-size:10px"
         y="456.92938"
         x="310.57404"
         id="tspan4862"
         sodipodi:role="line">Q</tspan></text>
    <text
       sodipodi:linespacing="125%"
       id="text5930"
       y="488.7926"
       x="349.56479"
       style="font-size:15px;font-style:normal;font-weight:normal;text-align:start;line-height:125%;writing-mode:lr-tb;text-anchor:start;fill:#000000;fill-opacity:1;stroke:none;font-family:Bitstream Vera Sans"
       xml:space="preserve"><tspan
         style="font-size:10px"
         y="488.7926"
         x="349.56479"
         id="tspan5932"
         sodipodi:role="line">SI</tspan></text>
    <text
       sodipodi:linespacing="125%"
       id="text5934"
       y="457.28293"
       x="346.05069"
       style="font-size:15px;font-style:normal;font-weight:normal;text-align:start;line-height:125%;writing-mode:lr-tb;text-anchor:start;fill:#000000;fill-opacity:1;stroke:none;font-family:Bitstream Vera Sans"
       xml:space="preserve"><tspan
         style="font-size:10px"
         y="457.28293"
         x="346.05069"
         id="tspan5936"
         sodipodi:role="line">Q</tspan></text>
    <path
       style="fill:none;stroke:#000000;stroke-width:1px;stroke-linecap:butt;stroke-linejoin:miter;stroke-opacity:1;marker-end:url(#TriangleOutM)"
       d="M 332.57962,457.75689 320.75924,434.23235"
       id="path4844"
       inkscape:connector-type="polyline" />
    <path
       style="fill:none;stroke:#000000;stroke-width:1px;stroke-linecap:butt;stroke-linejoin:miter;stroke-opacity:1;marker-end:url(#TriangleOutM)"
       d="m 311.72926,437.24115 11.82038,23.52454"
       id="path4846"
       inkscape:connector-type="polyline" />
    <path
       style="fill:none;stroke:#000000;stroke-width:1px;stroke-linecap:butt;stroke-linejoin:miter;stroke-opacity:1;marker-start:url(#TriangleInM)"
       d="m 344.32208,467.43374 c 0.0722,-0.16063 0.68659,-0.55035 1.07779,-0.80391 0.45705,-0.29624 0.79264,-0.41994 0.89417,-0.89555 0.13127,-0.61491 -0.41503,-0.81215 0.0165,-1.27465 0.19182,-0.2056 1.45023,0.56143 1.63314,0.7321 0.41681,0.38886 0.65874,0.61274 1.04802,0.47936 0.38173,-0.1308 -0.31789,-1.30299 -0.44641,-1.50128 -0.25958,-0.4005 -0.0744,-0.84912 -0.01,-1.15241 0.13776,-0.64533 0.55059,-0.4753 1.08359,-0.28101 0.29887,0.10895 0.67855,0.5764 0.96848,0.84691 0.48214,0.44981 0.62683,0.47834 1.07824,0.0385 0.43603,-0.4249 0.11426,-0.96129 -0.15384,-1.37492 -0.33301,-0.51378 -0.45866,-0.76987 -0.22801,-1.32684 0.17424,-0.42079 0.92498,-0.70013 1.30898,-0.74309 0.70382,-0.0788 0.96766,0.31644 1.43672,0.75407 0.51161,0.47731 0.37259,0.95269 1.09197,0.87219 0.62427,-0.0698 0.12942,-1.07731 -0.005,-1.47106 -0.19059,-0.55625 -0.66236,-0.94295 -0.717,-1.43123 -0.0574,-0.51296 0.12332,-0.83791 0.33514,-1.27053 0.21682,-0.44285 1.85519,1.07467 2.06581,1.39963 0.36232,0.559 0.60775,0.96055 1.11395,1.06861 0.64949,0.13865 0.84603,-0.25945 0.7939,-0.72523 -0.0505,-0.45172 -0.3715,-0.8982 -0.62084,-1.28289 -0.0684,-0.10561 -0.0708,-0.35941 -0.092,-0.46701"
       id="path5399" />
    <path
       style="fill:none;stroke:#000000;stroke-width:1px;stroke-linecap:butt;stroke-linejoin:miter;stroke-opacity:1;marker-start:url(#TriangleInM)"
       d="m 359.85281,479.20281 c -0.1588,0.0761 -0.87964,-0.0226 -1.34212,-0.0813 -0.54032,-0.0686 -0.87651,-0.19068 -1.26097,0.10715 -0.49709,0.38505 -0.20702,0.88824 -0.83511,0.96312 -0.27922,0.0333 -0.74561,-1.36471 -0.77522,-1.61312 -0.0675,-0.56603 -0.10784,-0.89317 -0.49129,-1.04247 -0.37603,-0.14641 -0.59796,1.20053 -0.62773,1.43495 -0.0601,0.47346 -0.49111,0.69666 -0.73628,0.88657 -0.52167,0.40411 -0.72732,0.008 -1.00913,-0.48454 -0.15802,-0.27609 -0.14643,-0.8782 -0.19337,-1.27194 -0.0781,-0.65474 -0.17019,-0.7699 -0.7989,-0.72515 -0.60727,0.0432 -0.70759,0.66064 -0.76969,1.14964 -0.0771,0.60738 -0.1464,0.8841 -0.682,1.16076 -0.40464,0.20902 -1.15842,-0.062 -1.47949,-0.27699 -0.5885,-0.39401 -0.53504,-0.86617 -0.61098,-1.50317 -0.0828,-0.69477 0.33012,-0.96821 -0.27139,-1.37093 -0.52198,-0.34947 -0.79404,0.73949 -0.94506,1.12736 -0.21334,0.54791 -0.10247,1.14776 -0.37581,1.55604 -0.28715,0.4289 -0.6349,0.56053 -1.07588,0.75434 -0.4514,0.1984 -0.72378,-2.01811 -0.675,-2.40228 0.0839,-0.66084 0.15555,-1.12596 -0.16143,-1.53517 -0.4067,-0.52502 -0.81373,-0.34771 -1.07448,0.0417 -0.25287,0.37769 -0.29578,0.9259 -0.35354,1.38067 -0.0159,0.12486 -0.17781,0.32028 -0.23105,0.41615"
       id="path5928" />
  </g>
</svg>
