<?xml version="1.0" encoding="UTF-8" standalone="no"?>
<!-- Created with Inkscape (http://www.inkscape.org/) -->

<svg
   xmlns:dc="http://purl.org/dc/elements/1.1/"
   xmlns:cc="http://creativecommons.org/ns#"
   xmlns:rdf="http://www.w3.org/1999/02/22-rdf-syntax-ns#"
   xmlns:svg="http://www.w3.org/2000/svg"
   xmlns="http://www.w3.org/2000/svg"
   xmlns:sodipodi="http://sodipodi.sourceforge.net/DTD/sodipodi-0.dtd"
   xmlns:inkscape="http://www.inkscape.org/namespaces/inkscape"
   width="509.55569"
   height="535.15527"
   id="svg2"
   sodipodi:version="0.32"
   inkscape:version="0.46+devel r21180"
   version="1.0"
   sodipodi:docname="n_25.svg"
   inkscape:output_extension="org.inkscape.output.svg.inkscape">
  <defs
     id="defs4">
    <inkscape:perspective
       sodipodi:type="inkscape:persp3d"
       inkscape:vp_x="0 : 526.18109 : 1"
       inkscape:vp_y="0 : 1000 : 0"
       inkscape:vp_z="744.09448 : 526.18109 : 1"
       inkscape:persp3d-origin="372.04724 : 350.78739 : 1"
       id="perspective10" />
  </defs>
  <sodipodi:namedview
     id="base"
     pagecolor="#ffffff"
     bordercolor="#666666"
     borderopacity="1.0"
     inkscape:pageopacity="0.0"
     inkscape:pageshadow="2"
     inkscape:zoom="1.979899"
     inkscape:cx="199.45724"
     inkscape:cy="439.62809"
     inkscape:document-units="px"
     inkscape:current-layer="layer1"
     showgrid="false"
     inkscape:window-width="1280"
     inkscape:window-height="728"
     inkscape:window-x="-5"
     inkscape:window-y="20" />
  <metadata
     id="metadata7">
    <rdf:RDF>
      <cc:Work
         rdf:about="">
        <dc:format>image/svg+xml</dc:format>
        <dc:type
           rdf:resource="http://purl.org/dc/dcmitype/StillImage" />
      </cc:Work>
    </rdf:RDF>
  </metadata>
  <g
     inkscape:label="Livello 1"
     inkscape:groupmode="layer"
     id="layer1"
     transform="translate(-142.94648,-308.88005)">
    <g
       id="g3213">
      <path
         transform="translate(-123.57137,123.92856)"
         d="m 337.14285,355.93362 c 0,19.32997 -15.67003,35 -35,35 -19.32996,0 -35,-15.67003 -35,-35 0,-19.32996 15.67004,-35 35,-35 19.32997,0 35,15.67004 35,35 z"
         sodipodi:ry="35"
         sodipodi:rx="35"
         sodipodi:cy="355.93362"
         sodipodi:cx="302.14285"
         id="path2385"
         style="fill:none;stroke:#000000;stroke-width:1.25;stroke-miterlimit:4;stroke-dasharray:none;stroke-dashoffset:0;stroke-opacity:1"
         sodipodi:type="arc" />
      <path
         transform="translate(156.2383,123.92856)"
         d="m 337.14285,355.93362 c 0,19.32997 -15.67003,35 -35,35 -19.32996,0 -35,-15.67003 -35,-35 0,-19.32996 15.67004,-35 35,-35 19.32997,0 35,15.67004 35,35 z"
         sodipodi:ry="35"
         sodipodi:rx="35"
         sodipodi:cy="355.93362"
         sodipodi:cx="302.14285"
         id="path2387"
         style="fill:none;stroke:#000000;stroke-width:1.25;stroke-miterlimit:4;stroke-dasharray:none;stroke-dashoffset:0;stroke-opacity:1"
         sodipodi:type="arc" />
      <path
         transform="translate(15.71434,-11.428571)"
         d="m 337.14285,355.93362 c 0,19.32997 -15.67003,35 -35,35 -19.32996,0 -35,-15.67003 -35,-35 0,-19.32996 15.67004,-35 35,-35 19.32997,0 35,15.67004 35,35 z"
         sodipodi:ry="35"
         sodipodi:rx="35"
         sodipodi:cy="355.93362"
         sodipodi:cx="302.14285"
         id="path2383"
         style="fill:none;stroke:#000000;stroke-width:1.25;stroke-miterlimit:4;stroke-dasharray:none;stroke-dashoffset:0;stroke-opacity:1"
         sodipodi:type="arc" />
      <path
         transform="translate(14.874617,259.2857)"
         d="m 337.14285,355.93362 c 0,19.32997 -15.67003,35 -35,35 -19.32996,0 -35,-15.67003 -35,-35 0,-19.32996 15.67004,-35 35,-35 19.32997,0 35,15.67004 35,35 z"
         sodipodi:ry="35"
         sodipodi:rx="35"
         sodipodi:cy="355.93362"
         sodipodi:cx="302.14285"
         id="path2389"
         style="fill:none;stroke:#000000;stroke-width:1.25;stroke-miterlimit:4;stroke-dasharray:none;stroke-dashoffset:0;stroke-opacity:1"
         sodipodi:type="arc" />
      <path
         inkscape:connector-type="polyline"
         id="path2405"
         d="M 204.91161,456.13397 L 292.58838,369.48325"
         style="fill:none;fill-rule:evenodd;stroke:#000000;stroke-width:1.25;stroke-linecap:butt;stroke-linejoin:miter;stroke-miterlimit:4;stroke-dasharray:none;stroke-opacity:1" />
      <path
         inkscape:connector-type="polyline"
         id="path2407"
         d="M 343.02571,369.5244 L 433.23816,455.22942"
         style="fill:none;fill-rule:evenodd;stroke:#000000;stroke-width:1.25;stroke-linecap:butt;stroke-linejoin:miter;stroke-miterlimit:4;stroke-dasharray:none;stroke-opacity:1" />
      <path
         inkscape:connector-type="polyline"
         id="path2409"
         d="M 203.33819,504.8868 L 292.08023,591.70993"
         style="fill:none;fill-rule:evenodd;stroke:#000000;stroke-width:1.25;stroke-linecap:butt;stroke-linejoin:miter;stroke-miterlimit:4;stroke-dasharray:none;stroke-opacity:1" />
      <path
         transform="translate(14.874616,452.47672)"
         d="m 337.14285,355.93362 c 0,19.32997 -15.67003,35 -35,35 -19.32996,0 -35,-15.67003 -35,-35 0,-19.32996 15.67004,-35 35,-35 19.32997,0 35,15.67004 35,35 z"
         sodipodi:ry="35"
         sodipodi:rx="35"
         sodipodi:cy="355.93362"
         sodipodi:cx="302.14285"
         id="path2413"
         style="fill:none;stroke:#000000;stroke-width:1.25;stroke-miterlimit:4;stroke-dasharray:none;stroke-dashoffset:0;stroke-opacity:1"
         sodipodi:type="arc" />
      <path
         transform="translate(156.2383,350.9564)"
         d="m 337.14285,355.93362 c 0,19.32997 -15.67003,35 -35,35 -19.32996,0 -35,-15.67003 -35,-35 0,-19.32996 15.67004,-35 35,-35 19.32997,0 35,15.67004 35,35 z"
         sodipodi:ry="35"
         sodipodi:rx="35"
         sodipodi:cy="355.93362"
         sodipodi:cx="302.14285"
         id="path2415"
         style="fill:none;stroke:#000000;stroke-width:1.25;stroke-miterlimit:4;stroke-dasharray:none;stroke-dashoffset:0;stroke-opacity:1"
         sodipodi:type="arc" />
      <text
         id="text2417"
         y="355.44257"
         x="306.02124"
         style="font-size:40px;font-style:normal;font-weight:normal;fill:#000000;fill-opacity:1;stroke:none;stroke-width:1px;stroke-linecap:butt;stroke-linejoin:miter;stroke-opacity:1;font-family:Bitstream Vera Sans"
         xml:space="preserve"><tspan
           y="355.44257"
           x="306.02124"
           id="tspan2419"
           sodipodi:role="line">v</tspan></text>
      <path
         inkscape:connection-end="#path2413"
         inkscape:connection-start="#path2389"
         inkscape:connector-type="polyline"
         id="path2421"
         d="M 317.01747,650.84432 L 317.01747,772.78534"
         style="fill:none;fill-rule:evenodd;stroke:#000000;stroke-width:1.25;stroke-linecap:butt;stroke-linejoin:miter;stroke-miterlimit:4;stroke-dasharray:none;stroke-opacity:1" />
      <path
         inkscape:connector-type="polyline"
         id="path2423"
         d="M 345.20695,786.98556 L 430.14457,728.27528"
         style="fill:none;fill-rule:evenodd;stroke:#000000;stroke-width:1.25;stroke-linecap:butt;stroke-linejoin:miter;stroke-miterlimit:4;stroke-dasharray:none;stroke-opacity:1" />
      <path
         inkscape:connection-end="#path2415"
         inkscape:connection-start="#path2387"
         inkscape:connector-type="polyline"
         id="path2425"
         d="M 458.38115,515.48718 L 458.38115,671.26502"
         style="fill:none;fill-rule:evenodd;stroke:#000000;stroke-width:1.25;stroke-linecap:butt;stroke-linejoin:miter;stroke-miterlimit:4;stroke-dasharray:none;stroke-opacity:1" />
      <path
         transform="translate(314.73431,452.47672)"
         d="m 337.14285,355.93362 c 0,19.32997 -15.67003,35 -35,35 -19.32996,0 -35,-15.67003 -35,-35 0,-19.32996 15.67004,-35 35,-35 19.32997,0 35,15.67004 35,35 z"
         sodipodi:ry="35"
         sodipodi:rx="35"
         sodipodi:cy="355.93362"
         sodipodi:cx="302.14285"
         id="path2427"
         style="fill:none;stroke:#000000;stroke-width:1.25;stroke-miterlimit:4;stroke-dasharray:none;stroke-dashoffset:0;stroke-opacity:1"
         sodipodi:type="arc" />
      <path
         inkscape:connector-type="polyline"
         id="path2429"
         d="M 586.80259,790.01714 L 487.75584,726.67222"
         style="fill:none;fill-rule:evenodd;stroke:#000000;stroke-width:1.25;stroke-linecap:butt;stroke-linejoin:miter;stroke-miterlimit:4;stroke-dasharray:none;stroke-opacity:1" />
      <path
         transform="translate(314.73432,236.42856)"
         d="m 337.14285,355.93362 c 0,19.32997 -15.67003,35 -35,35 -19.32996,0 -35,-15.67003 -35,-35 0,-19.32996 15.67004,-35 35,-35 19.32997,0 35,15.67004 35,35 z"
         sodipodi:ry="35"
         sodipodi:rx="35"
         sodipodi:cy="355.93362"
         sodipodi:cx="302.14285"
         id="path2431"
         style="fill:none;stroke:#000000;stroke-width:1.25;stroke-miterlimit:4;stroke-dasharray:none;stroke-dashoffset:0;stroke-opacity:1"
         sodipodi:type="arc" />
      <path
         transform="translate(314.73432,-3.5714458)"
         d="m 337.14285,355.93362 c 0,19.32997 -15.67003,35 -35,35 -19.32996,0 -35,-15.67003 -35,-35 0,-19.32996 15.67004,-35 35,-35 19.32997,0 35,15.67004 35,35 z"
         sodipodi:ry="35"
         sodipodi:rx="35"
         sodipodi:cy="355.93362"
         sodipodi:cx="302.14285"
         id="path2433"
         style="fill:none;stroke:#000000;stroke-width:1.25;stroke-miterlimit:4;stroke-dasharray:none;stroke-dashoffset:0;stroke-opacity:1"
         sodipodi:type="arc" />
      <path
         inkscape:connection-end="#path2427"
         inkscape:connection-start="#path2431"
         inkscape:connector-type="polyline"
         id="path2435"
         d="M 616.87717,627.98718 L 616.87717,772.78534"
         style="fill:none;fill-rule:evenodd;stroke:#000000;stroke-width:1.25;stroke-linecap:butt;stroke-linejoin:miter;stroke-miterlimit:4;stroke-dasharray:none;stroke-opacity:1" />
      <path
         inkscape:connection-end="#path2431"
         inkscape:connection-start="#path2433"
         inkscape:connector-type="polyline"
         id="path2437"
         d="M 616.87717,387.98718 L 616.87717,556.73718"
         style="fill:none;fill-rule:evenodd;stroke:#000000;stroke-width:1.25;stroke-linecap:butt;stroke-linejoin:miter;stroke-miterlimit:4;stroke-dasharray:none;stroke-opacity:1" />
      <path
         inkscape:connector-type="polyline"
         id="path2439"
         d="M 486.93508,500.60301 L 588.48432,571.36138"
         style="fill:none;fill-rule:evenodd;stroke:#000000;stroke-width:1.25;stroke-linecap:butt;stroke-linejoin:miter;stroke-miterlimit:4;stroke-dasharray:none;stroke-opacity:1" />
      <path
         inkscape:connector-type="polyline"
         id="path2441"
         d="M 486.30372,458.21207 L 588.395,373.34166"
         style="fill:none;fill-rule:evenodd;stroke:#000000;stroke-width:1.25;stroke-linecap:butt;stroke-linejoin:miter;stroke-miterlimit:4;stroke-dasharray:none;stroke-opacity:1" />
    </g>
    <text
       xml:space="preserve"
       style="font-size:20px;font-style:normal;font-variant:normal;font-weight:normal;font-stretch:normal;fill:#000000;fill-opacity:1;stroke:none;font-family:Bitstream Vera Serif;-inkscape-font-specification:Bitstream Vera Serif"
       x="260.12418"
       y="368.25348"
       id="text2835"><tspan
         sodipodi:role="line"
         id="tspan2837"
         x="260.12418"
         y="368.25348">1</tspan></text>
    <text
       xml:space="preserve"
       style="font-size:20px;font-style:normal;font-variant:normal;font-weight:normal;font-stretch:normal;fill:#000000;fill-opacity:1;stroke:none;font-family:Bitstream Vera Serif;-inkscape-font-specification:Bitstream Vera Serif"
       x="367.70541"
       y="370.77887"
       id="text2839"><tspan
         sodipodi:role="line"
         id="tspan2841"
         x="367.70541"
         y="370.77887">2</tspan></text>
  </g>
</svg>
