<?xml version="1.0" encoding="UTF-8" standalone="no"?>
<!-- Created with Inkscape (http://www.inkscape.org/) -->

<svg
   xmlns:dc="http://purl.org/dc/elements/1.1/"
   xmlns:cc="http://creativecommons.org/ns#"
   xmlns:rdf="http://www.w3.org/1999/02/22-rdf-syntax-ns#"
   xmlns:svg="http://www.w3.org/2000/svg"
   xmlns="http://www.w3.org/2000/svg"
   xmlns:sodipodi="http://sodipodi.sourceforge.net/DTD/sodipodi-0.dtd"
   xmlns:inkscape="http://www.inkscape.org/namespaces/inkscape"
   width="249.67072"
   height="85.955261"
   id="svg2"
   sodipodi:version="0.32"
   inkscape:version="0.46+devel r21180"
   sodipodi:docname="n_27.svg"
   inkscape:output_extension="org.inkscape.output.svg.inkscape"
   version="1.0">
  <defs
     id="defs4">
    <marker
       inkscape:stockid="TriangleOutM"
       orient="auto"
       refY="0"
       refX="0"
       id="TriangleOutM"
       style="overflow:visible">
      <path
         id="path3845"
         d="m 5.77,0 -8.65,5 0,-10 8.65,5 z"
         style="fill-rule:evenodd;stroke:#000000;stroke-width:1pt;marker-start:none"
         transform="scale(0.4,0.4)" />
    </marker>
    <marker
       inkscape:stockid="Arrow2Mend"
       orient="auto"
       refY="0"
       refX="0"
       id="Arrow2Mend"
       style="overflow:visible">
      <path
         id="path3726"
         style="font-size:12px;fill-rule:evenodd;stroke-width:0.625;stroke-linejoin:round"
         d="M 8.7185878,4.0337352 -2.2072895,0.01601326 8.7185884,-4.0017078 c -1.7454984,2.3720609 -1.7354408,5.6174519 -6e-7,8.035443 z"
         transform="scale(-0.6,-0.6)" />
    </marker>
    <inkscape:perspective
       sodipodi:type="inkscape:persp3d"
       inkscape:vp_x="0 : 526.18109 : 1"
       inkscape:vp_y="0 : 1000 : 0"
       inkscape:vp_z="744.09448 : 526.18109 : 1"
       inkscape:persp3d-origin="372.04724 : 350.78739 : 1"
       id="perspective10" />
    <inkscape:perspective
       id="perspective2839"
       inkscape:persp3d-origin="0.5 : 0.33333333 : 1"
       inkscape:vp_z="1 : 0.5 : 1"
       inkscape:vp_y="0 : 1000 : 0"
       inkscape:vp_x="0 : 0.5 : 1"
       sodipodi:type="inkscape:persp3d" />
  </defs>
  <sodipodi:namedview
     id="base"
     pagecolor="#ffffff"
     bordercolor="#666666"
     borderopacity="1.0"
     inkscape:pageopacity="0.0"
     inkscape:pageshadow="2"
     inkscape:zoom="1.979899"
     inkscape:cx="13.274253"
     inkscape:cy="17.850129"
     inkscape:document-units="px"
     inkscape:current-layer="layer1"
     showgrid="false"
     showguides="true"
     inkscape:guide-bbox="true"
     inkscape:window-width="1280"
     inkscape:window-height="728"
     inkscape:window-x="-5"
     inkscape:window-y="20" />
  <metadata
     id="metadata7">
    <rdf:RDF>
      <cc:Work
         rdf:about="">
        <dc:format>image/svg+xml</dc:format>
        <dc:type
           rdf:resource="http://purl.org/dc/dcmitype/StillImage" />
      </cc:Work>
    </rdf:RDF>
  </metadata>
  <g
     inkscape:label="Livello 1"
     inkscape:groupmode="layer"
     id="layer1"
     transform="translate(-122.68743,-498.8479)">
    <g
       id="g3169">
      <path
         transform="matrix(0.6464466,0,0,0.6464466,69.999999,191.29066)"
         d="m 228.29448,538.19452 c 0,16.73675 -13.56783,30.30458 -30.30458,30.30458 -16.73676,0 -30.30458,-13.56783 -30.30458,-30.30458 0,-16.73676 13.56782,-30.30458 30.30458,-30.30458 16.73675,0 30.30458,13.56782 30.30458,30.30458 z"
         sodipodi:ry="30.304577"
         sodipodi:rx="30.304577"
         sodipodi:cy="538.19452"
         sodipodi:cx="197.9899"
         id="path2383"
         style="fill:none;stroke:#000000;stroke-width:1.93364763;stroke-miterlimit:4;stroke-opacity:1;stroke-dasharray:none;stroke-dashoffset:0"
         sodipodi:type="arc" />
      <text
         id="text3159"
         y="544.66364"
         x="192.16959"
         style="font-size:20px;font-style:normal;font-weight:normal;fill:#000000;fill-opacity:1;stroke:none;font-family:Bitstream Vera Sans"
         xml:space="preserve"><tspan
           y="544.66364"
           x="192.16959"
           id="tspan3161"
           sodipodi:role="line">a</tspan></text>
    </g>
    <g
       id="g3174"
       transform="translate(-138.57143,0.7142857)">
      <text
         id="text3163"
         y="546.66071"
         x="484.00531"
         style="font-size:20px;font-style:normal;font-weight:normal;fill:#000000;fill-opacity:1;stroke:none;font-family:Bitstream Vera Sans"
         xml:space="preserve"><tspan
           y="546.66071"
           x="484.00531"
           id="tspan3165"
           sodipodi:role="line">b</tspan></text>
      <path
         transform="matrix(0.6464466,0,0,0.6464466,362.72439,190.87674)"
         d="m 228.29448,538.19452 c 0,16.73675 -13.56783,30.30458 -30.30458,30.30458 -16.73676,0 -30.30458,-13.56783 -30.30458,-30.30458 0,-16.73676 13.56782,-30.30458 30.30458,-30.30458 16.73675,0 30.30458,13.56782 30.30458,30.30458 z"
         sodipodi:ry="30.304577"
         sodipodi:rx="30.304577"
         sodipodi:cy="538.19452"
         sodipodi:cx="197.9899"
         id="path3167"
         style="fill:none;stroke:#000000;stroke-width:1.93364763;stroke-miterlimit:4;stroke-opacity:1;stroke-dasharray:none;stroke-dashoffset:0"
         sodipodi:type="arc" />
    </g>
    <path
       style="fill:none;stroke:#000000;stroke-width:0.99999994px;stroke-linecap:butt;stroke-linejoin:miter;stroke-opacity:1;marker-end:url(#TriangleOutM)"
       d="m 218.20518,539.24407 111.02484,0.22158"
       id="path3179"
       inkscape:connector-type="polyline" />
    <text
       xml:space="preserve"
       style="font-size:20px;font-style:normal;font-weight:normal;fill:#000000;fill-opacity:1;stroke:none;font-family:Bitstream Vera Sans"
       x="221.07144"
       y="532.36218"
       id="text3181"><tspan
         sodipodi:role="line"
         id="tspan3183"
         x="221.07144"
         y="532.36218">1</tspan></text>
    <path
       style="fill:none;stroke:#000000;stroke-width:1px;stroke-linecap:butt;stroke-linejoin:miter;stroke-opacity:1;marker-end:url(#TriangleOutM)"
       d="m 149.59847,511.37233 c 0.67084,-0.85338 2.48095,-3.69024 3.72953,-5.2786 2.07355,-2.63782 2.42523,-0.74204 2.52481,1.41736 0.0776,1.68317 -0.87758,3.62045 -1.26288,5.4346 -0.4949,2.3303 -0.24733,2.31857 1.28164,3.1769 0.4308,0.24184 3.83105,-4.0582 4.33157,-4.53106 1.71755,-1.62267 1.96757,-2.18133 3.18534,-0.66926 0.5501,0.68304 -0.70779,4.71598 -1.04928,5.96408 -0.60568,2.21373 1.94406,1.92636 2.93264,2.05587 0.87745,0.11496 3.24493,-3.50538 3.76831,-4.4377 1.08325,-1.92964 2.74054,0.0902 3.06868,0.90354 0.38881,0.96378 -0.34757,2.14829 -0.91323,4.81175 -0.39478,1.85884 0.76544,3.19657 1.51464,4.12683 0.45057,0.55947 3.04942,-1.37851 3.5156,-1.71257 1.86426,-1.33588 1.96877,-1.35219 3.57376,-0.45119 0.51248,0.28769 0.99085,0.9658 1.57313,1.29267"
       id="path4478" />
    <text
       xml:space="preserve"
       style="font-size:20px;font-style:normal;font-weight:normal;fill:#000000;fill-opacity:1;stroke:none;font-family:Bitstream Vera Sans"
       x="122.22845"
       y="578.60065"
       id="text5023"><tspan
         sodipodi:role="line"
         id="tspan5025"
         x="122.22845"
         y="578.60065"
         dy="0 0 0 0 0 0 0 6.0609155 -6.0609155">f(s,i,d<tspan
   style="font-size:10px"
   id="tspan5027">a</tspan>) = (N,1)</tspan></text>
    <text
       xml:space="preserve"
       style="font-size:20px;font-style:normal;font-weight:normal;fill:#000000;fill-opacity:1;stroke:none;font-family:Bitstream Vera Sans"
       x="177.97574"
       y="514.04321"
       id="text5023-6"><tspan
         sodipodi:role="line"
         id="tspan5025-8"
         x="177.97574"
         y="514.04321"
         dy="0">i</tspan></text>
  </g>
</svg>
