<?xml version="1.0" encoding="UTF-8" standalone="no"?>
<!-- Created with Inkscape (http://www.inkscape.org/) -->
<svg
   xmlns:dc="http://purl.org/dc/elements/1.1/"
   xmlns:cc="http://creativecommons.org/ns#"
   xmlns:rdf="http://www.w3.org/1999/02/22-rdf-syntax-ns#"
   xmlns:svg="http://www.w3.org/2000/svg"
   xmlns="http://www.w3.org/2000/svg"
   xmlns:sodipodi="http://sodipodi.sourceforge.net/DTD/sodipodi-0.dtd"
   xmlns:inkscape="http://www.inkscape.org/namespaces/inkscape"
   width="460.8884"
   height="341.57397"
   id="svg2"
   sodipodi:version="0.32"
   inkscape:version="0.46"
   sodipodi:docname="robot4.svg"
   inkscape:output_extension="org.inkscape.output.svg.inkscape"
   version="1.0">
  <defs
     id="defs4">
    <marker
       inkscape:stockid="TriangleOutM"
       orient="auto"
       refY="0"
       refX="0"
       id="TriangleOutM"
       style="overflow:visible">
      <path
         id="path3845"
         d="M 5.77,0 L -2.88,5 L -2.88,-5 L 5.77,0 z"
         style="fill-rule:evenodd;stroke:#000000;stroke-width:1pt;marker-start:none"
         transform="scale(0.4,0.4)" />
    </marker>
    <marker
       inkscape:stockid="Arrow2Mend"
       orient="auto"
       refY="0"
       refX="0"
       id="Arrow2Mend"
       style="overflow:visible">
      <path
         id="path3726"
         style="font-size:12px;fill-rule:evenodd;stroke-width:0.625;stroke-linejoin:round"
         d="M 8.7185878,4.0337352 L -2.2072895,0.016013256 L 8.7185884,-4.0017078 C 6.97309,-1.6296469 6.9831476,1.6157441 8.7185878,4.0337352 z"
         transform="scale(-0.6,-0.6)" />
    </marker>
    <inkscape:perspective
       sodipodi:type="inkscape:persp3d"
       inkscape:vp_x="0 : 526.18109 : 1"
       inkscape:vp_y="0 : 1000 : 0"
       inkscape:vp_z="744.09448 : 526.18109 : 1"
       inkscape:persp3d-origin="372.04724 : 350.78739 : 1"
       id="perspective10" />
  </defs>
  <sodipodi:namedview
     id="base"
     pagecolor="#ffffff"
     bordercolor="#666666"
     borderopacity="1.0"
     inkscape:pageopacity="0.0"
     inkscape:pageshadow="2"
     inkscape:zoom="1.4"
     inkscape:cx="172.0989"
     inkscape:cy="69.806062"
     inkscape:document-units="px"
     inkscape:current-layer="layer1"
     showgrid="false"
     showguides="true"
     inkscape:guide-bbox="true"
     inkscape:window-width="1270"
     inkscape:window-height="768"
     inkscape:window-x="0"
     inkscape:window-y="0" />
  <metadata
     id="metadata7">
    <rdf:RDF>
      <cc:Work
         rdf:about="">
        <dc:format>image/svg+xml</dc:format>
        <dc:type
           rdf:resource="http://purl.org/dc/dcmitype/StillImage" />
      </cc:Work>
    </rdf:RDF>
  </metadata>
  <g
     inkscape:label="Livello 1"
     inkscape:groupmode="layer"
     id="layer1"
     transform="translate(-150.26402,-376.51238)">
    <path
       sodipodi:type="arc"
       style="fill:none;stroke:#000000;stroke-width:1.93364775;stroke-miterlimit:4;stroke-dasharray:none;stroke-dashoffset:0;stroke-opacity:1"
       id="path3167"
       sodipodi:cx="197.9899"
       sodipodi:cy="538.19452"
       sodipodi:rx="30.304577"
       sodipodi:ry="30.304577"
       d="M 228.29448,538.19452 A 30.304577,30.304577 0 1 1 167.68532,538.19452 A 30.304577,30.304577 0 1 1 228.29448,538.19452 z"
       transform="matrix(0.6464466,0,0,0.6464466,166.57427,186.82268)" />
    <path
       style="fill:none;fill-rule:evenodd;stroke:#000000;stroke-width:1.25;stroke-linecap:butt;stroke-linejoin:miter;stroke-miterlimit:4;stroke-dasharray:none;stroke-opacity:1"
       d="M 396.15696,534.7367 C 396.15696,534.7367 396.15696,534.7367 396.15696,534.7367 z"
       id="path3716" />
    <path
       sodipodi:type="arc"
       style="fill:none;stroke:#000000;stroke-width:1.93364775;stroke-miterlimit:4;stroke-dasharray:none;stroke-dashoffset:0;stroke-opacity:1"
       id="path2401"
       sodipodi:cx="197.9899"
       sodipodi:cy="538.19452"
       sodipodi:rx="30.304577"
       sodipodi:ry="30.304577"
       d="M 228.29448,538.19452 A 30.304577,30.304577 0 1 1 167.68532,538.19452 A 30.304577,30.304577 0 1 1 228.29448,538.19452 z"
       transform="matrix(0.6464466,0,0,0.6464466,78.822225,119.42486)" />
    <path
       sodipodi:type="arc"
       style="fill:none;stroke:#000000;stroke-width:1.93364775;stroke-miterlimit:4;stroke-dasharray:none;stroke-dashoffset:0;stroke-opacity:1"
       id="path2403"
       sodipodi:cx="197.9899"
       sodipodi:cy="538.19452"
       sodipodi:rx="30.304577"
       sodipodi:ry="30.304577"
       d="M 228.29448,538.19452 A 30.304577,30.304577 0 1 1 167.68532,538.19452 A 30.304577,30.304577 0 1 1 228.29448,538.19452 z"
       transform="matrix(0.6464466,0,0,0.6464466,228.82988,76.493377)" />
    <path
       sodipodi:type="arc"
       style="fill:none;stroke:#000000;stroke-width:1.93364775;stroke-miterlimit:4;stroke-dasharray:none;stroke-dashoffset:0;stroke-opacity:1"
       id="path2405"
       sodipodi:cx="197.9899"
       sodipodi:cy="538.19452"
       sodipodi:rx="30.304577"
       sodipodi:ry="30.304577"
       d="M 228.29448,538.19452 A 30.304577,30.304577 0 1 1 167.68532,538.19452 A 30.304577,30.304577 0 1 1 228.29448,538.19452 z"
       transform="matrix(0.6464466,0,0,0.6464466,310.14716,119.42486)" />
    <path
       sodipodi:type="arc"
       style="fill:none;stroke:#000000;stroke-width:1.93364775;stroke-miterlimit:4;stroke-dasharray:none;stroke-dashoffset:0;stroke-opacity:1"
       id="path2407"
       sodipodi:cx="197.9899"
       sodipodi:cy="538.19452"
       sodipodi:rx="30.304577"
       sodipodi:ry="30.304577"
       d="M 228.29448,538.19452 A 30.304577,30.304577 0 1 1 167.68532,538.19452 A 30.304577,30.304577 0 1 1 228.29448,538.19452 z"
       transform="matrix(0.6464466,0,0,0.6464466,317.21823,186.82268)" />
    <path
       sodipodi:type="arc"
       style="fill:none;stroke:#000000;stroke-width:1.93364775;stroke-miterlimit:4;stroke-dasharray:none;stroke-dashoffset:0;stroke-opacity:1"
       id="path2409"
       sodipodi:cx="197.9899"
       sodipodi:cy="538.19452"
       sodipodi:rx="30.304577"
       sodipodi:ry="30.304577"
       d="M 228.29448,538.19452 A 30.304577,30.304577 0 1 1 167.68532,538.19452 A 30.304577,30.304577 0 1 1 228.29448,538.19452 z"
       transform="matrix(0.6464466,0,0,0.6464466,244.99232,290.39318)" />
    <path
       sodipodi:type="arc"
       style="fill:none;stroke:#000000;stroke-width:1.93364775;stroke-miterlimit:4;stroke-dasharray:none;stroke-dashoffset:0;stroke-opacity:1"
       id="path2411"
       sodipodi:cx="197.9899"
       sodipodi:cy="538.19452"
       sodipodi:rx="30.304577"
       sodipodi:ry="30.304577"
       d="M 228.29448,538.19452 A 30.304577,30.304577 0 1 1 167.68532,538.19452 A 30.304577,30.304577 0 1 1 228.29448,538.19452 z"
       transform="matrix(0.6464466,0,0,0.6464466,154.58367,290.39318)" />
    <path
       sodipodi:type="arc"
       style="fill:none;stroke:#000000;stroke-width:1.93364775;stroke-miterlimit:4;stroke-dasharray:none;stroke-dashoffset:0;stroke-opacity:1"
       id="path2413"
       sodipodi:cx="197.9899"
       sodipodi:cy="538.19452"
       sodipodi:rx="30.304577"
       sodipodi:ry="30.304577"
       d="M 228.29448,538.19452 A 30.304577,30.304577 0 1 1 167.68532,538.19452 A 30.304577,30.304577 0 1 1 228.29448,538.19452 z"
       transform="matrix(0.6464466,0,0,0.6464466,59.629329,290.39318)" />
    <path
       style="fill:none;fill-rule:evenodd;stroke:#000000;stroke-width:3.75;stroke-linecap:butt;stroke-linejoin:miter;stroke-miterlimit:4;stroke-dasharray:none;stroke-opacity:1"
       d="M 221.02976,480.45863 L 279.15183,522.63328"
       id="path2415"
       inkscape:connector-type="polyline" />
    <path
       style="fill:none;fill-rule:evenodd;stroke:#000000;stroke-width:1.25;stroke-linecap:butt;stroke-linejoin:miter;stroke-miterlimit:4;stroke-dasharray:none;stroke-opacity:1"
       d="M 347.62284,442.04925 L 307.03586,519.16427"
       id="path2417"
       inkscape:connector-type="polyline" />
    <path
       style="fill:none;fill-rule:evenodd;stroke:#000000;stroke-width:1.25;stroke-linecap:butt;stroke-linejoin:miter;stroke-miterlimit:4;stroke-dasharray:none;stroke-opacity:1"
       d="M 313.96931,532.70414 L 423.77548,480.45861"
       id="path2419"
       inkscape:connector-type="polyline" />
    <path
       style="fill:none;fill-rule:evenodd;stroke:#000000;stroke-width:3.75;stroke-linecap:butt;stroke-linejoin:miter;stroke-miterlimit:4;stroke-dasharray:none;stroke-opacity:1"
       d="M 314.06564,536.23969 L 425.37439,536.23969"
       id="path2421"
       inkscape:connector-type="polyline" />
    <path
       style="fill:none;fill-rule:evenodd;stroke:#000000;stroke-width:1.25;stroke-linecap:butt;stroke-linejoin:miter;stroke-miterlimit:4;stroke-dasharray:none;stroke-opacity:1"
       d="M 289.83551,553.99467 L 283.93115,618.44907"
       id="path2423"
       inkscape:connector-type="polyline" />
    <path
       style="fill:none;fill-rule:evenodd;stroke:#000000;stroke-width:1.25;stroke-linecap:butt;stroke-linejoin:miter;stroke-miterlimit:4;stroke-dasharray:none;stroke-opacity:1"
       d="M 202.48408,625.66806 L 279.49843,547.35137"
       id="path2425"
       inkscape:connector-type="polyline" />
    <path
       style="fill:none;fill-rule:evenodd;stroke:#000000;stroke-width:1.25;stroke-linecap:butt;stroke-linejoin:miter;stroke-miterlimit:4;stroke-dasharray:none;stroke-opacity:1"
       d="M 306.51069,549.52139 L 360.83663,623.44903"
       id="path2427"
       inkscape:connector-type="polyline" />
    <text
       xml:space="preserve"
       style="font-size:20px;font-style:normal;font-weight:normal;fill:#000000;fill-opacity:1;stroke:none;stroke-width:1px;stroke-linecap:butt;stroke-linejoin:miter;stroke-opacity:1;font-family:Bitstream Vera Sans"
       x="167.41617"
       y="506.73483"
       id="text3211"><tspan
         sodipodi:role="line"
         id="tspan3213"
         x="167.41617"
         y="506.73483">Padre</tspan></text>
    <text
       xml:space="preserve"
       style="font-size:20px;font-style:normal;font-weight:normal;fill:#000000;fill-opacity:1;stroke:none;stroke-width:1px;stroke-linecap:butt;stroke-linejoin:miter;stroke-opacity:1;font-family:Bitstream Vera Sans"
       x="273.48218"
       y="512.79578"
       id="text3215"><tspan
         sodipodi:role="line"
         id="tspan3217"
         x="273.48218"
         y="512.79578">1</tspan></text>
    <text
       xml:space="preserve"
       style="font-size:20px;font-style:normal;font-weight:normal;fill:#000000;fill-opacity:1;stroke:none;stroke-width:1px;stroke-linecap:butt;stroke-linejoin:miter;stroke-opacity:1;font-family:Bitstream Vera Sans"
       x="260.37811"
       y="552.91577"
       id="text3219"><tspan
         sodipodi:role="line"
         id="tspan3221"
         x="260.37811"
         y="552.91577">2</tspan><tspan
         sodipodi:role="line"
         x="260.37811"
         y="577.91577"
         id="tspan3223" /></text>
    <text
       xml:space="preserve"
       style="font-size:20px;font-style:normal;font-weight:normal;fill:#000000;fill-opacity:1;stroke:none;stroke-width:1px;stroke-linecap:butt;stroke-linejoin:miter;stroke-opacity:1;font-family:Bitstream Vera Sans"
       x="195.22328"
       y="617.56549"
       id="text3225"><tspan
         sodipodi:role="line"
         id="tspan3227"
         x="195.22328"
         y="617.56549">1</tspan></text>
    <text
       xml:space="preserve"
       style="font-size:20px;font-style:normal;font-weight:normal;fill:#000000;fill-opacity:1;stroke:none;stroke-width:1px;stroke-linecap:butt;stroke-linejoin:miter;stroke-opacity:1;font-family:Bitstream Vera Sans"
       x="271.48978"
       y="616.05029"
       id="text3229"><tspan
         sodipodi:role="line"
         id="tspan3231"
         x="271.48978"
         y="616.05029">1</tspan></text>
    <text
       xml:space="preserve"
       style="font-size:20px;font-style:normal;font-weight:normal;fill:#000000;fill-opacity:1;stroke:none;stroke-width:1px;stroke-linecap:butt;stroke-linejoin:miter;stroke-opacity:1;font-family:Bitstream Vera Sans"
       x="357.35275"
       y="617.06042"
       id="text3233"><tspan
         sodipodi:role="line"
         id="tspan3235"
         x="357.35275"
         y="617.06042">1</tspan></text>
    <text
       xml:space="preserve"
       style="font-size:20px;font-style:normal;font-weight:normal;fill:#000000;fill-opacity:1;stroke:none;stroke-width:1px;stroke-linecap:butt;stroke-linejoin:miter;stroke-opacity:1;font-family:Bitstream Vera Sans"
       x="316.94662"
       y="556.95636"
       id="text3237"><tspan
         sodipodi:role="line"
         id="tspan3239"
         x="316.94662"
         y="556.95636"
         dy="0 0 5.0507627 -5.0507627">|F<tspan
   style="font-size:10px"
   id="tspan3241">v</tspan>|</tspan></text>
    <text
       xml:space="preserve"
       style="font-size:20px;font-style:normal;font-weight:normal;fill:#000000;fill-opacity:1;stroke:none;stroke-width:1px;stroke-linecap:butt;stroke-linejoin:miter;stroke-opacity:1;font-family:Bitstream Vera Sans"
       x="306.34006"
       y="473.11368"
       id="text3245"><tspan
         sodipodi:role="line"
         id="tspan3247"
         x="306.34006"
         y="473.11368"
         dy="0 4.0406098">d<tspan
   style="font-size:10px"
   id="tspan3249">v</tspan></tspan></text>
    <text
       xml:space="preserve"
       style="font-size:20px;font-style:normal;font-weight:normal;fill:#000000;fill-opacity:1;stroke:none;stroke-width:1px;stroke-linecap:butt;stroke-linejoin:miter;stroke-opacity:1;font-family:Bitstream Vera Sans"
       x="407.35529"
       y="504.42844"
       id="text3251"><tspan
         sodipodi:role="line"
         id="tspan3253"
         x="407.35529"
         y="504.42844"
         dy="0 0 4.5456862 -4.5456862">|F<tspan
   style="font-size:10px"
   id="tspan3255">v</tspan>|+1 </tspan></text>
    <g
       id="g3834">
      <text
         id="text3259"
         y="533.09149"
         x="346.87244"
         style="font-size:20px;font-style:normal;font-weight:normal;fill:#000000;fill-opacity:1;stroke:none;stroke-width:1px;stroke-linecap:butt;stroke-linejoin:miter;stroke-opacity:1;font-family:Bitstream Vera Sans"
         xml:space="preserve"><tspan
           y="533.09149"
           x="346.87244"
           id="tspan3261"
           sodipodi:role="line">i=1</tspan></text>
      <path
         inkscape:connector-type="polyline"
         id="path3263"
         d="M 364.14339,521.76085 L 356.3147,531.7361"
         style="fill:none;fill-rule:evenodd;stroke:#000000;stroke-width:1px;stroke-linecap:butt;stroke-linejoin:miter;stroke-opacity:1" />
    </g>
    <g
       id="g3276">
      <text
         id="text3270"
         y="576.35229"
         x="380.24072"
         style="font-size:20px;font-style:normal;font-weight:normal;fill:#000000;fill-opacity:1;stroke:none;stroke-width:1px;stroke-linecap:butt;stroke-linejoin:miter;stroke-opacity:1;font-family:Bitstream Vera Sans"
         xml:space="preserve"><tspan
           y="576.35229"
           x="380.24072"
           id="tspan3272"
           sodipodi:role="line"> ∈ T</tspan></text>
      <path
         inkscape:connector-type="polyline"
         id="path3274"
         d="M 403.32463,558.58779 L 388.32464,578.05207"
         style="fill:none;fill-rule:evenodd;stroke:#000000;stroke-width:1.25;stroke-linecap:butt;stroke-linejoin:miter;stroke-miterlimit:4;stroke-dasharray:none;stroke-opacity:1" />
    </g>
    <path
       style="fill:none;fill-rule:evenodd;stroke:#000000;stroke-width:1px;stroke-linecap:butt;stroke-linejoin:miter;marker-end:url(#TriangleOutM);stroke-opacity:1"
       d="M 120.46069,60.434969 L 129.55206,81.900711"
       id="path3281"
       transform="translate(260.35021,477.36205)"
       inkscape:connector-type="polyline" />
    <text
       xml:space="preserve"
       style="font-size:20px;font-style:normal;font-weight:normal;fill:#000000;fill-opacity:1;stroke:none;stroke-width:1px;stroke-linecap:butt;stroke-linejoin:miter;stroke-opacity:1;font-family:Bitstream Vera Sans"
       x="242.05528"
       y="713.92621"
       id="text3804"><tspan
         sodipodi:role="line"
         id="tspan3806"
         x="242.05528"
         y="713.92621">Figli</tspan></text>
    <g
       id="g3820"
       transform="matrix(1.0537866,-0.8180342,0.8316215,1.0365696,-648.59747,286.98651)">
      <path
         transform="translate(260.35021,477.36205)"
         id="path3816"
         d="M 289.91378,45.030143 C 291.51934,48.241263 298.50462,47.819422 301.02546,54.121516 C 302.98501,59.020391 303.04576,65.686365 303.04576,71.294109 C 303.04576,77.662218 304.05591,83.596832 304.05591,89.476855 C 304.05591,94.699018 305.84097,99.647546 307.08637,104.62914 C 308.54911,110.48009 308.81758,114.58444 310.11683,119.78143 C 311.02162,123.4006 318.54752,127.20196 320.21835,128.8728 C 320.69454,129.34899 321.56522,128.8728 322.23866,128.8728"
         style="fill:none;fill-rule:evenodd;stroke:#000000;stroke-width:0.75109082px;stroke-linecap:butt;stroke-linejoin:miter;stroke-opacity:1" />
      <path
         id="path3818"
         d="M 550.29462,690.21134 C 551.90018,687.00022 558.88546,687.42206 561.4063,681.11997 C 563.36585,676.22109 563.4266,669.55512 563.4266,663.94738 C 563.4266,657.57927 564.43675,651.64465 564.43675,645.76463 C 564.43675,640.54247 566.22181,635.59394 567.46721,630.61235 C 568.92995,624.7614 569.19842,620.65705 570.49767,615.46006 C 571.40246,611.84089 578.92836,608.03953 580.59919,606.36869 C 581.07538,605.8925 581.94606,606.36869 582.6195,606.36869"
         style="fill:none;fill-rule:evenodd;stroke:#000000;stroke-width:0.75109082px;stroke-linecap:butt;stroke-linejoin:miter;stroke-opacity:1" />
    </g>
    <text
       xml:space="preserve"
       style="font-size:20px;font-style:normal;font-weight:normal;fill:#000000;fill-opacity:1;stroke:none;stroke-width:1px;stroke-linecap:butt;stroke-linejoin:miter;stroke-opacity:1;font-family:Bitstream Vera Sans"
       x="476.06451"
       y="433.34796"
       id="text3824"><tspan
         sodipodi:role="line"
         id="tspan3826"
         x="476.06451"
         y="433.34796">Fuori dallo ST</tspan></text>
    <g
       id="g3828"
       transform="matrix(-0.3041093,1.3520125,-1.4752029,-2.694461e-2,1336.3155,-76.328696)">
      <path
         transform="translate(260.35021,477.36205)"
         id="path3830"
         d="M 289.91378,45.030143 C 291.51934,48.241263 298.50462,47.819422 301.02546,54.121516 C 302.98501,59.020391 303.04576,65.686365 303.04576,71.294109 C 303.04576,77.662218 304.05591,83.596832 304.05591,89.476855 C 304.05591,94.699018 305.84097,99.647546 307.08637,104.62914 C 308.54911,110.48009 308.81758,114.58444 310.11683,119.78143 C 311.02162,123.4006 318.54752,127.20196 320.21835,128.8728 C 320.69454,129.34899 321.56522,128.8728 322.23866,128.8728"
         style="fill:none;fill-rule:evenodd;stroke:#000000;stroke-width:0.70663232px;stroke-linecap:butt;stroke-linejoin:miter;stroke-opacity:1" />
      <path
         id="path3832"
         d="M 550.29462,690.21134 C 551.90018,687.00022 558.88546,687.42206 561.4063,681.11997 C 563.36585,676.22109 563.4266,669.55512 563.4266,663.94738 C 563.4266,657.57927 564.43675,651.64465 564.43675,645.76463 C 564.43675,640.54247 566.22181,635.59394 567.46721,630.61235 C 568.92995,624.7614 569.19842,620.65705 570.49767,615.46006 C 571.40246,611.84089 578.92836,608.03953 580.59919,606.36869 C 581.07538,605.8925 581.94606,606.36869 582.6195,606.36869"
         style="fill:none;fill-rule:evenodd;stroke:#000000;stroke-width:0.70663232px;stroke-linecap:butt;stroke-linejoin:miter;stroke-opacity:1" />
    </g>
    <text
       xml:space="preserve"
       style="font-size:20px;font-style:normal;font-weight:normal;fill:#000000;fill-opacity:1;stroke:none;stroke-width:1px;stroke-linecap:butt;stroke-linejoin:miter;stroke-opacity:1;font-family:Bitstream Vera Sans"
       x="410.92181"
       y="530.02612"
       id="text3839"><tspan
         sodipodi:role="line"
         id="tspan3841"
         x="410.92181"
         y="530.02612">B</tspan></text>
  </g>
</svg>
