<?xml version="1.0" encoding="UTF-8" standalone="no"?>
<!-- Created with Inkscape (http://www.inkscape.org/) -->
<svg
   xmlns:dc="http://purl.org/dc/elements/1.1/"
   xmlns:cc="http://creativecommons.org/ns#"
   xmlns:rdf="http://www.w3.org/1999/02/22-rdf-syntax-ns#"
   xmlns:svg="http://www.w3.org/2000/svg"
   xmlns="http://www.w3.org/2000/svg"
   xmlns:sodipodi="http://sodipodi.sourceforge.net/DTD/sodipodi-0.dtd"
   xmlns:inkscape="http://www.inkscape.org/namespaces/inkscape"
   width="478.0238"
   height="473.84555"
   id="svg2"
   sodipodi:version="0.32"
   inkscape:version="0.46"
   version="1.0"
   sodipodi:docname="asfar.svg"
   inkscape:output_extension="org.inkscape.output.svg.inkscape">
  <defs
     id="defs4">
    <marker
       inkscape:stockid="Arrow2Lstart"
       orient="auto"
       refY="0"
       refX="0"
       id="Arrow2Lstart"
       style="overflow:visible">
      <path
         id="path4778"
         style="font-size:12px;fill-rule:evenodd;stroke-width:0.625;stroke-linejoin:round"
         d="M 8.7185878,4.0337352 L -2.2072895,0.016013256 L 8.7185884,-4.0017078 C 6.97309,-1.6296469 6.9831476,1.6157441 8.7185878,4.0337352 z"
         transform="matrix(1.1,0,0,1.1,1.1,0)" />
    </marker>
    <marker
       inkscape:stockid="Arrow2Lend"
       orient="auto"
       refY="0"
       refX="0"
       id="Arrow2Lend"
       style="overflow:visible">
      <path
         id="path3304"
         style="font-size:12px;fill-rule:evenodd;stroke-width:0.625;stroke-linejoin:round"
         d="M 8.7185878,4.0337352 L -2.2072895,0.016013256 L 8.7185884,-4.0017078 C 6.97309,-1.6296469 6.9831476,1.6157441 8.7185878,4.0337352 z"
         transform="matrix(-1.1,0,0,-1.1,-1.1,0)" />
    </marker>
    <inkscape:perspective
       sodipodi:type="inkscape:persp3d"
       inkscape:vp_x="0 : 526.18109 : 1"
       inkscape:vp_y="0 : 1000 : 0"
       inkscape:vp_z="744.09448 : 526.18109 : 1"
       inkscape:persp3d-origin="372.04724 : 350.78739 : 1"
       id="perspective10" />
  </defs>
  <sodipodi:namedview
     id="base"
     pagecolor="#ffffff"
     bordercolor="#666666"
     borderopacity="1.0"
     inkscape:pageopacity="0.0"
     inkscape:pageshadow="2"
     inkscape:zoom="0.7"
     inkscape:cx="398.56563"
     inkscape:cy="155.81059"
     inkscape:document-units="px"
     inkscape:current-layer="layer1"
     showgrid="false"
     inkscape:window-width="1270"
     inkscape:window-height="771"
     inkscape:window-x="0"
     inkscape:window-y="21"
     showguides="true"
     inkscape:guide-bbox="true" />
  <metadata
     id="metadata7">
    <rdf:RDF>
      <cc:Work
         rdf:about="">
        <dc:format>image/svg+xml</dc:format>
        <dc:type
           rdf:resource="http://purl.org/dc/dcmitype/StillImage" />
      </cc:Work>
    </rdf:RDF>
  </metadata>
  <g
     inkscape:label="Livello 1"
     inkscape:groupmode="layer"
     id="layer1"
     transform="translate(-126.80871,13.895849)">
    <path
       sodipodi:type="arc"
       style="fill:none;fill-opacity:1;stroke:#000000;stroke-width:1.00999999;stroke-miterlimit:4;stroke-dasharray:none;stroke-opacity:1"
       id="path2403"
       sodipodi:cx="580.83771"
       sodipodi:cy="44.229942"
       sodipodi:rx="221.2234"
       sodipodi:ry="221.2234"
       d="M 802.06111,44.229942 A 221.2234,221.2234 0 1 1 359.6143,44.229942 A 221.2234,221.2234 0 1 1 802.06111,44.229942 z"
       transform="matrix(0.712984,0,0,0.712984,-46.432443,191.4917)" />
    <path
       sodipodi:type="arc"
       style="fill:#ffffff;fill-opacity:1;stroke:#000000;stroke-width:1.00999999;stroke-miterlimit:4;stroke-dasharray:none;stroke-opacity:1"
       id="path5028"
       sodipodi:cx="315.1676"
       sodipodi:cy="62.412689"
       sodipodi:rx="23.233509"
       sodipodi:ry="23.233509"
       d="M 338.40111,62.412689 A 23.233509,23.233509 0 1 1 291.93409,62.412689 A 23.233509,23.233509 0 1 1 338.40111,62.412689 z"
       transform="translate(53.538077,317.1879)" />
    <path
       sodipodi:type="arc"
       style="fill:#ffffff;fill-opacity:1;stroke:#000000;stroke-width:1.00999999;stroke-miterlimit:4;stroke-dasharray:none;stroke-opacity:1"
       id="path2397"
       sodipodi:cx="315.1676"
       sodipodi:cy="62.412689"
       sodipodi:rx="23.233509"
       sodipodi:ry="23.233509"
       d="M 338.40111,62.412689 A 23.233509,23.233509 0 1 1 291.93409,62.412689 A 23.233509,23.233509 0 1 1 338.40111,62.412689 z"
       transform="translate(47.477161,4.0406091)" />
    <path
       sodipodi:type="arc"
       style="fill:#ffffff;fill-opacity:1;stroke:#000000;stroke-width:1.00999999;stroke-miterlimit:4;stroke-dasharray:none;stroke-opacity:1"
       id="path5031"
       sodipodi:cx="315.1676"
       sodipodi:cy="62.412689"
       sodipodi:rx="23.233509"
       sodipodi:ry="23.233509"
       d="M 338.40111,62.412689 A 23.233509,23.233509 0 1 1 291.93409,62.412689 A 23.233509,23.233509 0 1 1 338.40111,62.412689 z"
       transform="translate(-110.10664,156.57364)" />
    <path
       sodipodi:type="arc"
       style="fill:#ffffff;fill-opacity:1;stroke:#000000;stroke-width:1.00999999;stroke-miterlimit:4;stroke-dasharray:none;stroke-opacity:1"
       id="path5033"
       sodipodi:cx="315.1676"
       sodipodi:cy="62.412689"
       sodipodi:rx="23.233509"
       sodipodi:ry="23.233509"
       d="M 338.40111,62.412689 A 23.233509,23.233509 0 1 1 291.93409,62.412689 A 23.233509,23.233509 0 1 1 338.40111,62.412689 z"
       transform="translate(210.11172,161.62441)" />
    <path
       sodipodi:type="arc"
       style="fill:#ffffff;fill-opacity:1;stroke:#000000;stroke-width:1.00999999;stroke-miterlimit:4;stroke-dasharray:none;stroke-opacity:1"
       id="path5035"
       sodipodi:cx="315.1676"
       sodipodi:cy="62.412689"
       sodipodi:rx="23.233509"
       sodipodi:ry="23.233509"
       d="M 338.40111,62.412689 A 23.233509,23.233509 0 1 1 291.93409,62.412689 A 23.233509,23.233509 0 1 1 338.40111,62.412689 z"
       transform="translate(164.14985,48.992309)" />
    <path
       sodipodi:type="arc"
       style="fill:#ffffff;fill-opacity:1;stroke:#000000;stroke-width:1.00999999;stroke-miterlimit:4;stroke-dasharray:none;stroke-opacity:1"
       id="path5037"
       sodipodi:cx="315.1676"
       sodipodi:cy="62.412689"
       sodipodi:rx="23.233509"
       sodipodi:ry="23.233509"
       d="M 338.40111,62.412689 A 23.233509,23.233509 0 1 1 291.93409,62.412689 A 23.233509,23.233509 0 1 1 338.40111,62.412689 z"
       transform="translate(-58.588856,46.467016)" />
    <path
       sodipodi:type="arc"
       style="fill:#ffffff;fill-opacity:1;stroke:#000000;stroke-width:1.00999999;stroke-miterlimit:4;stroke-dasharray:none;stroke-opacity:1"
       id="path5039"
       sodipodi:cx="315.1676"
       sodipodi:cy="62.412689"
       sodipodi:rx="23.233509"
       sodipodi:ry="23.233509"
       d="M 338.40111,62.412689 A 23.233509,23.233509 0 1 1 291.93409,62.412689 A 23.233509,23.233509 0 1 1 338.40111,62.412689 z"
       transform="translate(-61.114156,268.19542)" />
    <path
       sodipodi:type="arc"
       style="fill:#ffffff;fill-opacity:1;stroke:#000000;stroke-width:1.00999999;stroke-miterlimit:4;stroke-dasharray:none;stroke-opacity:1"
       id="path5041"
       sodipodi:cx="315.1676"
       sodipodi:cy="62.412689"
       sodipodi:rx="23.233509"
       sodipodi:ry="23.233509"
       d="M 338.40111,62.412689 A 23.233509,23.233509 0 1 1 291.93409,62.412689 A 23.233509,23.233509 0 1 1 338.40111,62.412689 z"
       transform="translate(166.67516,268.70058)" />
    <path
       transform="matrix(0.8906606,0,0,0.8906606,-149.63371,183.63307)"
       d="M 359.6143,44.229932 A 221.2234,221.2234 0 1 1 362.45432,79.563953"
       sodipodi:ry="221.2234"
       sodipodi:rx="221.2234"
       sodipodi:cy="44.229942"
       sodipodi:cx="580.83771"
       id="path2430"
       style="fill:none;fill-opacity:1;stroke:#000000;stroke-width:1.01048589;marker-start:url(#Arrow2Lstart);stroke-miterlimit:4;stroke-dasharray:none;stroke-opacity:1"
       sodipodi:type="arc"
       sodipodi:start="3.1415927"
       sodipodi:end="9.26437"
       sodipodi:open="true" />
    <path
       sodipodi:type="arc"
       style="fill:none;fill-opacity:1;stroke:#000000;stroke-width:1.00999999;marker-start:url(#Arrow2Lstart);stroke-miterlimit:4;stroke-dasharray:none;stroke-opacity:1"
       id="path2432"
       sodipodi:cx="580.83771"
       sodipodi:cy="44.229942"
       sodipodi:rx="221.2234"
       sodipodi:ry="221.2234"
       d="M 359.64126,40.776797 A 221.2234,221.2234 0 1 1 422.96659,199.20254"
       transform="matrix(0.98698,0,0,0.98698,-205.45903,179.37287)"
       sodipodi:start="3.1572026"
       sodipodi:end="8.6486446"
       sodipodi:open="true" />
    <path
       transform="matrix(1.0685269,0,0,1.0685269,-252.73099,175.76605)"
       d="M 359.61514,43.62044 A 221.2234,221.2234 0 1 1 570.70385,265.22112"
       sodipodi:ry="221.2234"
       sodipodi:rx="221.2234"
       sodipodi:cy="44.229942"
       sodipodi:cx="580.83771"
       id="path2434"
       style="fill:none;fill-opacity:1;stroke:#000000;stroke-width:1.00999999;marker-start:url(#Arrow2Lstart);stroke-miterlimit:4;stroke-dasharray:none;stroke-opacity:1"
       sodipodi:type="arc"
       sodipodi:start="3.1443478"
       sodipodi:end="7.8998059"
       sodipodi:open="true" />
  </g>
</svg>
